<?xml version="1.0" encoding="utf-8"?>
<!-- Generator: Adobe Illustrator 24.1.1, SVG Export Plug-In . SVG Version: 6.00 Build 0)  -->
<svg version="1.1" id="Capa_1" xmlns="http://www.w3.org/2000/svg" xmlns:xlink="http://www.w3.org/1999/xlink" x="0px" y="0px"
	 viewBox="0 0 1366 720" style="enable-background:new 0 0 1366 720;" xml:space="preserve">
<style type="text/css">
	.st0{opacity:0.51;fill:url(#SVGID_1_);}
	.st1{opacity:0.51;fill:url(#SVGID_2_);}
	.st2{opacity:0.51;fill:url(#SVGID_3_);}
	.st3{opacity:0.51;fill:url(#SVGID_4_);}
	.st4{opacity:0.51;fill:url(#SVGID_5_);}
	.st5{fill:#DEEDFC;}
	.st6{fill:#FFFFFF;}
	.st7{fill:#EAF0F9;}
	.st8{opacity:0.33;fill:#B1D2F2;}
	.st9{fill:url(#SVGID_6_);}
	.st10{fill:url(#SVGID_7_);}
	.st11{fill:url(#SVGID_8_);}
	.st12{fill:url(#SVGID_9_);}
	.st13{fill:url(#SVGID_10_);}
	.st14{fill:url(#SVGID_11_);}
</style>
<linearGradient id="SVGID_1_" gradientUnits="userSpaceOnUse" x1="388.3916" y1="214.8757" x2="777.181" y2="214.8757">
	<stop  offset="0" style="stop-color:#5CCDFF;stop-opacity:0"/>
	<stop  offset="0.8529" style="stop-color:#5CCDFF;stop-opacity:0.8529"/>
	<stop  offset="1" style="stop-color:#5CCDFF"/>
</linearGradient>
<polygon class="st0" points="417.87,427.39 388.39,401.23 725.57,2.36 777.18,2.36 "/>
<linearGradient id="SVGID_2_" gradientUnits="userSpaceOnUse" x1="449.9854" y1="226.7704" x2="895.9363" y2="226.7704">
	<stop  offset="0" style="stop-color:#5CCDFF;stop-opacity:0"/>
	<stop  offset="0.8529" style="stop-color:#5CCDFF;stop-opacity:0.8529"/>
	<stop  offset="1" style="stop-color:#5CCDFF"/>
</linearGradient>
<polygon class="st1" points="895.94,2.36 515.7,452.17 449.99,396.61 784.1,1.37 "/>
<linearGradient id="SVGID_3_" gradientUnits="userSpaceOnUse" x1="599.371" y1="228.9281" x2="1049.8068" y2="228.9281">
	<stop  offset="0" style="stop-color:#5CCDFF;stop-opacity:0"/>
	<stop  offset="0.8529" style="stop-color:#5CCDFF;stop-opacity:0.8529"/>
	<stop  offset="1" style="stop-color:#5CCDFF"/>
</linearGradient>
<polyline class="st2" points="1049.81,1.37 665.09,456.48 599.37,400.93 937.13,1.37 "/>
<linearGradient id="SVGID_4_" gradientUnits="userSpaceOnUse" x1="997.5411" y1="569.8947" x2="997.5411" y2="1.374">
	<stop  offset="0" style="stop-color:#5CCDFF;stop-opacity:0"/>
	<stop  offset="0.8529" style="stop-color:#5CCDFF;stop-opacity:0.8529"/>
	<stop  offset="1" style="stop-color:#5CCDFF"/>
</linearGradient>
<polyline class="st3" points="1306.11,2.36 826.36,569.89 688.97,453.76 1071.39,1.37 "/>
<linearGradient id="SVGID_5_" gradientUnits="userSpaceOnUse" x1="907.1998" y1="271.1076" x2="1366.8969" y2="271.1076">
	<stop  offset="0" style="stop-color:#5CCDFF;stop-opacity:0"/>
	<stop  offset="0.8529" style="stop-color:#5CCDFF;stop-opacity:0.8529"/>
	<stop  offset="1" style="stop-color:#5CCDFF"/>
</linearGradient>
<polygon class="st4" points="1340.93,2.36 907.2,515.45 936.06,539.85 1366.9,30.19 1366.9,2.36 "/>
<path class="st5" d="M819.4,497.86c0,0,28.64-109.06,165.82-116.53c0,0,1.18-61.47,57.18-88.47s108,0,108,0s2-26,23-39
	c0,0-24-66,31-107s116,2,116,2s4-41,46-59v470h-547V497.86z"/>
<path class="st6" d="M837.4,484.86c0,0,1-31-30-35s-50,23-50,23s-39-6-77,26c0,0-11-6-21,0c0,0-5-16-31-16c0,0,12-52-32-72
	s-84,10-88,31c0,0-18-10-32-2c0,0-1-40-46-38c0,0-7-50-50-60s-77,18-79,26c0,0-27-28-52-4c0,0-16-54-75-44s-51,53-51,53s-8-6-15-2
	c0,0,22-24,3-58s-47-34-47-34s0-59-50-88c0,0,13-39-15-58v434h838V484.86z"/>
<path class="st7" d="M571.4,526.86c0,0-7-26-40-25s-45,32-45,32s-16-26-36-22c0,0,3-43-27-51s-50,24-50,24s-7-11-24-3
	c0,0-4-27-26-21c0,0,6-38-33-44s-52,21-52,21s-37-23-74-10c0,0-11-72-86-57c0,0-7-8-18-2c0,0-20-32-60-11v234h571V526.86z"/>
<path class="st8" d="M0.9,314.36c0,0,28,5,29,69c0,0,67,11,45,77c0,0,15,1,12,12c0,0,41-8,52,18s-10,40-10,40s39,3,39,40v24H0.9
	V314.36z"/>
<linearGradient id="SVGID_6_" gradientUnits="userSpaceOnUse" x1="309.489" y1="795.1416" x2="523.6121" y2="424.2696">
	<stop  offset="0" style="stop-color:#3143B0"/>
	<stop  offset="1" style="stop-color:#4AA2E2"/>
</linearGradient>
<path class="st9" d="M55.4,592.86c0,0,316-153,710-29v84h-711L55.4,592.86z"/>
<path class="st6" d="M128.4,637.86c0,0,17-29-3-41s-29-3-29-3s18-19,3-35s-44-3-44-3s7-31-22-36s-34,20-34,20v98H128.4z"/>
<linearGradient id="SVGID_7_" gradientUnits="userSpaceOnUse" x1="320.8526" y1="787.9067" x2="482.7042" y2="507.5715">
	<stop  offset="0" style="stop-color:#3143B0"/>
	<stop  offset="1" style="stop-color:#4AA2E2"/>
</linearGradient>
<path class="st10" d="M116.4,633.86c0,0,295-119,566-11v47h-566V633.86z"/>
<path class="st6" d="M648.4,633.86c0,0-5-19,10-32s37-8,37-8s-6-16,0-25s27,3,27,3s-18-43,23-61s62,13,62,13s7-30,30-34
	c0,0,1-26,27-13c0,0-7-30,32-28c0,0-3-35,34-44s54.5,18.97,54.5,18.97s14.5-17.97,39.5-3.97c0,0,1-29,30-33s48,15,48,15v232H648.4z"
	/>
<path class="st7" d="M896.4,557.86c0,0,9-87,117-95c0,0-1-32,32-55s83-6,83-6s3-24,25-31c0,0-25-40,17-77s84,5,84,5s-7-31,29-45
	s59,6,59,6s-3-8,12-17c0,0-47-18-39-69s50-65,50-65v449H896.4z"/>
<linearGradient id="SVGID_8_" gradientUnits="userSpaceOnUse" x1="0.3968" y1="585.8641" x2="1367.3969" y2="585.8641">
	<stop  offset="0" style="stop-color:#3143B0"/>
	<stop  offset="1" style="stop-color:#4AA2E2"/>
</linearGradient>
<path class="st11" d="M0.4,583.86c0,0,280,164,710,20s417-152,657-152v268H1.4L0.4,583.86z"/>
<linearGradient id="SVGID_9_" gradientUnits="userSpaceOnUse" x1="679.0007" y1="593.365" x2="1367.3969" y2="593.365">
	<stop  offset="0" style="stop-color:#3143B0"/>
	<stop  offset="1" style="stop-color:#4FAEE2"/>
</linearGradient>
<path class="st12" d="M1367.4,719.36v-252.5c-126,0-202,65-590,220c-32.87,13.13-65.75,24.04-98.4,33"/>
<linearGradient id="SVGID_10_" gradientUnits="userSpaceOnUse" x1="33.5653" y1="738.5139" x2="60.3684" y2="692.0894">
	<stop  offset="0" style="stop-color:#3143B0"/>
	<stop  offset="0.1651" style="stop-color:#3349B3"/>
	<stop  offset="0.375" style="stop-color:#3758BA"/>
	<stop  offset="0.6091" style="stop-color:#3E72C6"/>
	<stop  offset="0.859" style="stop-color:#4896D7"/>
	<stop  offset="1" style="stop-color:#4FAEE2"/>
</linearGradient>
<path class="st13" d="M0.4,719.36v-32.5c0,0,40.03,15.95,107.21,32.5"/>
<linearGradient id="SVGID_11_" gradientUnits="userSpaceOnUse" x1="1288.7035" y1="764.7203" x2="1197.1359" y2="606.1205">
	<stop  offset="0" style="stop-color:#3143B0"/>
	<stop  offset="0.02" style="stop-color:#3247B2"/>
	<stop  offset="0.2191" style="stop-color:#3C6CC3"/>
	<stop  offset="0.4185" style="stop-color:#4589D1"/>
	<stop  offset="0.6161" style="stop-color:#4A9DDA"/>
	<stop  offset="0.8109" style="stop-color:#4EAAE0"/>
	<stop  offset="1" style="stop-color:#4FAEE2"/>
</linearGradient>
<path class="st14" d="M1049.81,719.36c8.59-5.5,83.59-50.5,161.59-115.5s155-73,155-73v189L1049.81,719.36z"/>
</svg>
