<?xml version="1.0" encoding="utf-8"?>
<!-- Generator: Adobe Illustrator 24.1.1, SVG Export Plug-In . SVG Version: 6.00 Build 0)  -->
<svg version="1.1" id="Capa_1" xmlns="http://www.w3.org/2000/svg" xmlns:xlink="http://www.w3.org/1999/xlink" x="0px" y="0px"
	 viewBox="0 0 486.14 551.42" style="enable-background:new 0 0 486.14 551.42;" xml:space="preserve">
<style type="text/css">
	.st0{fill:#EFDBC2;}
</style>
<g>
	<path class="st0" d="M175.89,550.56H1.47V431.74l5-74.64l-5-109l6-25l-6,6.68V1.1h66.76l21.24,8l-3-8l35,5l15-5h349v43.88l-3,4.12
		l3,6l-4,5l-1,6l-2,6l2,6c0,0,2,6,2,7s-3,8-3,8l6,7v34l-11,12l6-2l5,5v28l-3,40l3,33.32v247.16v52.98H321.27l-64.81-8.45l7,8
		L175.89,550.56z"/>
</g>
</svg>
