<?xml version="1.0" encoding="utf-8"?>
<!-- Generator: Adobe Illustrator 24.1.1, SVG Export Plug-In . SVG Version: 6.00 Build 0)  -->
<svg version="1.1" id="Capa_1" xmlns="http://www.w3.org/2000/svg" xmlns:xlink="http://www.w3.org/1999/xlink" x="0px" y="0px"
	 viewBox="0 0 255 555" style="enable-background:new 0 0 255 555;" xml:space="preserve">
<style type="text/css">
	.st0{opacity:0.51;fill:url(#SVGID_1_);}
	.st1{opacity:0.51;fill:url(#SVGID_2_);}
	.st2{opacity:0.51;fill:url(#SVGID_3_);}
	.st3{opacity:0.51;fill:url(#SVGID_4_);}
	.st4{opacity:0.51;fill:url(#SVGID_5_);}
	.st5{fill:#DEEDFC;}
	.st6{fill:#FFFFFF;}
	.st7{fill:#EAF0F9;}
	.st8{fill:url(#SVGID_6_);}
	.st9{fill:url(#SVGID_7_);}
	.st10{fill:url(#SVGID_8_);}
</style>
<linearGradient id="SVGID_1_" gradientUnits="userSpaceOnUse" x1="650.8637" y1="-710.4872" x2="706.0811" y2="-710.4872" gradientTransform="matrix(1.2766 -0.3272 -0.3272 1.3871 -1059.9928 1253.9286)">
	<stop  offset="0" style="stop-color:#5CCDFF;stop-opacity:0"/>
	<stop  offset="0.8529" style="stop-color:#5CCDFF;stop-opacity:0.8529"/>
	<stop  offset="1" style="stop-color:#5CCDFF"/>
</linearGradient>
<polygon class="st0" points="-0.15,97.76 82.74,-0.3 59.58,-0.3 -0.15,70.37 "/>
<linearGradient id="SVGID_2_" gradientUnits="userSpaceOnUse" x1="656.8866" y1="-683.7524" x2="750.5126" y2="-683.7524" gradientTransform="matrix(1.2766 -0.3272 -0.3272 1.3871 -1059.9928 1253.9286)">
	<stop  offset="0" style="stop-color:#5CCDFF;stop-opacity:0"/>
	<stop  offset="0.8529" style="stop-color:#5CCDFF;stop-opacity:0.8529"/>
	<stop  offset="1" style="stop-color:#5CCDFF"/>
</linearGradient>
<polygon class="st1" points="-0.15,101 85.47,-0.3 136.03,-0.3 -0.15,160.81 "/>
<linearGradient id="SVGID_3_" gradientUnits="userSpaceOnUse" x1="672.8637" y1="-645.9342" x2="807.7687" y2="-645.9342" gradientTransform="matrix(1.2766 -0.3272 -0.3272 1.3871 -1059.9928 1253.9286)">
	<stop  offset="0" style="stop-color:#5CCDFF;stop-opacity:0"/>
	<stop  offset="0.8529" style="stop-color:#5CCDFF;stop-opacity:0.8529"/>
	<stop  offset="1" style="stop-color:#5CCDFF"/>
</linearGradient>
<polygon class="st2" points="-0.15,182.23 154.14,-0.3 204.71,-0.3 0.14,241.7 "/>
<linearGradient id="SVGID_4_" gradientUnits="userSpaceOnUse" x1="775.8609" y1="-488.5349" x2="775.8609" y2="-711.5356" gradientTransform="matrix(1.2766 -0.3272 -0.3272 1.3871 -1059.9928 1253.9286)">
	<stop  offset="0" style="stop-color:#5CCDFF;stop-opacity:0"/>
	<stop  offset="0.8529" style="stop-color:#5CCDFF;stop-opacity:0.8529"/>
	<stop  offset="1" style="stop-color:#5CCDFF"/>
</linearGradient>
<polygon class="st3" points="0.02,306.65 35.37,336.53 254.83,76.91 254.87,-0.3 214.03,0.12 0.01,253.31 "/>
<linearGradient id="SVGID_5_" gradientUnits="userSpaceOnUse" x1="769.1028" y1="-566.1744" x2="873.5456" y2="-566.1744" gradientTransform="matrix(1.2766 -0.3272 -0.3272 1.3871 -1059.9928 1253.9286)">
	<stop  offset="0" style="stop-color:#5CCDFF;stop-opacity:0"/>
	<stop  offset="0.8529" style="stop-color:#5CCDFF;stop-opacity:0.8529"/>
	<stop  offset="1" style="stop-color:#5CCDFF"/>
</linearGradient>
<polyline class="st4" points="254.73,95.52 89.67,290.78 102.62,301.72 254.83,121.67 "/>
<path class="st5" d="M0,444.5c0,0,13.34-54.21,77.25-57.92c0,0,0.55-30.55,26.64-43.97c26.09-13.42,50.31,0,50.31,0
	s0.93-12.92,10.71-19.38c0,0-11.18-32.8,14.44-53.18s54.04,0.99,54.04,0.99s1.86-20.38,21.43-29.33v233.61H0V444.5z"/>
<path class="st6" d="M0.08,512.09h123.53V396.78c0,0-9.44-9.44-23.86-7.46c-14.41,1.99-14.91,16.4-14.91,16.4
	c-12.43-6.96-19.63,1.97-19.63,1.97s-8.7-13.9-27.09-9.43s-16.9,21.87-16.9,21.87c-19.38-0.99-15.91,13.92-15.91,13.92
	c-1.98-0.99-3.66-1.52-5.1-1.72L0.08,512.09z"/>
<path class="st7" d="M21.21,474.32c0,0,4.47-43.24,58.15-47.22c0,0-0.5-15.91,15.91-27.34c16.4-11.43,41.25-2.98,41.25-2.98
	s1.49-11.93,12.43-15.41c0,0-12.43-19.88,8.45-38.27c20.88-18.39,41.75,2.49,41.75,2.49s-3.48-15.41,14.41-22.37
	c17.89-6.96,29.33,2.98,29.33,2.98s-1.49-3.98,5.96-8.45c0,0-23.36-8.95-19.38-34.3c3.98-25.35,24.85-32.31,24.85-32.31v223.17
	H21.21z"/>
<linearGradient id="SVGID_6_" gradientUnits="userSpaceOnUse" x1="-0.0585" y1="488.3161" x2="255.3222" y2="488.3161">
	<stop  offset="0" style="stop-color:#3143B0"/>
	<stop  offset="1" style="stop-color:#4AA2E2"/>
</linearGradient>
<path class="st8" d="M255.32,554.84V421.63c-104.22,0-112.45,3.03-255.38,51.53V555L255.32,554.84z"/>
<linearGradient id="SVGID_7_" gradientUnits="userSpaceOnUse" x1="-0.0585" y1="492.0439" x2="255.3222" y2="492.0439">
	<stop  offset="0" style="stop-color:#3143B0"/>
	<stop  offset="1" style="stop-color:#4FAEE2"/>
</linearGradient>
<path class="st9" d="M255.32,554.59v-125.5c-58.29,0-95.05,27.99-255.38,93.99L0,555L255.32,554.59z"/>
<linearGradient id="SVGID_8_" gradientUnits="userSpaceOnUse" x1="216.2082" y1="577.1353" x2="170.695" y2="498.3043">
	<stop  offset="0" style="stop-color:#3143B0"/>
	<stop  offset="0.02" style="stop-color:#3247B2"/>
	<stop  offset="0.2191" style="stop-color:#3C6CC3"/>
	<stop  offset="0.4185" style="stop-color:#4589D1"/>
	<stop  offset="0.6161" style="stop-color:#4A9DDA"/>
	<stop  offset="0.8109" style="stop-color:#4EAAE0"/>
	<stop  offset="1" style="stop-color:#4FAEE2"/>
</linearGradient>
<path class="st10" d="M97.47,554.59c4.27-2.73,41.55-25.1,80.32-57.41s77.04-36.28,77.04-36.28v93.94L97.47,554.59z"/>
</svg>
