<?xml version="1.0" encoding="utf-8"?>
<!-- Generator: Adobe Illustrator 24.1.1, SVG Export Plug-In . SVG Version: 6.00 Build 0)  -->
<svg version="1.1" id="Capa_1" xmlns="http://www.w3.org/2000/svg" xmlns:xlink="http://www.w3.org/1999/xlink" x="0px" y="0px"
	 viewBox="0 0 44.92 39.81" style="enable-background:new 0 0 44.92 39.81;" xml:space="preserve">
<style type="text/css">
	.st0{fill:#5EE1EC;}
	.st1{fill:#98C0E5;}
</style>
<polygon class="st0" points="38.31,1.37 20.17,19.52 11.09,10.45 5.04,16.83 20.17,31.95 44.7,7.76 "/>
<path class="st1" d="M33.87,8.32c2.77,3.11,4.45,7.22,4.45,11.71c0,9.74-7.9,17.64-17.64,17.64S3.03,29.77,3.03,20.02
	s7.9-17.64,17.64-17.64c5.23,0,9.93,2.28,13.16,5.9l0.78,0.49l1.34-1.01l-0.38-0.55c-3.61-4.19-8.95-6.84-14.91-6.84
	c-10.86,0-19.66,8.8-19.66,19.66s8.8,19.66,19.66,19.66s19.66-8.8,19.66-19.66c0-4.87-1.77-9.32-4.7-12.76l-1.01-0.85l-1.34,1.01
	L33.87,8.32z"/>
</svg>
