<?xml version="1.0" encoding="utf-8"?>
<!-- Generator: Adobe Illustrator 24.1.1, SVG Export Plug-In . SVG Version: 6.00 Build 0)  -->
<svg version="1.1" id="Capa_1" focusable="false" xmlns="http://www.w3.org/2000/svg" xmlns:xlink="http://www.w3.org/1999/xlink"
	 x="0px" y="0px" viewBox="0 0 640 512" style="enable-background:new 0 0 640 512;" xml:space="preserve">
<style type="text/css">
	.st0{fill:#F2F2F2;}
</style>
<path class="st0" d="M610.5,341.3c2.6-14.1,2.6-28.5,0-42.6l25.8-14.9c3-1.7,4.3-5.2,3.3-8.5c-6.7-21.6-18.2-41.2-33.2-57.4
	c-2.3-2.5-6-3.1-9-1.4l-25.8,14.9c-10.9-9.3-23.4-16.5-36.9-21.3v-29.8c0-3.4-2.4-6.4-5.7-7.1c-22.3-5-45-4.8-66.2,0
	c-3.3,0.7-5.7,3.7-5.7,7.1v29.8c-13.5,4.8-26,12-36.9,21.3l-25.8-14.9c-2.9-1.7-6.7-1.1-9,1.4c-15,16.2-26.5,35.8-33.2,57.4
	c-1,3.3,0.4,6.8,3.3,8.5l25.8,14.9c-2.6,14.1-2.6,28.5,0,42.6l-25.8,14.9c-3,1.7-4.3,5.2-3.3,8.5c6.7,21.6,18.2,41.1,33.2,57.4
	c2.3,2.5,6,3.1,9,1.4l25.8-14.9c10.9,9.3,23.4,16.5,36.9,21.3v29.8c0,3.4,2.4,6.4,5.7,7.1c22.3,5,45,4.8,66.2,0
	c3.3-0.7,5.7-3.7,5.7-7.1v-29.8c13.5-4.8,26-12,36.9-21.3l25.8,14.9c2.9,1.7,6.7,1.1,9-1.4c15-16.2,26.5-35.8,33.2-57.4
	c1-3.3-0.4-6.8-3.3-8.5L610.5,341.3z M496,368.5c-26.8,0-48.5-21.8-48.5-48.5s21.8-48.5,48.5-48.5s48.5,21.8,48.5,48.5
	S522.8,368.5,496,368.5z M96,224c35.3,0,64-28.7,64-64s-28.7-64-64-64s-64,28.7-64,64S60.7,224,96,224z M320,256
	c1.9,0,3.7-0.5,5.6-0.6c8.3-21.7,20.5-42.1,36.3-59.2c7.4-8,17.9-12.6,28.9-12.6c6.9,0,13.7,1.8,19.6,5.3l7.9,4.6
	c0.8-0.5,1.6-0.9,2.4-1.4c7-14.6,11.2-30.8,11.2-48c0-61.9-50.1-112-112-112S208,82.1,208,144S258.1,256,320,256z M425.2,450.5
	c-2.3-1.2-4.6-2.6-6.8-3.9c-8.2,4.8-15.3,9.8-27.5,9.8c-10.9,0-21.4-4.6-28.9-12.6c-18.3-19.8-32.3-43.9-40.2-69.6
	c-10.7-34.5,24.9-49.7,25.8-50.3c-0.1-2.6-0.1-5.2,0-7.8l-7.9-4.6c-3.8-2.2-7-5-9.8-8.1c-3.3,0.2-6.5,0.6-9.8,0.6
	c-24.6,0-47.6-6-68.5-16h-8.3C179.6,288,128,339.6,128,403.2V432c0,26.5,21.5,48,48,48h255.4c-3.7-6-6.2-12.8-6.2-20.3L425.2,450.5
	L425.2,450.5z M173.1,274.6C161.5,263.1,145.6,256,128,256H64c-35.3,0-64,28.7-64,64v32c0,17.7,14.3,32,32,32h65.9
	C104.2,336.6,132.8,296.7,173.1,274.6z"/>
</svg>
