<?xml version="1.0" encoding="utf-8"?>
<!-- Generator: Adobe Illustrator 24.1.1, SVG Export Plug-In . SVG Version: 6.00 Build 0)  -->
<svg version="1.1" id="Capa_1" focusable="false" xmlns="http://www.w3.org/2000/svg" xmlns:xlink="http://www.w3.org/1999/xlink"
	 x="0px" y="0px" viewBox="0 0 358.17 358.17" style="enable-background:new 0 0 358.17 358.17;" xml:space="preserve">
<style type="text/css">
	.st0{fill:#F4F4F4;}
</style>
<path class="st0" d="M245.8,179.08L345.87,79.01c12.28-12.28,12.28-32.19,0-44.48l-22.24-22.24c-12.28-12.28-32.19-12.28-44.48,0
	L179.08,112.36L79.01,12.29c-12.28-12.28-32.19-12.28-44.48,0L12.29,34.53c-12.28,12.28-12.28,32.19,0,44.48l100.07,100.07
	L12.29,279.15c-12.28,12.28-12.28,32.19,0,44.48l22.24,22.24c12.28,12.28,32.2,12.28,44.48,0L179.08,245.8l100.07,100.07
	c12.28,12.28,32.2,12.28,44.48,0l22.24-22.24c12.28-12.28,12.28-32.19,0-44.48L245.8,179.08z"/>
</svg>
