<svg xmlns="http://www.w3.org/2000/svg" viewBox="0 0 237.36 120.47"><defs><style>.cls-1{fill:#3fdbc5;}.cls-2,.cls-6,.cls-7{fill:#fff;}.cls-3{fill:#0a0a0a;opacity:0.18;}.cls-4{fill:#875bf6;}.cls-5{fill:#714de2;}.cls-6{font-size:40.13px;}.cls-6,.cls-7{font-family:TwCenMT-CondensedExtraBold, Tw Cen MT Condensed Extra Bold;font-weight:800;}.cls-7{font-size:20.49px;}</style></defs><g id="Capa_18" data-name="Capa 18"><path class="cls-1" d="M39.44,12l168.24-4.1a7.1,7.1,0,0,1,7.25,7.79c-2.16,22.07-8,82.36-7.48,83.13S64.76,104.36,28,105.55a7.1,7.1,0,0,1-7.26-8.15L32.59,18.08A7.11,7.11,0,0,1,39.44,12Z"/><path class="cls-2" d="M219.29,74a.75.75,0,0,0,0-1.5.75.75,0,0,0,0,1.5Z"/><path class="cls-3" d="M86.43,103.62l15.28-23.86a13.35,13.35,0,0,1,10.78-6.15l96.91-3.38-.89,28.53Z"/><path class="cls-4" d="M225.41,73.26l-106.74,4a13.31,13.31,0,0,0-10.4,5.65L87.12,113a3.75,3.75,0,0,0,3.36,5.9l125.33-9.79a7.6,7.6,0,0,0,7-6.89Z"/><polygon class="cls-5" points="210.06 66.61 225.41 73.26 209.4 73.86 210.06 66.61"/><path class="cls-2" d="M45.13,5.85H32.32a.45.45,0,0,0,0,.9H45.13a.45.45,0,0,0,0-.9Z"/><path class="cls-2" d="M57.63,6.33H71.58a.45.45,0,0,0,0-.9H57.63a.45.45,0,0,0,0,.9Z"/><path class="cls-2" d="M83.87,6.33h13a.45.45,0,0,0,0-.9h-13a.45.45,0,0,0,0,.9Z"/><path class="cls-2" d="M109.28,5.09h13.84a.45.45,0,0,0,0-.9H109.28a.45.45,0,0,0,0,.9Z"/><path class="cls-2" d="M134.8,5.09,147,4.73l1.75-.05c.58,0,.58-.92,0-.9l-12.19.36-1.75.05c-.58,0-.58.92,0,.9Z"/><path class="cls-2" d="M160.93,4h7.54a.45.45,0,0,0,0-.9h-7.54a.45.45,0,0,0,0,.9Z"/><path class="cls-2" d="M178.73,22.23A3.12,3.12,0,0,0,182,22a9.81,9.81,0,0,0,2.87-3.14c.88-1.29,2.11-2.59,3.81-2a6,6,0,0,1,3,2.93c.61,1.1,1,2.3,2.31,2.8,2.25.9,4.57-1.19,5.86-2.8.77-1,1.36-2.19,2.63-2.54,1.47-.4,2.82.67,3.73,1.7,1.07,1.21,1.8,2.7,3.37,3.35a4.09,4.09,0,0,0,3.32-.17c2.18-1,3.56-3,5.47-4.35,2.65-1.85,3.46,2.26,4.79,3.74,1.57,1.73,3.7.85,5.34-.28,2.29-1.6,4.37-3.9,7.18-4.56.94-.22.54-1.66-.4-1.44-2.32.54-4.2,2.13-6,3.57-1.17.91-3.6,3.28-5,1.65s-1.93-4.84-4.68-4.72c-1.88.08-3.36,2-4.65,3.13A8,8,0,0,1,211.47,21c-1.85.39-2.83-1.34-3.8-2.58-1.45-1.84-3.78-3.5-6.18-2.45S198.43,20,196,21c-1.59.7-2.28-.44-2.93-1.73a9,9,0,0,0-2.46-3.06c-2.3-1.76-4.93-1.08-6.61,1.16-.74,1-2.85,4.66-4.51,3.53-.8-.55-1.55.75-.76,1.29Z"/><path class="cls-2" d="M219.38,46.49l5.34,4.89.76.69c.71.65,1.77-.41,1.06-1.06l-5.34-4.88-.76-.7c-.71-.65-1.77.41-1.06,1.06Z"/><path class="cls-2" d="M220.44,52.07l5.34-4.88.76-.7c.71-.65-.35-1.71-1.06-1.06l-5.34,4.89-.76.69c-.71.65.35,1.71,1.06,1.06Z"/><path class="cls-2" d="M13.17,91.63l5.34,4.88.76.69c.71.65,1.77-.4,1.06-1.06L15,91.26l-.76-.69c-.71-.66-1.77.4-1.06,1.06Z"/><path class="cls-2" d="M14.23,97.2l5.34-4.88.76-.69C21,91,20,89.91,19.27,90.57l-5.34,4.88-.76.69c-.71.66.35,1.71,1.06,1.06Z"/><path class="cls-2" d="M23.3,115c1.89.76,4-.4,5.22-1.83,1-1.16,1.67-2.71,3.09-3.42,1.63-.8,3.18.44,4.29,1.55s2.16,2.69,3.93,3.07a4.51,4.51,0,0,0,3.25-.67,13.47,13.47,0,0,0,2.74-2.38A3.85,3.85,0,0,1,47.71,110c3-.61,4.79,3.33,6.91,4.61,1.63,1,3.06-.08,4.18-1.29,1.45-1.57,3-3.86,5.34-3.85,2.77,0,3.38,2.6,4.58,4.52,1.42,2.27,3.82,1.71,5.77.34a7.25,7.25,0,0,0,2.17-2.71c.85-1.57,2.21-2,3.92-2.15.57-.07.57-1,0-.9a6.61,6.61,0,0,0-3.64,1.19,7.34,7.34,0,0,0-1.45,2.15c-1.09,1.91-4.43,4.11-6,1.63-1-1.66-1.55-3.71-3.5-4.58s-4.14-.08-5.68,1.37c-1.11,1-2.72,4-4.49,3.79-1.39-.13-2.48-2-3.41-2.88a8.57,8.57,0,0,0-3.16-2c-1.7-.51-2.94.27-4.07,1.46a11.53,11.53,0,0,1-2.92,2.43c-1.94,1-3.5,0-4.82-1.47-1.88-2.14-4.54-4.3-7.19-2.05-1.93,1.64-3.5,5.82-6.73,4.53-.53-.21-.77.66-.23.87Z"/><path class="cls-2" d="M18.71,74.44l1-7.32.15-1c.08-.57-.78-.81-.87-.24l-1,7.32-.15,1c-.08.57.79.82.87.24Z"/><path class="cls-2" d="M21.11,54.49,23,42.77l.27-1.66c.09-.57-.78-.81-.87-.24L20.51,52.59l-.27,1.66c-.09.57.78.81.87.24Z"/><path class="cls-2" d="M25,28.92l1.57-11.3.22-1.6c.08-.57-.79-.81-.87-.24l-1.57,11.3-.22,1.6c-.08.57.79.81.87.24Z"/><text class="cls-6" transform="translate(73.1 67.71)">$1,39</text><text class="cls-7" transform="matrix(1, -0.04, 0.04, 1, 115.82, 102.27)">Mejor precio</text></g></svg>