<svg xmlns="http://www.w3.org/2000/svg" viewBox="0 0 237.36 120.47"><defs><style>.cls-1{fill:#ff63a4;}.cls-2{fill:#0a0a0a;opacity:0.18;}.cls-3,.cls-6,.cls-7,.cls-8,.cls-9{fill:#fff;}.cls-4{fill:#875bf6;}.cls-5{fill:#88e4d7;}.cls-6{font-size:14.42px;}.cls-6,.cls-7,.cls-8,.cls-9{font-family:TwCenMT-CondensedExtraBold, Tw Cen MT Condensed Extra Bold;font-weight:800;}.cls-7{font-size:43.03px;}.cls-8{opacity:0.75;}.cls-8,.cls-9{font-size:17.51px;}.cls-10{letter-spacing:0.02em;}.cls-11{letter-spacing:0.03em;}.cls-12{fill:none;stroke:#fff;stroke-miterlimit:10;opacity:0.7;}</style></defs><g id="Capa_18" data-name="Capa 18"><path class="cls-1" d="M116.39,13.75h93.93s14.93-1.15,7.75,13.5-31.88,65.18-31.88,65.18H25S12.68,93.9,19,78.67,48.3,13.73,48.3,13.73Z"/><path class="cls-2" d="M53.09,92.43l7.19-16.19s1-2.88,5-3.36,126.81,7.57,126.81,7.57l-5.86,12H53.09"/><path class="cls-2" d="M25.64,63.47,84.11,41.89s5.12-3.48-.64-6.74-12.84-7.36-12.84-7.36L36.26,40l-10,23.27"/><path class="cls-3" d="M182.24,7.4H168.71a.45.45,0,0,0,0,.9h13.53a.45.45,0,0,0,0-.9Z"/><path class="cls-3" d="M195.4,8.3h14a.45.45,0,0,0,0-.9h-14a.45.45,0,0,0,0,.9Z"/><path class="cls-3" d="M222.6,8.36c1.52,0,3.08.12,4.59,0l.18,0,.13,0a5.61,5.61,0,0,1,.82,0,5.54,5.54,0,0,1,2.5.8,8.28,8.28,0,0,1,3.14,4c.22.53,1.09.3.87-.23-1.05-2.52-2.9-4.86-5.71-5.37a5.9,5.9,0,0,0-1.92-.06l-.12,0c.22,0,0,0-.09,0H222.6a.45.45,0,0,0,0,.9Z"/><path class="cls-3" d="M224.6,37.82l6.3-11.41.9-1.63c.28-.51-.49-1-.77-.45l-6.31,11.41-.9,1.62c-.28.51.5,1,.78.46Z"/><path class="cls-3" d="M211.81,62.17l6-11.43.85-1.62c.27-.51-.51-1-.78-.46l-6,11.43L211,61.72c-.26.51.51,1,.78.45Z"/><path class="cls-3" d="M209.28,70.46l-4.67,4.46-.67.63a.76.76,0,0,0,0,1.06.75.75,0,0,0,1.06,0l4.67-4.45.67-.64a.75.75,0,0,0-1.06-1.06Z"/><path class="cls-3" d="M203.94,71.52,208.61,76l.67.63a.75.75,0,0,0,1.06,0,.76.76,0,0,0,0-1.06l-4.67-4.45-.67-.64a.76.76,0,0,0-1.06,0,.75.75,0,0,0,0,1.06Z"/><path class="cls-3" d="M43.67,99h7.57a.45.45,0,0,0,0-.9H43.67a.45.45,0,0,0,0,.9Z"/><path class="cls-3" d="M18.83,99h11.8a.45.45,0,0,0,0-.9H18.83a.45.45,0,0,0,0,.9Z"/><path class="cls-3" d="M7.62,69.35l-4,3.79L3,73.69a.75.75,0,0,0,0,1.06.76.76,0,0,0,1.06,0l4-3.8.58-.54a.75.75,0,0,0,0-1.06.75.75,0,0,0-1.06,0Z"/><path class="cls-3" d="M3,70.41,7,74.2l.58.55a.75.75,0,1,0,1.06-1.06l-4-3.8-.58-.54A.75.75,0,0,0,3,70.41Z"/><path class="cls-3" d="M10.57,82.17,8.64,86.94,7.45,89.87l-.31.78c0,.08-.07.16,0,0,0,.13-.11.26-.15.39a4.93,4.93,0,0,0,1,4.73c.37.45,1-.19.64-.63a4,4,0,0,1-.69-4l.12-.3c.11-.26.22-.53.32-.79l2.39-5.9.7-1.72c.22-.53-.65-.77-.87-.24Z"/><path class="cls-3" d="M18.44,63.94l-2.5,5.87-.35.83a.46.46,0,0,0,.16.62.45.45,0,0,0,.61-.16l2.51-5.88.35-.83a.45.45,0,0,0-.16-.61.45.45,0,0,0-.62.16Z"/><path class="cls-3" d="M68.1,9.69A5.62,5.62,0,0,0,74,6.85C74.85,5.23,75.92,3.6,78,4.31S80.53,7,82,8.35c2.45,2.32,6,1.1,8-1.14a10.43,10.43,0,0,0,1.5-2.16c.16-.3.55-1.58,1-1.7s1.36,1.13,1.64,1.51C95.5,6.71,97.2,10,99.93,9.77c.95-.07,1-1.57,0-1.5-2.18.16-3.75-3.2-4.87-4.64S92.12.91,90.83,3c-1,1.65-1.65,3.31-3.39,4.38a3.61,3.61,0,0,1-4.53-.21,19,19,0,0,1-1.46-2.09,6.57,6.57,0,0,0-2.06-1.83,4.53,4.53,0,0,0-4.19-.19c-1.94,1-2.07,3.23-3.72,4.42a4.64,4.64,0,0,1-3,.73c-1-.16-1.35,1.28-.4,1.45Z"/><path class="cls-4" d="M183.48,117.91l-124.69-4.2-.44,0a5.1,5.1,0,0,1-4.09-7.16L64.87,82.31c.73-1.46,1.93-4.68,5.33-5.33l126.5,3.6.43,0a5,5,0,0,1,3.93,7.28l-11.29,26.57S188.35,118.08,183.48,117.91Z"/><path class="cls-5" d="M34,13.93,16,47.83a4.58,4.58,0,0,0,5.62,6.44L75.2,34.64a4.58,4.58,0,0,0,.13-8.55L39.71,11.82A4.58,4.58,0,0,0,34,13.93Z"/><text class="cls-6" transform="translate(28.43 36.98)">-40%</text><text class="cls-7" transform="translate(78.8 69.55)">$0,84</text><text class="cls-8" transform="translate(104.01 34.25)">$1,39</text><text class="cls-9" transform="translate(75.5 101.23) rotate(1.51)">O<tspan class="cls-10" x="9.8" y="0">f</tspan><tspan x="15.04" y="0">e</tspan><tspan class="cls-11" x="22.49" y="0">r</tspan><tspan x="28.99" y="0">ta especial!</tspan></text><line class="cls-12" x1="97.09" y1="28.86" x2="151.84" y2="28.86"/></g></svg>