<?xml version="1.0" encoding="utf-8"?>
<!-- Generator: Adobe Illustrator 24.1.1, SVG Export Plug-In . SVG Version: 6.00 Build 0)  -->
<svg version="1.1" id="Capa_1" focusable="false" xmlns="http://www.w3.org/2000/svg" xmlns:xlink="http://www.w3.org/1999/xlink"
	 x="0px" y="0px" viewBox="0 0 512 512" style="enable-background:new 0 0 512 512;" xml:space="preserve">
<style type="text/css">
	.st0{fill:#32E020;}
</style>
<path class="st0" d="M504,256c0,136.97-111.03,248-248,248S8,392.97,8,256S119.03,8,256,8S504,119.03,504,256z M227.31,387.31
	l184-184c6.25-6.25,6.25-16.38,0-22.63l-22.63-22.63c-6.25-6.25-16.38-6.25-22.63,0L216,308.12l-70.06-70.06
	c-6.25-6.25-16.38-6.25-22.63,0l-22.63,22.63c-6.25,6.25-6.25,16.38,0,22.63l104,104C210.93,393.56,221.07,393.56,227.31,387.31
	L227.31,387.31z"/>
</svg>
