<?xml version="1.0" encoding="utf-8"?>
<!-- Generator: Adobe Illustrator 24.1.1, SVG Export Plug-In . SVG Version: 6.00 Build 0)  -->
<svg version="1.1" id="Capa_1" xmlns="http://www.w3.org/2000/svg" xmlns:xlink="http://www.w3.org/1999/xlink" x="0px" y="0px"
	 viewBox="0 0 893 262" style="enable-background:new 0 0 893 262;" xml:space="preserve">
<style type="text/css">
	.st0{fill:#FFFFFF;}
</style>
<path class="st0" d="M258.94,210.88l-64.46-6.03l-5.78,4.9c-15.27,24.26-54.26,28.4-70.8-4.19c-20.33-40.04,10.47-68.37,10.47-68.37
	l-30.8-10.47c0,0-5.54-16.63-8.62-22.18c-3.08-5.54,3.08-3.08,3.08-3.08l31.42,9.24c3.08-4.93,10.47-4.93,10.47-4.93
	s6.78-28.34,8.01-32.03c1.23-3.7,3.7,0,3.7,0l6.16,30.18l21.56-12.94l2.46,26.49l-20.94,12.94c12.94,8.01,42.5,19.71,40.04,59.75
	c-0.45,7.35-2.65,13.86-6.05,19.36l0.09,6.42l-2.97,7.6l72.44,6.38l1.55-11.81V137.4l8.08,7.11c1.6,1.17,3.48,1.89,5.44,2.09
	c2.24-0.23,4.36-1.18,6.03-2.7l10.87-12.09c1.17-1.59,1.88-3.46,2.08-5.43c-0.23-2.25-1.18-4.37-2.7-6.05l-29.8-26.32V24.74
	c0-4.49-3.64-8.12-8.12-8.12h-32.49c-4.49,0-8.12,3.64-8.12,8.12v26.23L159.82,5.6c-3.19-2.89-9.27-5.23-13.6-5.23
	s-10.39,2.34-13.58,5.23L2.67,120.35c-1.6,1.62-2.55,3.77-2.67,6.04c0.1,1.99,0.83,3.89,2.08,5.44l10.87,12.08
	c1.69,1.52,3.83,2.46,6.09,2.69c1.96-0.2,3.84-0.92,5.43-2.09l8.07-7.11v106.68c0,8.97,7.27,16.25,16.25,16.25h194.92
	c8.97,0,16.25-7.27,16.25-16.25v-23.41L258.94,210.88z"/>
<path class="st0" d="M447,72l10-46c0,0-114-35-133,90s62,158,127,139l-4-46c0,0-68,29-67-68S447,72,447,72z"/>
<rect x="477" y="21" class="st0" width="54" height="238"/>
<path class="st0" d="M636.99,260.9C602.4,264.29,570,259,570,259V26c31.01-5.22,55.8-6.57,75.41-4.73L660,24l-6,38l-14.99-0.8
	c-6.02-0.97-11.71,0.27-14.01,1.8v55c0,0,31,7,33-27c1.19-20.26-8.63-27.74-18.02-29.63L631,60l-5-38l20.73-0.6
	C690.02,25.84,707.57,46.19,711,75c5,42-33.19,59-33.19,59v0.73c22.91,8.32,42,25.84,41.19,61.27
	c-1.05,45.63-41.99,60.73-80.68,64.77L626,261v-40l9.94-1.66C646.85,218.34,662,212.68,662,189c0-37-37-30-37-30v60
	c0,0,4.13,0.78,9.64,0.44L645,219l2,40L636.99,260.9z"/>
<path class="st0" d="M810.62,261.18c-34.58,3.39-66.99-1.9-66.99-1.9v-233c31.01-5.22,55.8-6.57,75.41-4.73l14.59,2.73l-6,38
	l-14.99-0.8c-6.02-0.97-11.71,0.27-14.01,1.8v55c0,0,31,7,33-27c1.19-20.26-8.63-27.74-18.02-29.63l-8.98-1.37l-5-38l20.73-0.6
	c43.29,4.44,60.84,24.79,64.27,53.6c5,42-33.19,59-33.19,59v0.73c22.91,8.32,42,25.84,41.19,61.27
	c-1.05,45.63-41.99,60.73-80.68,64.77l-12.32,0.23v-40l9.94-1.66c10.91-1.01,26.06-6.67,26.06-30.34c0-37-37-30-37-30v60
	c0,0,4.13,0.78,9.64,0.44l10.36-0.44l2,40L810.62,261.18z"/>
</svg>
