<?xml version="1.0" encoding="utf-8"?>
<!-- Generator: Adobe Illustrator 24.1.1, SVG Export Plug-In . SVG Version: 6.00 Build 0)  -->
<svg version="1.1" id="Capa_1" focusable="false" xmlns="http://www.w3.org/2000/svg" xmlns:xlink="http://www.w3.org/1999/xlink"
	 x="0px" y="0px" viewBox="0 0 448 512" style="enable-background:new 0 0 448 512;" xml:space="preserve">
<style type="text/css">
	.st0{fill:#EFEFEF;}
</style>
<path class="st0" d="M320,448v40c0,13.3-10.7,24-24,24H24c-13.3,0-24-10.7-24-24V120c0-13.3,10.7-24,24-24h72v296
	c0,30.9,25.1,56,56,56H320z M320,104V0H152c-13.3,0-24,10.7-24,24v368c0,13.3,10.7,24,24,24h272c13.3,0,24-10.7,24-24V128H344
	C330.8,128,320,117.2,320,104z M441,73L375,7c-4.5-4.5-10.6-7-17-7H352v96h96v-6.1C448,83.6,445.5,77.5,441,73z"/>
</svg>
