<?xml version="1.0" encoding="utf-8"?>
<!-- Generator: Adobe Illustrator 24.1.1, SVG Export Plug-In . SVG Version: 6.00 Build 0)  -->
<svg version="1.1" id="Capa_1" xmlns="http://www.w3.org/2000/svg" xmlns:xlink="http://www.w3.org/1999/xlink" x="0px" y="0px"
	 viewBox="0 0 190.32 226.33" style="enable-background:new 0 0 190.32 226.33;" xml:space="preserve">
<style type="text/css">
	.st0{opacity:0.5;fill:#FFFFFF;enable-background:new    ;}
</style>
<path class="st0" d="M92.01,98.3c0,0,59.47-78.01,68.22-92.71l30.09,4.55l-83.96,102.5c0,0,35.68,44.78,81.16,84.66
	c0,0-7.35,20.29-8.05,30.79c0,0-42.33-50.03-87.46-99.7c0,0-57.37,80.81-61.92,89.21c0,0-12.24-2.1-32.19-1.05
	c0,0,47.23-52.83,81.86-102.15c0,0-67.17-74.52-77.66-83.96L9.45,0C9.45-0.01,22.74,17.13,92.01,98.3z"/>
</svg>
