<svg id="Capa_1" data-name="Capa 1" xmlns="http://www.w3.org/2000/svg" viewBox="0 0 204.48 205.68"><defs><style>.cls-1,.cls-3{fill:#2e8dce;}.cls-2,.cls-4{fill:#2a57bc;}.cls-3,.cls-4{font-size:96.21px;font-family:Arial-BoldMT, Arial;font-weight:700;}</style></defs><path class="cls-1" d="M4.41,113.74s-.67-6,6-6H53.68s6.37,0,6.37,6l0,81.12s.67,6-6,6H10.76s-6.37,0-6.37-6Z"/><path class="cls-2" d="M74.8,87.26s-.67-6,6-6h43.24s6.37,0,6.37,6l0,107.6s.67,6-6,6H81.15s-6.37,0-6.37-6Z"/><path class="cls-1" d="M201.51,141.89c0-6-6.37-6-6.37-6H151.9c-6.71,0-6,6-6,6v53c0,6,6.36,6,6.36,6h43.25c6.7,0,6-6,6-6Z"/><text class="cls-3" transform="translate(5.61 99.07)">2</text><text class="cls-4" transform="translate(74.93 75.39)">1</text><text class="cls-3" transform="translate(147.34 127.69)">3</text></svg>