<?xml version="1.0" encoding="utf-8"?>
<!-- Generator: Adobe Illustrator 24.1.1, SVG Export Plug-In . SVG Version: 6.00 Build 0)  -->
<svg version="1.1" id="Capa_1" xmlns="http://www.w3.org/2000/svg" xmlns:xlink="http://www.w3.org/1999/xlink" x="0px" y="0px"
	 viewBox="0 0 356 119" style="enable-background:new 0 0 356 119;" xml:space="preserve">
<style type="text/css">
	.st0{opacity:0.5;}
	.st1{fill:#EEAC23;}
	.st2{fill:#EABC2A;}
	.st3{fill:#F2D98C;}
	.st4{fill:#F3ECA9;}
</style>
<g class="st0">
	<path class="st1" d="M347.76,116.29H8.26c-2.66,0-4.82-2.16-4.82-4.82V8.12c0-2.66,2.16-4.82,4.82-4.82h339.5
		c2.66,0,4.82,2.16,4.82,4.82v103.35C352.58,114.13,350.42,116.29,347.76,116.29z"/>
</g>
<g class="st0">
	<path class="st2" d="M8.26,116.29c-2.66,0-4.82-2.16-4.82-4.82V8.12c0-2.66,2.16-4.82,4.82-4.82l289.34,0
		c4.56,18.08,6.98,37.01,6.98,56.5c0,19.49-2.42,38.42-6.98,56.5L8.26,116.29z"/>
</g>
<g class="st0">
	<path class="st3" d="M220.06,116.3c6.79-17.53,10.51-36.58,10.51-56.5c0-20.07-3.78-39.25-10.66-56.88L8.26,3.29
		c-2.66,0-4.82,2.16-4.82,4.82v103.35c0,2.66,2.16,4.82,4.82,4.82L220.06,116.3z"/>
</g>
<g class="st0">
	<path class="st4" d="M3.43,39.42C7.56,25.1,15.91,12.58,27.06,3.29l93.76-0.21c16.34,13.48,26.75,33.88,26.75,56.72
		c0,22.71-10.3,43.02-26.49,56.5l-94.02,0C15.91,107.01,7.56,94.48,3.43,80.17L3.43,39.42z"/>
</g>
</svg>
