<?xml version="1.0" encoding="utf-8"?>
<!-- Generator: Adobe Illustrator 24.1.1, SVG Export Plug-In . SVG Version: 6.00 Build 0)  -->
<svg version="1.1" id="Capa_1" xmlns="http://www.w3.org/2000/svg" xmlns:xlink="http://www.w3.org/1999/xlink" x="0px" y="0px"
	 viewBox="0 0 356 119" style="enable-background:new 0 0 356 119;" xml:space="preserve">
<style type="text/css">
	.st0{opacity:0.5;}
	.st1{fill:#EEAC23;}
	.st2{fill:#EABC2A;}
	.st3{fill:#F2D98C;}
	.st4{fill:#F3ECA9;}
</style>
<g class="st0">
	<path class="st1" d="M347.7,116H8.3c-2.7,0-4.8-2.2-4.8-4.8V7.8C3.4,5.2,5.6,3,8.3,3h339.5c2.7,0,4.8,2.2,4.8,4.8v103.4
		C352.6,113.9,350.4,116,347.7,116z"/>
</g>
<g class="st0">
	<path class="st2" d="M347.7,116H8.3c-2.7,0-4.8-2.2-4.8-4.8V7.8C3.4,5.2,5.6,3,8.3,3h339.5c2.7,0,4.8,2.2,4.8,4.8v103.4
		C352.6,113.9,350.4,116,347.7,116z"/>
</g>
<g class="st0">
	<path class="st3" d="M31.1,3c-6.8,17.5-10.6,36.6-10.6,56.5c0,19.9,3.8,39,10.6,56.5l289.8,0c6.8-17.5,10.6-36.6,10.6-56.5
		c0-19.9-3.7-39-10.6-56.5L31.1,3z"/>
</g>
<g class="st0">
	<path class="st4" d="M129,116c-16.2-13.5-26.5-33.8-26.5-56.5c0-22.7,10.3-43,26.5-56.5l93.8-0.2c16.3,13.5,26.7,33.9,26.7,56.7
		s-10.4,43.2-26.7,56.7L129,116z"/>
</g>
</svg>
