<?xml version="1.0" encoding="utf-8"?>
<!-- Generator: Adobe Illustrator 24.1.1, SVG Export Plug-In . SVG Version: 6.00 Build 0)  -->
<svg version="1.1" id="Capa_1" xmlns="http://www.w3.org/2000/svg" xmlns:xlink="http://www.w3.org/1999/xlink" x="0px" y="0px"
	 viewBox="0 0 486.87 510.29" style="enable-background:new 0 0 486.87 510.29;" xml:space="preserve">
<style type="text/css">
	.st0{fill:#EFDBC2;}
</style>
<g>
	<path class="st0" d="M1.54,509.37v-77.36l5-74.64l-5-109l6-25l-6,6.68V1.37H68.3l21.24,8l-3-8l35,5l15-5h349v43.88l-3,4.12l3,6
		l-4,5l-1,6l-2,6l2,6c0,0,2,6,2,7s-3,8-3,8l6,7v34l-11,12l6-2l5,5v28l-3,40l3,33.32v133.8v47.52v77.36l-164.48,0.49l-64.81-8.45l7,8
		L1.54,509.37z"/>
</g>
</svg>
