<?xml version="1.0" encoding="utf-8"?>
<!-- Generator: Adobe Illustrator 24.1.1, SVG Export Plug-In . SVG Version: 6.00 Build 0)  -->
<svg version="1.1" id="Capa_1" focusable="false" xmlns="http://www.w3.org/2000/svg" xmlns:xlink="http://www.w3.org/1999/xlink"
	 x="0px" y="0px" viewBox="0 0 448 512" style="enable-background:new 0 0 448 512;" xml:space="preserve">
<style type="text/css">
	.st0{fill:#34B6F7;}
</style>
<path class="st0" d="M347.3,148.7c-10-10-27.3-2.9-27.3,11.3v192c0,14.3,17.3,21.3,27.3,11.3l96-96c6.2-6.2,6.2-16.4,0-22.6
	L347.3,148.7z M16,96h416c8.8,0,16-7.2,16-16V48c0-8.8-7.2-16-16-16H16C7.2,32,0,39.2,0,48v32C0,88.8,7.2,96,16,96z M12.8,224h230.3
	c7.1,0,12.8-5.7,12.8-12.8c0,0,0,0,0,0v-38.3c0-7.1-5.7-12.8-12.8-12.8c0,0,0,0,0,0H12.8C5.7,160,0,165.7,0,172.8c0,0,0,0,0,0v38.3
	C0,218.3,5.7,224,12.8,224C12.8,224,12.8,224,12.8,224z M12.8,352h230.3c7.1,0,12.8-5.7,12.8-12.8c0,0,0,0,0,0v-38.3
	c0-7.1-5.7-12.8-12.8-12.8c0,0,0,0,0,0H12.8C5.7,288,0,293.7,0,300.8c0,0,0,0,0,0v38.3C0,346.3,5.7,352,12.8,352
	C12.8,352,12.8,352,12.8,352z M16,480h416c8.8,0,16-7.2,16-16v-32c0-8.8-7.2-16-16-16H16c-8.8,0-16,7.2-16,16v32
	C0,472.8,7.2,480,16,480z"/>
</svg>
