<svg id="Capa_1" data-name="Capa 1" xmlns="http://www.w3.org/2000/svg" viewBox="0 0 122.01 139.73"><defs><style>.cls-1{fill:#2e8dce;}.cls-2{fill:#2a57bc;}.cls-3{font-size:45.78px;font-family:Arial-BoldMT, Arial;font-weight:700;}.cls-3,.cls-4{fill:#fcfcfc;}</style></defs><path class="cls-1" d="M43.73,59.94,16.46,13.37,2.83,21.61s-1.7,1.13,0,4.26L29.54,72.16S35.77,63.35,43.73,59.94Z"/><polygon class="cls-1" points="20.72 13.37 30.95 31.55 91.44 31.55 102.23 13.37 20.72 13.37"/><path class="cls-1" d="M78.88,60.06l27.27-46.58,13.63,8.24s1.7,1.14,0,4.26L93.07,72.27S86.84,63.47,78.88,60.06Z"/><circle class="cls-2" cx="61.19" cy="94.73" r="35.07"/><text class="cls-3" transform="translate(48.62 111.43)">3</text><polygon class="cls-4" points="35.49 90.43 36.91 93.29 40.07 93.75 37.78 95.98 38.32 99.14 35.49 97.65 32.66 99.14 33.2 95.98 30.91 93.75 34.08 93.29 35.49 90.43"/><polygon class="cls-4" points="87.18 90.43 88.59 93.29 91.76 93.75 89.47 95.98 90.01 99.14 87.18 97.65 84.35 99.14 84.89 95.98 82.6 93.75 85.76 93.29 87.18 90.43"/></svg>