<svg id="Capa_1" data-name="Capa 1" xmlns="http://www.w3.org/2000/svg" viewBox="0 0 122.01 139.73"><defs><style>.cls-1{fill:#2e8dce;}.cls-2{font-size:79.98px;fill:#2a57bc;font-family:Arial-BoldMT, Arial;font-weight:700;}</style></defs><path class="cls-1" d="M96.45,37.4S93.06,23.64,83.09,20.65C83.09,20.65,85.29,32.22,96.45,37.4Z"/><path class="cls-1" d="M95.65,20.65a24.22,24.22,0,0,1,6,20.54S93.06,30.82,95.65,20.65Z"/><path class="cls-1" d="M87.28,35s10.17,1.2,15.15,14.56C102.43,49.57,90.67,45.38,87.28,35Z"/><path class="cls-1" d="M106.82,31.82a25.87,25.87,0,0,1-.6,21.54S101.64,42.19,106.82,31.82Z"/><path class="cls-1" d="M99.24,49.57S107,55.75,106,70.11C106,70.11,96.65,60.34,99.24,49.57Z"/><path class="cls-1" d="M115.8,41.59a24.63,24.63,0,0,1-7,20.54S107.82,49.17,115.8,41.59Z"/><path class="cls-1" d="M119.78,70.51a23,23,0,0,1-16.55,13.56S108,73.3,119.78,70.51Z"/><path class="cls-1" d="M101.24,66.52s4.78,9.77-2.79,21.34C98.45,87.86,94.66,76.69,101.24,66.52Z"/><path class="cls-1" d="M112.21,85.06s-4,9.18-17.95,11.57C94.26,96.63,100.24,86.26,112.21,85.06Z"/><path class="cls-1" d="M94.86,83.67s-.2,12.56-10.17,18.74A25.45,25.45,0,0,1,94.86,83.67Z"/><path class="cls-1" d="M108.22,98.62a22.69,22.69,0,0,1-21.14,3.79S96.65,95.63,108.22,98.62Z"/><path class="cls-1" d="M80.9,96.63s-2,9.37-16.35,13.16C64.55,109.79,70.13,98.23,80.9,96.63Z"/><path class="cls-1" d="M97.45,109s-8.38,5.59-21.34-1.19C76.11,107.8,87.48,103.41,97.45,109Z"/><path class="cls-1" d="M65.34,111.79c-.44-.35,12.17-2.6,20.94,3.78A23.17,23.17,0,0,1,65.34,111.79Z"/><path class="cls-1" d="M64,116.57a11.58,11.58,0,0,1,10,6.58S67.14,124.15,64,116.57Z"/><path class="cls-1" d="M25.66,37.4S29.05,23.64,39,20.65C39,20.65,36.83,32.22,25.66,37.4Z"/><path class="cls-1" d="M26.46,20.65a24.2,24.2,0,0,0-6,20.54S29.05,30.82,26.46,20.65Z"/><path class="cls-1" d="M34.83,35s-10.17,1.2-15.15,14.56C19.68,49.57,31.44,45.38,34.83,35Z"/><path class="cls-1" d="M15.29,31.82a25.91,25.91,0,0,0,.6,21.54S20.48,42.19,15.29,31.82Z"/><path class="cls-1" d="M22.87,49.57s-7.78,6.18-6.78,20.54C16.09,70.11,25.46,60.34,22.87,49.57Z"/><path class="cls-1" d="M6.32,41.59a24.6,24.6,0,0,0,7,20.54S14.29,49.17,6.32,41.59Z"/><path class="cls-1" d="M4.92,56.15A21.82,21.82,0,0,0,16.09,74.89S14.89,62.93,4.92,56.15Z"/><path class="cls-1" d="M2.33,70.51A23,23,0,0,0,18.88,84.07S14.09,73.3,2.33,70.51Z"/><path class="cls-1" d="M20.87,66.52s-4.78,9.77,2.8,21.34C23.67,87.86,27.46,76.69,20.87,66.52Z"/><path class="cls-1" d="M9.91,85.06s4,9.18,17.94,11.57C27.85,96.63,21.87,86.26,9.91,85.06Z"/><path class="cls-1" d="M27.26,83.67s.2,12.56,10.17,18.74A25.45,25.45,0,0,0,27.26,83.67Z"/><path class="cls-1" d="M13.9,98.62A22.67,22.67,0,0,0,35,102.41S25.46,95.63,13.9,98.62Z"/><path class="cls-1" d="M41.22,96.63s2,9.37,16.35,13.16C57.57,109.79,52,98.23,41.22,96.63Z"/><path class="cls-1" d="M24.66,109S33,114.58,46,107.8C46,107.8,34.63,103.41,24.66,109Z"/><path class="cls-1" d="M56.77,111.79c.45-.35-12.16-2.6-20.94,3.78A23.17,23.17,0,0,0,56.77,111.79Z"/><path class="cls-1" d="M58.17,116.57a11.59,11.59,0,0,0-10,6.58S55,124.15,58.17,116.57Z"/><path class="cls-1" d="M116.79,56.15s-9,6.78-10.77,18.54C106,74.69,117.59,67.32,116.79,56.15Z"/><text class="cls-2" transform="translate(38.19 87.66)">1</text></svg>