<?xml version="1.0" encoding="utf-8"?>
<!-- Generator: Adobe Illustrator 24.1.1, SVG Export Plug-In . SVG Version: 6.00 Build 0)  -->
<svg version="1.1" id="Capa_1" xmlns="http://www.w3.org/2000/svg" xmlns:xlink="http://www.w3.org/1999/xlink" x="0px" y="0px"
	 viewBox="0 0 44.92 39.81" style="enable-background:new 0 0 44.92 39.81;" xml:space="preserve">
<style type="text/css">
	.st0{fill:#FF595B;}
	.st1{fill:#98C0E5;}
</style>
<polygon class="st0" points="7.06,-0.35 20.52,13.43 34.63,-0.03 40.4,5.42 26.94,19.53 40.4,33.31 34.63,39.41 21.16,25.62 
	7.06,39.41 1.28,32.99 15.07,19.53 1.28,5.74 "/>
<path class="st1" d="M33.63,8.46c2.64,2.97,4.24,6.89,4.24,11.17c0,9.3-7.54,16.83-16.83,16.83S4.2,28.93,4.2,19.63
	S11.74,2.8,21.03,2.8c4.99,0,9.48,2.17,12.56,5.63l0.75,0.47l1.28-0.96L35.26,7.4c-3.44-4-8.54-6.53-14.22-6.53
	c-10.36,0-18.76,8.4-18.76,18.76s8.4,18.76,18.76,18.76s18.76-8.4,18.76-18.76c0-4.64-1.69-8.9-4.48-12.17l-0.97-0.81l-1.28,0.96
	L33.63,8.46z"/>
</svg>
