<?xml version="1.0" encoding="utf-8"?>
<!-- Generator: Adobe Illustrator 24.1.1, SVG Export Plug-In . SVG Version: 6.00 Build 0)  -->
<svg version="1.1" id="Capa_1" focusable="false" xmlns="http://www.w3.org/2000/svg" xmlns:xlink="http://www.w3.org/1999/xlink"
	 x="0px" y="0px" viewBox="0 0 512 512" style="enable-background:new 0 0 512 512;" xml:space="preserve">
<style type="text/css">
	.st0{fill:#F4F4F4;}
</style>
<path class="st0" d="M0,252.1V48C0,21.5,21.5,0,48,0h204.1c12.7,0,24.9,5.1,33.9,14.1l211.9,211.9c18.7,18.7,18.7,49.1,0,67.9
	L293.8,497.9c-18.7,18.7-49.1,18.7-67.9,0L14.1,286.1C5.1,277.1,0,264.8,0,252.1z M112,64c-26.5,0-48,21.5-48,48s21.5,48,48,48
	s48-21.5,48-48S138.5,64,112,64z"/>
</svg>
