<?xml version="1.0" encoding="utf-8"?>
<!-- Generator: Adobe Illustrator 24.1.1, SVG Export Plug-In . SVG Version: 6.00 Build 0)  -->
<svg version="1.1" id="Capa_1" focusable="false" xmlns="http://www.w3.org/2000/svg" xmlns:xlink="http://www.w3.org/1999/xlink"
	 x="0px" y="0px" viewBox="0 0 59 59" style="enable-background:new 0 0 59 59;" xml:space="preserve">
<style type="text/css">
	.st0{fill:#F9F9F9;}
</style>
<path class="st0" d="M29.5,0.5c-16,0-29,13-29,29s13,29,29,29s29-13,29-29S45.5,0.5,29.5,0.5z M29.5,6.1c12.9,0,23.4,10.5,23.4,23.4
	S42.4,52.9,29.5,52.9S6.1,42.4,6.1,29.5C6.1,16.6,16.6,6.1,29.5,6.1 M45.9,21.4l-2.6-2.7c-0.5-0.6-1.4-0.6-2,0L24.8,35.1l-7-7
	c-0.5-0.6-1.4-0.6-2,0l-2.7,2.6c-0.6,0.5-0.6,1.4,0,2l10.6,10.7c0.5,0.6,1.4,0.6,2,0l20.2-20C46.5,22.8,46.5,21.9,45.9,21.4
	L45.9,21.4z"/>
</svg>
