<svg id="Capa_1" data-name="Capa 1" xmlns="http://www.w3.org/2000/svg" viewBox="0 0 27.73 27.73"><defs><style>.cls-1{fill:#f7f5f5;}</style></defs><path class="cls-1" d="M19.08,10.69s.45-.4-.16-1S16.2,6.87,16.2,6.87l3.37-3.2a.94.94,0,0,1,1.35,0l3.67,3.78a1.06,1.06,0,0,1,0,1.7l-4,4,1,1.11,5.58-5.35s.6-.62-.26-1.45L20.87,1.23a.83.83,0,0,0-1.17,0c-.59.56-5.4,5.23-5.4,5.23l3.7,4S18.6,11.16,19.08,10.69Z"/><path class="cls-1" d="M19.3,5.9a2.05,2.05,0,0,0-.54,1.4,2.08,2.08,0,1,0,.55-1.42l-.06.1,1.06.66.07,0a.75.75,0,0,1,.47-.15.84.84,0,1,1-.49.16l.08-.08-1-.76Z"/><path class="cls-1" d="M14.14,21.45l-6,5.83A.83.83,0,0,1,7,27.22c-.62-.6-6.32-6.55-6.32-6.55a.8.8,0,0,1,.12-1.22c.7-.66,6-5.78,6-5.78L10,17.06s-.42.9-1.24.07l-1.5-1.56L6.79,16l1.65,1.77s.41.49,0,.85-.63.17-.94-.08-1.77-1.63-1.77-1.63l-.37.38,1.69,1.75s.5.48,0,.87a.68.68,0,0,1-1-.16L4.49,18.12,4,18.57l1.62,1.71s.61.5.11.95a.68.68,0,0,1-1-.09L3.12,19.48a1,1,0,0,0,0,1.36l3.64,3.82a1.15,1.15,0,0,0,1.81,0c1-1,4.46-4.33,4.46-4.33Z"/><polygon class="cls-1" points="24.12 21.7 23.94 20.95 20.75 23.91 23.51 24.81 24.6 23.66 24.13 21.71 24.12 21.63 24.97 21.5 24.99 21.57 26.25 26.64 18.92 24.22 24.39 19.14 24.99 21.55 25.01 21.65 24.16 21.8 24.12 21.7"/><path class="cls-1" d="M14.53,11.31,14.2,11a.64.64,0,0,0-.91,0h0a.64.64,0,0,0,0,.91l6.41,6.92a.65.65,0,0,0,.91,0h0a.66.66,0,0,0,0-.92l-6.06-6.55-.06-.08L16,10.3l.09.07,7.48,8.08-5.48,5.07-12-12.9,5.48-5.08L13.28,7.3l.09.13L11.93,8.67l-.13-.12,0,0a.64.64,0,0,0-.91,0h0a.64.64,0,0,0,0,.91l.35.38a.65.65,0,0,0,.91,0h0a.65.65,0,0,0,0-.91l-.29-.32-.1-.16,1.47-1.17.12.09,2.79,3,.1.14-1.55.92Z"/><rect class="cls-1" x="3.96" y="5.74" width="7.47" height="2.05" transform="translate(-2.55 7.03) rotate(-42.8)"/><path class="cls-1" d="M3.37,2.3l-2,1.85a1,1,0,0,0,0,1.43L3.67,8.11,9.15,3,6.81.5a1,1,0,0,0-1.43,0l-2,1.83-.12.13,1.19.9.16-.11L6,1.92,7,3,3.78,6l-1-1.06L4.6,3.22l.14-.16L3.55,2.17Z"/></svg>