<?xml version="1.0" encoding="utf-8"?>
<!-- Generator: Adobe Illustrator 24.1.1, SVG Export Plug-In . SVG Version: 6.00 Build 0)  -->
<svg version="1.1" id="Capa_1" xmlns="http://www.w3.org/2000/svg" xmlns:xlink="http://www.w3.org/1999/xlink" x="0px" y="0px"
	 viewBox="0 0 27.7 27.7" style="enable-background:new 0 0 27.7 27.7;" xml:space="preserve">
<style type="text/css">
	.st0{fill:#EFEFEF;}
</style>
<g>
	<polygon class="st0" points="10.8,7.9 12,3.9 13.1,7.9 17.1,9.1 13.1,10.3 12,14.3 10.8,10.3 6.7,9.1 	"/>
	<polygon class="st0" points="16.6,2 17.1,0.2 17.7,2 19.5,2.5 17.7,3.1 17.1,4.9 16.6,3.1 14.8,2.5 	"/>
	<polygon class="st0" points="4.1,3.7 4.8,1.3 5.5,3.7 8,4.5 5.5,5.2 4.8,7.8 4.1,5.3 1.5,4.5 	"/>
	<polygon class="st0" points="22.3,15.6 23,13.1 23.7,15.6 26.2,16.3 23.7,17 23,19.6 22.3,17.1 19.8,16.3 	"/>
	<path class="st0" d="M16.8,11.2l4.6-4.6c0.5-0.5,1.3-0.5,1.8,0v0l0.3,0.3c0.5,0.5,0.5,1.3,0,1.8c0,0,0,0,0,0l-4.6,4.6l0,0
		L16.8,11.2L16.8,11.2L16.8,11.2z"/>
	<path class="st0" d="M3,25.1l13-13l0,0l2.1,2.1l0,0l-13,13c-0.5,0.5-1.3,0.5-1.8,0c0,0,0,0,0,0L3,26.9C2.5,26.4,2.5,25.6,3,25.1
		C3,25.1,3,25.1,3,25.1L3,25.1z"/>
</g>
</svg>
