<svg id="Capa_1" data-name="Capa 1" xmlns="http://www.w3.org/2000/svg" viewBox="0 0 27.73 27.73"><defs><style>.cls-1{fill:#efefef;}</style></defs><path class="cls-1" d="M21.24,17.43a4.21,4.21,0,0,1,4.16,4.43c.15,4.45,1.3,4.78,1.6,2.61S28.52,16.9,25.31,13a20.58,20.58,0,0,0-8-5.56l-5.7-5.61S1.88,1.36,1.45,7.28s11,6,11,6l1.67-.94-1.46-1.16s-9,0-9.17-3.65C3.37,5.2,7,4.32,9.69,4L5.55,8.15a5.7,5.7,0,0,0,2.34.67l3.89-3.91,9.52,9.6-8.82,8.73a2.3,2.3,0,0,1-3.06,0c-1.49-1.37-6.74-6.69-6.74-6.69a2,2,0,0,1,.18-2.74c1.39-1.41,2.77-2.67,2.77-2.67l-2.07-1L1,12.84S-.58,15.76.86,17.4L8,24.83s3.23,2.46,6-.17Z"/><circle class="cls-1" cx="14.03" cy="12.22" r="1.77"/></svg>