<svg id="Capa_1" data-name="Capa 1" xmlns="http://www.w3.org/2000/svg" viewBox="0 0 27.73 27.73"><defs><style>.cls-1{fill:#fdc300;}.cls-2{fill:none;stroke:#313131;stroke-miterlimit:10;stroke-width:0.5px;}</style></defs><path class="cls-1" d="M12.89,14.19v12a1.25,1.25,0,0,0,1.24,1.24H24.46a1.25,1.25,0,0,0,1.24-1.24V9.09L22.39,5.65H14.13a1.25,1.25,0,0,0-1.24,1.24v7.24l0,.72,4-.2.06-.23c.09-.79.55-2.1,2.61-1.95,2.93.2,1.67,3.56,1.49,3.89s-2.08,3.21-2.08,3.21h2.5v1.52H17.1V19.7l2.24-3.36A4.45,4.45,0,0,0,20,14.89c.11-.67-.22-1-.68-1s-.71.39-.7,1.05H17a2.78,2.78,0,0,1,0-.5l.06-.54L15,13.83l-2-.11Z"/><path class="cls-1" d="M2.52,8.28V20.59a1.23,1.23,0,0,0,1.24,1.24H14.08a1.23,1.23,0,0,0,1.24-1.24V3.52L12,.07H3.76A1.24,1.24,0,0,0,2.52,1.31V8.2l0,.65,3.85.29,0-.73V8a4.33,4.33,0,0,0,2.12-.92H10v7.08h1.63v1.37H6.33V14.14H8.17V9H6.46V8.31l0-.41L2.55,7.58Z"/><path class="cls-2" d="M12.89,14.19v12a1.25,1.25,0,0,0,1.24,1.24H24.46a1.25,1.25,0,0,0,1.24-1.24V9.09L22.39,5.65H14.13a1.25,1.25,0,0,0-1.24,1.24v7.3Z"/></svg>