<svg id="Capa_1" data-name="Capa 1" xmlns="http://www.w3.org/2000/svg" viewBox="0 0 27.73 27.73"><defs><style>.cls-1{fill:#fdc300;}</style></defs><path class="cls-1" d="M9.64,6.94H2.53V18.28a1.05,1.05,0,0,0,1.14,1.17h9.56v1.72l-9.81,0C1,21.2.82,18.6.82,18.6V4.16c0-2.16,2.5-2.51,2.5-2.51H23a2.68,2.68,0,0,1,2.68,2.69v9.72H23.9V6.94H9.3l.26-1.66.14,0H23.92V4.39a1,1,0,0,0-1-.95H3.53a.94.94,0,0,0-.95.95v.84H9.67l.18,0,.09,1.66Z"/><path class="cls-1" d="M19.51,16.34l-2.75-1.59V24.2l8.18-4.73-5.4-3.11-.27-.18,1-1.29.2.06L27,18.7a.89.89,0,0,1,0,1.55L16.41,26.36a.9.9,0,0,1-1.35-.78V13.37a.9.9,0,0,1,1.35-.78l4.07,2.35.34.22-1.06,1.29Z"/><rect class="cls-1" x="9.68" y="10.54" width="3.57" height="1.78"/><rect class="cls-1" x="6.13" y="10.54" width="1.78" height="1.78"/><rect class="cls-1" x="9.68" y="14.11" width="3.57" height="1.78"/><rect class="cls-1" x="6.13" y="14.11" width="1.78" height="1.78"/></svg>