<?xml version="1.0" encoding="utf-8"?>
<!-- Generator: Adobe Illustrator 24.1.1, SVG Export Plug-In . SVG Version: 6.00 Build 0)  -->
<svg version="1.1" id="Capa_1" focusable="false" xmlns="http://www.w3.org/2000/svg" xmlns:xlink="http://www.w3.org/1999/xlink"
	 x="0px" y="0px" viewBox="0 0 28.6 28.6" style="enable-background:new 0 0 28.6 28.6;" xml:space="preserve">
<style type="text/css">
	.st0{fill:#F7F7F7;}
</style>
<path class="st0" d="M11.5,0.5C6,1.6,1.7,6,0.6,11.4c-2,10.2,7.2,17.8,14.1,16.8c2.3-0.3,3.4-3,2.3-5c-1.3-2.5,0.5-5.4,3.3-5.4h4.4
	c2,0,3.5-1.6,3.5-3.6C28.3,5.6,20.4-1.2,11.5,0.5z M5.6,17.8c-1,0-1.7-0.8-1.7-1.7s0.8-1.7,1.7-1.7S7.3,15,7.3,16S6.5,17.8,5.6,17.8
	z M7.3,10.8c-1,0-1.7-0.8-1.7-1.7s0.8-1.7,1.7-1.7S9.1,8,9.1,9S8.3,10.8,7.3,10.8z M14.3,7.3c-1,0-1.7-0.8-1.7-1.7s0.8-1.7,1.7-1.7
	c1,0,1.7,0.8,1.7,1.7S15.3,7.3,14.3,7.3z M21.3,10.8c-1,0-1.7-0.8-1.7-1.7s0.8-1.7,1.7-1.7S23,8,23,9S22.3,10.8,21.3,10.8z"/>
</svg>
