<svg id="Capa_1" data-name="Capa 1" xmlns="http://www.w3.org/2000/svg" viewBox="0 0 165.71 141.18"><defs><style>.cls-1{fill:#232323;}.cls-2{fill:#fe3f44;}.cls-3{fill:#fd0006;}.cls-4{fill:#be2f33;}.cls-5{fill:#a40004;}.cls-6{fill:#ff9540;}.cls-7{fill:#ffb173;}.cls-8{fill:#e5399e;}.cls-9{fill:#e567b1;}.cls-10{fill:#cb0077;}.cls-11{fill:#bf6f30;}.cls-12{fill:#a64a00;}.cls-13{fill:#982669;}.cls-14{fill:#84004d;}.cls-15{fill:#fe7276;}.cls-16{fill:#ff7100;}.cls-17{opacity:0.5;font-size:4.57px;fill:#fdfffe;font-family:ArialMT, Arial;}</style></defs><rect class="cls-1" width="165.71" height="141.18" rx="10.08"/><rect class="cls-2" x="22.74" y="26.86" width="26.26" height="22.24"/><rect class="cls-3" x="49" y="26.86" width="67.68" height="44.24"/><rect class="cls-4" x="116.68" y="26.86" width="26.29" height="22.12"/><rect class="cls-5" x="116.68" y="48.98" width="26.29" height="22.12"/><rect class="cls-6" x="116.68" y="71.1" width="26.29" height="11.04"/><rect class="cls-7" x="116.68" y="82.14" width="26.29" height="10.52"/><rect class="cls-8" x="116.68" y="92.66" width="26.29" height="10.94"/><rect class="cls-9" x="116.68" y="103.59" width="26.29" height="10.73"/><rect class="cls-10" x="49.28" y="92.66" width="67.4" height="21.66"/><rect class="cls-11" x="22.74" y="71.1" width="26.54" height="10.83"/><rect class="cls-12" x="22.74" y="81.88" width="26.54" height="10.83"/><rect class="cls-13" x="22.74" y="92.66" width="26.54" height="10.83"/><rect class="cls-14" x="22.74" y="103.49" width="26.54" height="10.83"/><rect class="cls-15" x="22.74" y="49.1" width="26.26" height="22"/><rect class="cls-16" x="49.28" y="71.1" width="67.4" height="21.56"/><text class="cls-17" transform="translate(118.56 129.24)">Show sample text</text></svg>