<svg id="Capa_1" data-name="Capa 1" xmlns="http://www.w3.org/2000/svg" xmlns:xlink="http://www.w3.org/1999/xlink" viewBox="0 0 165.71 141.18"><defs><style>.cls-1{fill:none;}.cls-2{fill:#232323;}.cls-3{clip-path:url(#clip-path);}.cls-4{fill:#0c0;}.cls-10,.cls-11,.cls-12,.cls-13,.cls-14,.cls-15,.cls-17,.cls-18,.cls-19,.cls-20,.cls-21,.cls-22,.cls-23,.cls-24,.cls-25,.cls-26,.cls-27,.cls-28,.cls-33,.cls-34,.cls-4,.cls-5,.cls-6,.cls-7,.cls-8,.cls-9{opacity:0.5;}.cls-5{fill:#9fef00;}.cls-6{fill:#ff0;}.cls-7{fill:#ffd600;}.cls-8{fill:#ffa900;}.cls-9{fill:#ff7300;}.cls-10{fill:red;}.cls-11{fill:#ce0073;}.cls-12{fill:#7309ac;}.cls-13{fill:#3b13af;}.cls-14{fill:#1340ab;}.cls-15{fill:#099;}.cls-16,.cls-30{fill:#fff;}.cls-16{opacity:0.8;}.cls-17{fill:#52de00;}.cls-18{fill:#cef700;}.cls-19{fill:#ffe800;}.cls-20{fill:#ffbd00;}.cls-21{fill:#ff8c00;}.cls-22{fill:#ff4200;}.cls-23{fill:#e6003a;}.cls-24{fill:#a3048d;}.cls-25{fill:#580fae;}.cls-26{fill:#242bad;}.cls-27{fill:#096da4;}.cls-28{fill:#00b052;}.cls-29{fill:#111110;}.cls-31{fill:#0a0a0a;}.cls-32{fill:#070707;}.cls-33{font-size:4.57px;}.cls-33,.cls-34{fill:#fdfffe;font-family:ArialMT, Arial;}.cls-34{font-size:3.58px;}</style><clipPath id="clip-path" transform="translate(183.81 -35.39)"><path class="cls-1" d="M-160.49,102.69a59.43,59.43,0,0,1,59.38-56.9,59.42,59.42,0,0,1,59.42,59.42,59.42,59.42,0,0,1-59.42,59.42,59.42,59.42,0,0,1-59.43-59.42c0-.57,0-1.15,0-1.72l.51-3.37,37.13,4,.18,1.13a21.57,21.57,0,0,0,21.58,21.57,21.57,21.57,0,0,0,21.57-21.57,21.57,21.57,0,0,0-21.57-21.57,21.57,21.57,0,0,0-21.57,21.07l-.15,2.24-37.47-1.39Z"/></clipPath></defs><rect class="cls-2" width="165.71" height="141.18" rx="9.31"/><path class="cls-4" d="M-107.59,155a51.7,51.7,0,0,1-6.73-1.34l-1.73,6.66a57,57,0,0,0,14.93,2,57.39,57.39,0,0,0,14.57-1.88l-1.73-6.66A50.31,50.31,0,0,1-94.57,155l-.53-3.16a47.81,47.81,0,0,1-6,.38,47.16,47.16,0,0,1-5.86-.36Z" transform="translate(183.81 -35.39)"/><path class="cls-5" d="M-81.81,151.59a50.36,50.36,0,0,1-6.51,2.2l1.84,6.64a57.42,57.42,0,0,0,13.91-5.76,57,57,0,0,0,11.69-8.91l-4.84-4.91a47.69,47.69,0,0,1-4.83,4.22l-2-2.47a47.69,47.69,0,0,1-5,3.34,49.38,49.38,0,0,1-5.25,2.62Z" transform="translate(183.81 -35.39)"/><path class="cls-6" d="M-61.21,135.72a48.87,48.87,0,0,1-4.53,5.17l4.91,4.83a57.08,57.08,0,0,0,9.17-11.95A56.87,56.87,0,0,0-46,120.21l-6.63-1.83a50.57,50.57,0,0,1-2.08,6.07l-3-1.13a47.68,47.68,0,0,1-2.68,5.41,47.61,47.61,0,0,1-3.24,4.89Z" transform="translate(183.81 -35.39)"/><path class="cls-7" d="M-51.3,111.69a48.57,48.57,0,0,1-1.34,6.73l6.67,1.73a57.4,57.4,0,0,0,2-14.93,56.88,56.88,0,0,0-1.88-14.57l-6.66,1.73a50.31,50.31,0,0,1,1.23,6.29l-3.16.53a47.81,47.81,0,0,1,.38,6,47.28,47.28,0,0,1-.36,5.86Z" transform="translate(183.81 -35.39)"/><path class="cls-8" d="M-54.73,85.91a50.36,50.36,0,0,1,2.2,6.51l6.64-1.84a57.26,57.26,0,0,0-5.76-13.92A57.24,57.24,0,0,0-60.56,65l-4.9,4.83a50.18,50.18,0,0,1,4.21,4.84l-2.47,2a47.69,47.69,0,0,1,3.34,5A48.45,48.45,0,0,1-57.76,87Z" transform="translate(183.81 -35.39)"/><path class="cls-9" d="M-70.6,65.31a48.87,48.87,0,0,1,5.17,4.53l4.83-4.91a57.08,57.08,0,0,0-11.95-9.17A56.8,56.8,0,0,0-86.1,50.1l-1.84,6.63a50.57,50.57,0,0,1,6.07,2.08l-1.12,3a48.38,48.38,0,0,1,5.4,2.68,48.87,48.87,0,0,1,4.9,3.24Z" transform="translate(183.81 -35.39)"/><path class="cls-10" d="M-94.63,55.4a48.57,48.57,0,0,1,6.73,1.34l1.73-6.67a57.4,57.4,0,0,0-14.93-2A56.88,56.88,0,0,0-115.67,50l1.73,6.66a50.31,50.31,0,0,1,6.29-1.23l.53,3.16a46,46,0,0,1,6-.39,47.16,47.16,0,0,1,5.86.37Z" transform="translate(183.81 -35.39)"/><path class="cls-11" d="M-120.41,58.83a50.42,50.42,0,0,1,6.51-2.21L-115.74,50a56.64,56.64,0,0,0-13.91,5.76,56.68,56.68,0,0,0-11.69,8.91l4.84,4.9a48.88,48.88,0,0,1,4.83-4.21l2,2.47a47.69,47.69,0,0,1,5-3.34,47.55,47.55,0,0,1,5.25-2.62Z" transform="translate(183.81 -35.39)"/><path class="cls-12" d="M-141,74.69a49.77,49.77,0,0,1,4.53-5.16l-4.91-4.83a57.27,57.27,0,0,0-9.17,11.94,57,57,0,0,0-5.66,13.56l6.63,1.84A50,50,0,0,1-147.51,86l3,1.12a47.54,47.54,0,0,1,2.68-5.4,48.87,48.87,0,0,1,3.24-4.9Z" transform="translate(183.81 -35.39)"/><path class="cls-13" d="M-150.92,98.73A48.28,48.28,0,0,1-149.58,92l-6.67-1.73a57.4,57.4,0,0,0-2,14.93,56.94,56.94,0,0,0,1.88,14.57l6.66-1.73a50.11,50.11,0,0,1-1.23-6.3l3.16-.52a47.81,47.81,0,0,1-.38-6,47.16,47.16,0,0,1,.36-5.86Z" transform="translate(183.81 -35.39)"/><path class="cls-14" d="M-147.49,124.51a50.88,50.88,0,0,1-2.2-6.51l-6.64,1.84a57,57,0,0,0,5.76,13.91,57,57,0,0,0,8.91,11.68l4.9-4.83a48.88,48.88,0,0,1-4.21-4.83l2.47-2a48.75,48.75,0,0,1-3.34-5,49.38,49.38,0,0,1-2.62-5.25Z" transform="translate(183.81 -35.39)"/><path class="cls-15" d="M-131.63,145.11a51,51,0,0,1-5.16-4.53l-4.83,4.91a57.08,57.08,0,0,0,12,9.17,56.8,56.8,0,0,0,13.55,5.66l1.84-6.64a48.81,48.81,0,0,1-6.07-2.07l1.12-3a47.54,47.54,0,0,1-5.4-2.68,49,49,0,0,1-4.9-3.25Z" transform="translate(183.81 -35.39)"/><path class="cls-16" d="M-66.56,125.09a39.85,39.85,0,0,1-34.55,20A39.86,39.86,0,0,1-141,105.21a39.86,39.86,0,0,1,39.86-39.86,39.86,39.86,0,0,1,39.85,39.86,39.62,39.62,0,0,1-5.29,19.86l0,.1.39.13,0,0a40.16,40.16,0,0,0,5.33-20.05,40.28,40.28,0,0,0-40.28-40.28,40.28,40.28,0,0,0-40.29,40.28,40.28,40.28,0,0,0,40.29,40.28,40.25,40.25,0,0,0,34.93-20.21l0-.07-.35-.21Z" transform="translate(183.81 -35.39)"/><path class="cls-17" d="M-95.1,151.85a46.87,46.87,0,0,0,12.24-3.29l1,3A49.1,49.1,0,0,1-94.57,155Z" transform="translate(183.81 -35.39)"/><path class="cls-18" d="M-72.58,142.6a46.93,46.93,0,0,0,8.95-9l2.42,2.09a49,49,0,0,1-9.34,9.35Z" transform="translate(183.81 -35.39)"/><path class="cls-19" d="M-57.71,123.32a46.64,46.64,0,0,0,3.27-12.24l3.14.61a48.76,48.76,0,0,1-3.41,12.76Z" transform="translate(183.81 -35.39)"/><path class="cls-20" d="M-54.47,99.2A46.49,46.49,0,0,0-57.76,87l3-1a48.65,48.65,0,0,1,3.42,12.76Z" transform="translate(183.81 -35.39)"/><path class="cls-21" d="M-63.72,76.68a46.93,46.93,0,0,0-9-9l2.09-2.42a48.59,48.59,0,0,1,9.35,9.34Z" transform="translate(183.81 -35.39)"/><path class="cls-22" d="M-83,61.81a46.82,46.82,0,0,0-12.25-3.27l.61-3.14a48.76,48.76,0,0,1,12.76,3.41Z" transform="translate(183.81 -35.39)"/><path class="cls-23" d="M-107.12,58.57a46.49,46.49,0,0,0-12.24,3.29l-1-3a48.65,48.65,0,0,1,12.76-3.42Z" transform="translate(183.81 -35.39)"/><path class="cls-24" d="M-129.64,67.82a46.64,46.64,0,0,0-9,9l-2.42-2.1a49.06,49.06,0,0,1,9.34-9.34Z" transform="translate(183.81 -35.39)"/><path class="cls-25" d="M-144.51,87.09a46.82,46.82,0,0,0-3.27,12.25l-3.14-.61A48.76,48.76,0,0,1-147.51,86Z" transform="translate(183.81 -35.39)"/><path class="cls-26" d="M-147.75,111.22a46.49,46.49,0,0,0,3.29,12.24l-3,1.05a48.8,48.8,0,0,1-3.42-12.77Z" transform="translate(183.81 -35.39)"/><path class="cls-27" d="M-138.5,133.74a46.93,46.93,0,0,0,9,8.95l-2.1,2.42a49.06,49.06,0,0,1-9.34-9.34Z" transform="translate(183.81 -35.39)"/><path class="cls-28" d="M-119.23,148.61A46.82,46.82,0,0,0-107,151.88l-.61,3.14a48.76,48.76,0,0,1-12.76-3.41Z" transform="translate(183.81 -35.39)"/><circle class="cls-29" cx="82.7" cy="69.82" r="0.19"/><rect class="cls-16" x="82.48" y="106.15" width="0.43" height="3.54"/><rect class="cls-16" x="-91.47" y="140.24" width="0.43" height="3.54" transform="translate(143.95 -54.17) rotate(-15)"/><rect class="cls-16" x="-82.28" y="136.43" width="0.43" height="3.54" transform="translate(103.72 -57.91) rotate(-30)"/><rect class="cls-16" x="-74.39" y="130.38" width="0.43" height="3.54" transform="translate(68.64 -49.13) rotate(-45)"/><rect class="cls-16" x="-68.34" y="122.49" width="0.43" height="3.54" transform="translate(42.14 -32.25) rotate(-60)"/><rect class="cls-16" x="-64.53" y="113.3" width="0.43" height="3.54" transform="translate(24.99 -12.22) rotate(-75)"/><rect class="cls-16" x="-63.23" y="103.44" width="0.43" height="3.54" transform="translate(15.59 6.81) rotate(-90)"/><rect class="cls-16" x="-64.53" y="93.58" width="0.43" height="3.54" transform="matrix(-0.26, -0.97, 0.97, -0.26, 10.75, 22.52)"/><rect class="cls-16" x="-68.33" y="84.4" width="0.43" height="3.54" transform="translate(7.02 34.87) rotate(-120)"/><rect class="cls-16" x="-74.38" y="76.51" width="0.43" height="3.54" transform="translate(1.85 45.79) rotate(-135)"/><rect class="cls-16" x="-82.27" y="70.45" width="0.43" height="3.54" transform="translate(-5.42 58.34) rotate(-150)"/><rect class="cls-16" x="-91.46" y="66.64" width="0.43" height="3.54" transform="translate(-13.28 75.49) rotate(-165)"/><rect class="cls-16" x="-101.32" y="65.34" width="0.43" height="3.54" transform="translate(-18.4 98.84) rotate(-180)"/><rect class="cls-16" x="-111.18" y="66.64" width="0.43" height="3.54" transform="translate(-16.63 127.82) rotate(165)"/><rect class="cls-16" x="-120.37" y="70.45" width="0.43" height="3.54" transform="translate(-4.29 159.44) rotate(150)"/><rect class="cls-16" x="-128.26" y="76.5" width="0.43" height="3.54" transform="translate(20.57 188.76) rotate(135)"/><rect class="cls-16" x="-134.31" y="84.39" width="0.43" height="3.54" transform="matrix(-0.5, 0.87, -0.87, -0.5, 57.28, 209.98)"/><rect class="cls-16" x="-138.12" y="93.58" width="0.43" height="3.54" transform="translate(102.31 217.84) rotate(105)"/><rect class="cls-16" x="-139.42" y="103.44" width="0.43" height="3.54" transform="translate(149.81 209.02) rotate(90)"/><rect class="cls-16" x="-138.12" y="113.3" width="0.43" height="3.54" transform="translate(192.74 183.1) rotate(75)"/><rect class="cls-16" x="-134.32" y="122.48" width="0.43" height="3.54" transform="translate(224.37 142.87) rotate(60)"/><rect class="cls-16" x="-128.27" y="130.37" width="0.43" height="3.54" transform="translate(239.75 93.86) rotate(45)"/><rect class="cls-16" x="-120.38" y="136.43" width="0.43" height="3.54" transform="translate(236.81 43.21) rotate(30)"/><rect class="cls-16" x="-111.19" y="140.24" width="0.43" height="3.54" transform="translate(216.78 -1.83) rotate(15)"/><circle class="cls-30" cx="62.76" cy="35.26" r="1.85"/><path class="cls-31" d="M-119.95,69a1.9,1.9,0,0,0-1.11-.34,2,2,0,0,0-2,2,2,2,0,0,0,2,2,2,2,0,0,0,2-2,2,2,0,0,0-.84-1.61L-120,69l-.32.44,0,0a1.4,1.4,0,0,1,.66,1.19,1.41,1.41,0,0,1-1.41,1.41,1.41,1.41,0,0,1-1.4-1.41,1.41,1.41,0,0,1,1.4-1.41,1.38,1.38,0,0,1,.73.21l.1,0,.33-.43Z" transform="translate(183.81 -35.39)"/><circle class="cls-30" cx="113.76" cy="45.14" r="1.82"/><path class="cls-31" d="M-69,78.93a1.89,1.89,0,0,0-1.1-.34A1.93,1.93,0,0,0-72,80.53a1.93,1.93,0,0,0,1.93,1.94,1.94,1.94,0,0,0,1.94-1.94,1.93,1.93,0,0,0-.82-1.59l-.09,0-.32.43,0,0a1.4,1.4,0,0,1,.65,1.18,1.39,1.39,0,0,1-1.39,1.39,1.39,1.39,0,0,1-1.38-1.39,1.38,1.38,0,0,1,1.38-1.39,1.34,1.34,0,0,1,.72.2l.1,0,.32-.42Z" transform="translate(183.81 -35.39)"/><circle class="cls-32" cx="88.03" cy="30.2" r="2.15"/><path class="cls-30" d="M-94.49,63.7a2.32,2.32,0,0,0-1.3-.4,2.28,2.28,0,0,0-2.28,2.29,2.29,2.29,0,0,0,2.28,2.29,2.29,2.29,0,0,0,2.29-2.29,2.26,2.26,0,0,0-1-1.87l-.1-.06-.38.5,0,0a1.64,1.64,0,0,1,.77,1.39,1.64,1.64,0,0,1-1.64,1.64,1.64,1.64,0,0,1-1.63-1.64A1.63,1.63,0,0,1-95.79,64a1.65,1.65,0,0,1,.85.24l.11.06.38-.51Z" transform="translate(183.81 -35.39)"/><text class="cls-33" transform="translate(129.34 133.21)">RGB: FD0006</text><text class="cls-33" transform="translate(9.57 121.69)">R: 99 %<tspan x="0" y="5.48" xml:space="preserve">G:   0 %</tspan><tspan x="0" y="10.96" xml:space="preserve">B:  31 %</tspan></text><text class="cls-33" transform="translate(9.57 11.82)">Hue: 359°</text><text class="cls-34" transform="translate(9.57 17.38)">opposite</text><text class="cls-33" transform="translate(139.81 10.4)">Angle: 30°</text></svg>