<?xml version="1.0" encoding="utf-8"?>
<!-- Generator: Adobe Illustrator 24.1.1, SVG Export Plug-In . SVG Version: 6.00 Build 0)  -->
<svg version="1.1" id="Capa_1" xmlns="http://www.w3.org/2000/svg" xmlns:xlink="http://www.w3.org/1999/xlink" x="0px" y="0px"
	 viewBox="0 0 9.9 8.8" style="enable-background:new 0 0 9.9 8.8;" xml:space="preserve">
<style type="text/css">
	.st0{fill:#FFFFFF;}
</style>
<path class="st0" d="M2.8,3.5c-0.3,0-0.6,0.3-0.6,0.6c0,0.3,0.3,0.6,0.6,0.6s0.6-0.3,0.6-0.6S3.2,3.5,2.8,3.5z M4.9,3.5
	c-0.3,0-0.6,0.3-0.6,0.6c0,0.3,0.3,0.6,0.6,0.6c0.3,0,0.6-0.3,0.6-0.6S5.2,3.5,4.9,3.5z M7,3.5c-0.3,0-0.6,0.3-0.6,0.6
	c0,0.3,0.3,0.6,0.6,0.6c0.3,0,0.6-0.3,0.6-0.6S7.3,3.5,7,3.5z M4.9,0.2c-2.6,0-4.7,1.7-4.7,3.9c0,0.9,0.4,1.7,1,2.3
	C0.9,7.1,0.3,7.8,0.3,7.8C0.2,7.9,0.1,8.1,0.2,8.2c0.1,0.2,0.2,0.3,0.4,0.3c1.1,0,2-0.5,2.6-0.9c0.5,0.2,1.1,0.3,1.7,0.3
	c2.6,0,4.7-1.7,4.7-3.9S7.5,0.2,4.9,0.2z M4.9,7C4.4,7,3.9,7,3.5,6.8L3,6.7L2.7,6.9C2.4,7.1,2.1,7.3,1.6,7.5C1.8,7.2,1.9,7,2,6.7
	l0.2-0.5L1.8,5.8C1.5,5.4,1.1,4.8,1.1,4.1c0-1.6,1.7-3,3.9-3s3.9,1.3,3.9,3S7,7,4.9,7z"/>
</svg>
