<?xml version="1.0" encoding="utf-8"?>
<!-- Generator: Adobe Illustrator 24.1.1, SVG Export Plug-In . SVG Version: 6.00 Build 0)  -->
<svg version="1.1" id="Capa_1" xmlns="http://www.w3.org/2000/svg" xmlns:xlink="http://www.w3.org/1999/xlink" x="0px" y="0px"
	 viewBox="0 0 166.8 187.9" style="enable-background:new 0 0 166.8 187.9;" xml:space="preserve">
<style type="text/css">
	.st0{fill:#FFFFFF;}
	.st1{fill:#FCFCFC;}
	.st2{fill:#F86EFF;}
	.st3{font-family:'ArialNarrow';}
	.st4{font-size:5.2453px;}
	.st5{opacity:0.38;fill:#FFFFFF;}
	.st6{opacity:0.5;fill:#FFFFFF;}
	.st7{fill:none;stroke:#FFFFFF;stroke-width:0.3;stroke-miterlimit:10;}
	.st8{fill:none;stroke:#FFFFFF;stroke-width:0.6;stroke-miterlimit:10;}
	.st9{fill:none;stroke:#32F987;stroke-width:0.3;stroke-miterlimit:10;}
	.st10{fill:none;stroke:#2086E2;stroke-width:0.3;stroke-miterlimit:10;}
	.st11{fill:none;stroke:#F4278E;stroke-width:0.3;stroke-miterlimit:10;}
	.st12{fill:#F4278E;}
	.st13{fill:#2086E2;}
	.st14{fill:#32F987;}
	.st15{font-size:4.8091px;}
	.st16{fill:#393D5B;stroke:#D80165;stroke-miterlimit:10;}
	.st17{fill:#2B2B2B;}
</style>
<g>
	<g>
		<g>
			<path class="st0" d="M9.3,15.6h14.2v3.2H9.3V15.6z M14.3,17.1h4.1v16.7h-4.1V17.1z"/>
			<path class="st0" d="M30.6,15.6h2.8l7.2,18.2h-4.3L32,21.6l-4.3,12.2h-4.3L30.6,15.6z M27.4,27.8h9.2v3.1h-9.2V27.8z"/>
			<path class="st0" d="M56.8,23.8v4.5c0,1.2-0.3,2.2-0.9,3s-1.4,1.5-2.5,2S51.1,34,49.7,34c-1.4,0-2.7-0.2-3.8-0.7
				c-1.1-0.4-1.9-1.1-2.5-1.9c-0.6-0.8-0.9-1.8-0.9-2.9v-7.4c0-1.2,0.3-2.2,0.9-3.1s1.4-1.5,2.5-2c1.1-0.5,2.3-0.7,3.7-0.7
				c1.4,0,2.6,0.2,3.6,0.6c1,0.4,1.8,1.1,2.3,1.9s0.9,1.9,1,3.2h-4.3c-0.1-0.5-0.2-1-0.4-1.3c-0.2-0.3-0.5-0.6-0.9-0.8
				c-0.4-0.2-0.8-0.3-1.3-0.3c-0.6,0-1.1,0.1-1.5,0.3c-0.4,0.2-0.7,0.5-1,0.8c-0.2,0.4-0.3,0.8-0.3,1.3v7.4c0,0.4,0.1,0.8,0.3,1.1
				s0.6,0.6,1,0.7c0.4,0.2,0.9,0.3,1.5,0.3c0.6,0,1.1-0.1,1.5-0.3c0.4-0.2,0.8-0.4,1-0.8c0.2-0.3,0.4-0.8,0.4-1.2v-1.4h-2.7v-3.2
				H56.8z"/>
			<path class="st0" d="M70.3,25.7v3.1h-9.9v-3.1H70.3z"/>
			<path class="st0" d="M74.1,15.6h4.1v18.2h-4.1V15.6z M75.7,15.6h11v3.2h-11V15.6z M75.7,23.3h9.8v3.1h-9.8V23.3z"/>
			<path class="st0" d="M88.2,30.5h4.1v3.3h-4.1V30.5z"/>
			<path class="st0" d="M98.5,33.3c-1.1-0.4-1.9-1.1-2.5-1.9c-0.6-0.8-0.9-1.8-0.9-2.9v-7.6c0-1.1,0.3-2.1,0.9-2.9
				c0.6-0.8,1.4-1.5,2.5-1.9c1.1-0.4,2.3-0.7,3.8-0.7s2.7,0.2,3.8,0.7c1.1,0.4,1.9,1.1,2.5,1.9c0.6,0.8,0.9,1.8,0.9,2.9v7.6
				c0,1.1-0.3,2.1-0.9,2.9c-0.6,0.8-1.4,1.5-2.5,1.9c-1.1,0.4-2.3,0.7-3.8,0.7S99.6,33.8,98.5,33.3z M103.9,30.4
				c0.4-0.2,0.8-0.5,1-0.8c0.2-0.4,0.3-0.8,0.3-1.3V21c0-0.5-0.1-0.9-0.3-1.3c-0.2-0.4-0.6-0.6-1-0.8c-0.4-0.2-1-0.3-1.6-0.3
				c-0.6,0-1.1,0.1-1.5,0.3c-0.4,0.2-0.8,0.5-1,0.8c-0.2,0.4-0.4,0.8-0.4,1.3v7.3c0,0.5,0.1,0.9,0.4,1.3c0.2,0.4,0.6,0.6,1,0.8
				c0.4,0.2,1,0.3,1.5,0.3C102.9,30.7,103.4,30.6,103.9,30.4z"/>
		</g>
	</g>
</g>
<g>
	<g>
		<path class="st0" d="M13.7,5.2h0.5v5.5h-0.5V5.2z M14.1,5.2h3.1v0.5h-3.1V5.2z M14.1,7.7h2.7v0.5h-2.7V7.7z"/>
		<path class="st0" d="M18.5,9.1c0,0.3,0.1,0.6,0.3,0.8c0.2,0.2,0.4,0.3,0.8,0.3c0.3,0,0.6-0.1,0.8-0.3c0.2-0.2,0.3-0.4,0.3-0.7
			l0.1,0.8c-0.1,0.2-0.3,0.4-0.5,0.5c-0.2,0.1-0.5,0.2-0.8,0.2c-0.4,0-0.8-0.1-1-0.4s-0.4-0.7-0.4-1.2V6.7h0.5V9.1z M20.5,6.7h0.5
			v3.9h-0.5V6.7z"/>
		<path class="st0" d="M22.9,10.5c-0.3-0.1-0.5-0.3-0.6-0.6s-0.2-0.6-0.2-1V8.5c0-0.4,0.1-0.7,0.2-1c0.1-0.3,0.3-0.5,0.6-0.6
			c0.2-0.1,0.5-0.2,0.9-0.2c0.3,0,0.6,0.1,0.8,0.2C24.9,7,25,7.2,25.2,7.5c0.1,0.3,0.2,0.6,0.2,1v0.4h-2.8V8.4h2.3v0
			c0-0.4-0.1-0.7-0.3-0.9s-0.4-0.3-0.8-0.3c-0.4,0-0.6,0.1-0.8,0.3c-0.2,0.2-0.3,0.5-0.3,1V9c0,0.4,0.1,0.7,0.3,0.9
			c0.2,0.2,0.5,0.3,0.9,0.3c0.2,0,0.4,0,0.5-0.1s0.3-0.2,0.5-0.3l0.4,0.4c-0.2,0.2-0.4,0.3-0.6,0.4s-0.5,0.2-0.7,0.2
			C23.5,10.7,23.2,10.6,22.9,10.5z"/>
		<path class="st0" d="M26.4,6.7h0.5v3.9h-0.5V6.7z M28.4,7.2c-0.1,0-0.3-0.1-0.4-0.1c-0.3,0-0.6,0.1-0.8,0.3
			c-0.2,0.2-0.3,0.4-0.3,0.7l-0.1-0.8C27,7.2,27.2,7,27.4,6.9c0.2-0.1,0.5-0.2,0.8-0.2c0.2,0,0.3,0,0.5,0.1c0.1,0.1,0.3,0.1,0.4,0.2
			l-0.4,0.5C28.6,7.4,28.5,7.3,28.4,7.2z"/>
		<path class="st0" d="M32.4,7.2l-2.1,3h2.2v0.5h-2.9v-0.4l2.2-3h-2.1V6.7h2.8V7.2z"/>
		<path class="st0" d="M33.7,10.4c-0.3-0.2-0.4-0.5-0.4-0.9c0-0.4,0.1-0.7,0.3-0.9s0.6-0.3,1-0.3H36L36,8.8h-1.4
			c-0.3,0-0.4,0.1-0.6,0.2c-0.1,0.1-0.2,0.3-0.2,0.5c0,0.2,0.1,0.4,0.3,0.5c0.2,0.1,0.4,0.2,0.7,0.2c0.3,0,0.6,0,0.8-0.1
			c0.2-0.1,0.3-0.2,0.3-0.3l0.1,0.5c-0.1,0.1-0.2,0.2-0.3,0.2c-0.1,0.1-0.3,0.1-0.4,0.1s-0.3,0-0.5,0C34.3,10.7,34,10.6,33.7,10.4z
			 M35.9,8.2c0-0.3-0.1-0.6-0.3-0.7c-0.2-0.2-0.4-0.3-0.7-0.3c-0.2,0-0.4,0-0.5,0.1c-0.2,0.1-0.3,0.1-0.5,0.3l-0.4-0.3
			c0.1-0.2,0.3-0.3,0.6-0.4c0.2-0.1,0.5-0.1,0.8-0.1c0.3,0,0.6,0.1,0.8,0.2C36,7,36.2,7.1,36.3,7.3c0.1,0.2,0.2,0.5,0.2,0.8v2.5
			h-0.5V8.2z"/>
		<path class="st0" d="M39.8,10.5c-0.3-0.2-0.5-0.4-0.7-0.7c-0.2-0.3-0.2-0.7-0.2-1.1V7.1c0-0.4,0.1-0.8,0.2-1.1
			c0.2-0.3,0.4-0.5,0.7-0.7c0.3-0.2,0.6-0.2,1-0.2c0.4,0,0.8,0.1,1,0.2c0.3,0.2,0.5,0.4,0.7,0.7c0.2,0.3,0.2,0.7,0.2,1.1v1.6
			c0,0.4-0.1,0.8-0.2,1.1c-0.2,0.3-0.4,0.5-0.7,0.7c-0.3,0.2-0.6,0.2-1,0.2C40.5,10.7,40.1,10.6,39.8,10.5z M41.6,10
			c0.2-0.1,0.4-0.3,0.5-0.5c0.1-0.2,0.2-0.5,0.2-0.8V7.1c0-0.3-0.1-0.6-0.2-0.8c-0.1-0.2-0.3-0.4-0.5-0.5c-0.2-0.1-0.5-0.2-0.8-0.2
			c-0.3,0-0.5,0.1-0.8,0.2c-0.2,0.1-0.4,0.3-0.5,0.5c-0.1,0.2-0.2,0.5-0.2,0.8v1.6c0,0.3,0.1,0.6,0.2,0.8c0.1,0.2,0.3,0.4,0.5,0.5
			c0.2,0.1,0.5,0.2,0.8,0.2C41.2,10.2,41.4,10.1,41.6,10z"/>
		<path class="st0" d="M44,6.7h0.5v5.5H44V6.7z M44.9,10.6c-0.2-0.1-0.4-0.3-0.5-0.5l0.1-0.8c0,0.2,0,0.3,0.1,0.5
			c0.1,0.2,0.2,0.3,0.3,0.4s0.3,0.1,0.5,0.1c0.3,0,0.6-0.1,0.8-0.3s0.3-0.5,0.3-0.8V8.3c0-0.4-0.1-0.6-0.3-0.8s-0.4-0.3-0.8-0.3
			c-0.2,0-0.4,0-0.5,0.1c-0.2,0.1-0.3,0.2-0.3,0.4c-0.1,0.2-0.1,0.3-0.1,0.5l-0.1-0.8C44.6,7.1,44.7,7,45,6.8
			c0.2-0.1,0.5-0.2,0.8-0.2c0.3,0,0.5,0.1,0.7,0.2c0.2,0.1,0.3,0.3,0.5,0.5c0.1,0.2,0.2,0.5,0.2,0.9v0.9c0,0.3-0.1,0.6-0.2,0.9
			c-0.1,0.2-0.3,0.4-0.5,0.5s-0.4,0.2-0.7,0.2C45.4,10.7,45.1,10.7,44.9,10.6z"/>
		<path class="st0" d="M48.8,10.5c-0.3-0.1-0.5-0.3-0.6-0.6s-0.2-0.6-0.2-1V8.5c0-0.4,0.1-0.7,0.2-1c0.1-0.3,0.3-0.5,0.6-0.6
			c0.2-0.1,0.5-0.2,0.9-0.2c0.3,0,0.6,0.1,0.8,0.2C50.8,7,51,7.2,51.1,7.5c0.1,0.3,0.2,0.6,0.2,1v0.4h-2.8V8.4h2.3v0
			c0-0.4-0.1-0.7-0.3-0.9S50,7.2,49.7,7.2c-0.4,0-0.6,0.1-0.8,0.3c-0.2,0.2-0.3,0.5-0.3,1V9c0,0.4,0.1,0.7,0.3,0.9
			c0.2,0.2,0.5,0.3,0.9,0.3c0.2,0,0.4,0,0.5-0.1s0.3-0.2,0.5-0.3l0.4,0.4c-0.2,0.2-0.4,0.3-0.6,0.4s-0.5,0.2-0.7,0.2
			C49.4,10.7,49.1,10.6,48.8,10.5z"/>
		<path class="st0" d="M52.3,6.7h0.5v3.9h-0.5V6.7z M54.3,7.2c-0.1,0-0.3-0.1-0.4-0.1c-0.3,0-0.6,0.1-0.8,0.3
			c-0.2,0.2-0.3,0.4-0.3,0.7l-0.1-0.8c0.1-0.2,0.3-0.4,0.6-0.5c0.2-0.1,0.5-0.2,0.8-0.2c0.2,0,0.3,0,0.5,0.1C54.7,6.8,54.9,6.9,55,7
			l-0.4,0.5C54.5,7.4,54.4,7.3,54.3,7.2z"/>
		<path class="st0" d="M55.8,10.4c-0.3-0.2-0.4-0.5-0.4-0.9c0-0.4,0.1-0.7,0.3-0.9s0.6-0.3,1-0.3h1.3l0.1,0.5h-1.4
			c-0.3,0-0.4,0.1-0.6,0.2C56,9.1,56,9.3,56,9.5c0,0.2,0.1,0.4,0.3,0.5c0.2,0.1,0.4,0.2,0.7,0.2c0.3,0,0.6,0,0.8-0.1
			C57.9,10,58,9.9,58,9.8l0.1,0.5c-0.1,0.1-0.2,0.2-0.3,0.2c-0.1,0.1-0.3,0.1-0.4,0.1s-0.3,0-0.5,0C56.4,10.7,56.1,10.6,55.8,10.4z
			 M58,8.2c0-0.3-0.1-0.6-0.3-0.7c-0.2-0.2-0.4-0.3-0.7-0.3c-0.2,0-0.4,0-0.5,0.1c-0.2,0.1-0.3,0.1-0.5,0.3l-0.4-0.3
			c0.1-0.2,0.3-0.3,0.6-0.4c0.2-0.1,0.5-0.1,0.8-0.1c0.3,0,0.6,0.1,0.8,0.2c0.2,0.1,0.4,0.3,0.5,0.5c0.1,0.2,0.2,0.5,0.2,0.8v2.5H58
			V8.2z"/>
		<path class="st0" d="M59.4,6.7h1.8v0.5h-1.8V6.7z M60.1,10.4c-0.1-0.2-0.2-0.4-0.2-0.8v-4h0.5v4.1c0,0.2,0,0.3,0.1,0.4
			c0.1,0.1,0.2,0.1,0.3,0.1h0.4v0.5h-0.4C60.4,10.7,60.2,10.6,60.1,10.4z"/>
		<path class="st0" d="M62.4,5.2h0.5v0.5h-0.5V5.2z M62.4,6.7h0.5v3.9h-0.5V6.7z"/>
		<path class="st0" d="M66.7,6.7h0.6l-1.5,3.9h-0.4l-1.5-3.9h0.6l1.2,3.2L66.7,6.7z"/>
		<path class="st0" d="M68.3,10.4c-0.3-0.2-0.4-0.5-0.4-0.9c0-0.4,0.1-0.7,0.3-0.9s0.6-0.3,1-0.3h1.3l0.1,0.5h-1.4
			c-0.3,0-0.4,0.1-0.6,0.2c-0.1,0.1-0.2,0.3-0.2,0.5c0,0.2,0.1,0.4,0.3,0.5c0.2,0.1,0.4,0.2,0.7,0.2c0.3,0,0.6,0,0.8-0.1
			c0.2-0.1,0.3-0.2,0.3-0.3l0.1,0.5c-0.1,0.1-0.2,0.2-0.3,0.2c-0.1,0.1-0.3,0.1-0.4,0.1s-0.3,0-0.5,0C68.9,10.7,68.5,10.6,68.3,10.4
			z M70.5,8.2c0-0.3-0.1-0.6-0.3-0.7c-0.2-0.2-0.4-0.3-0.7-0.3c-0.2,0-0.4,0-0.5,0.1c-0.2,0.1-0.3,0.1-0.5,0.3l-0.4-0.3
			c0.1-0.2,0.3-0.3,0.6-0.4c0.2-0.1,0.5-0.1,0.8-0.1c0.3,0,0.6,0.1,0.8,0.2c0.2,0.1,0.4,0.3,0.5,0.5C71,7.6,71,7.8,71,8.1v2.5h-0.5
			V8.2z"/>
	</g>
</g>
<g>
	<g>
		<path class="st0" d="M14.6,39.2h0.6v6h-0.6V39.2z M15,44.7h3.4v0.6H15V44.7z"/>
		<path class="st0" d="M19.5,39.2h0.6v0.6h-0.6V39.2z M19.5,40.9h0.6v4.3h-0.6V40.9z"/>
		<path class="st0" d="M22,45.1c-0.2-0.1-0.4-0.3-0.5-0.6c-0.1-0.3-0.2-0.6-0.2-0.9v-0.9c0-0.4,0.1-0.7,0.2-0.9
			c0.1-0.3,0.3-0.5,0.5-0.6c0.2-0.1,0.5-0.2,0.8-0.2c0.3,0,0.6,0.1,0.9,0.2c0.2,0.1,0.4,0.3,0.6,0.6l-0.1,0.8c0-0.2,0-0.4-0.1-0.5
			s-0.2-0.3-0.4-0.4c-0.2-0.1-0.4-0.2-0.6-0.2c-0.4,0-0.6,0.1-0.8,0.3s-0.3,0.5-0.3,0.9v0.9c0,0.4,0.1,0.7,0.3,0.9
			c0.2,0.2,0.5,0.3,0.8,0.3c0.2,0,0.4-0.1,0.6-0.2c0.2-0.1,0.3-0.2,0.4-0.4c0.1-0.2,0.1-0.4,0.1-0.5l0.1,0.9
			c-0.1,0.3-0.3,0.5-0.5,0.6c-0.2,0.1-0.5,0.2-0.9,0.2C22.5,45.3,22.2,45.2,22,45.1z M24.1,39.2h0.6v6h-0.6V39.2z"/>
		<path class="st0" d="M26.8,45.1c-0.3-0.2-0.5-0.4-0.6-0.7s-0.2-0.6-0.2-1v-0.5c0-0.4,0.1-0.8,0.2-1.1s0.3-0.5,0.6-0.7
			c0.3-0.2,0.6-0.2,1-0.2c0.4,0,0.7,0.1,0.9,0.2c0.3,0.2,0.4,0.4,0.6,0.7c0.1,0.3,0.2,0.7,0.2,1.1v0.5h-3.1v-0.5h2.5v0
			c0-0.4-0.1-0.8-0.3-1c-0.2-0.2-0.5-0.3-0.8-0.3c-0.4,0-0.7,0.1-0.9,0.4c-0.2,0.2-0.3,0.6-0.3,1v0.5c0,0.4,0.1,0.8,0.3,1
			c0.2,0.2,0.6,0.4,1,0.4c0.2,0,0.4,0,0.6-0.1c0.2-0.1,0.4-0.2,0.5-0.4l0.4,0.4c-0.2,0.2-0.4,0.4-0.7,0.5c-0.3,0.1-0.5,0.2-0.8,0.2
			C27.4,45.3,27,45.2,26.8,45.1z"/>
		<path class="st0" d="M30.6,40.9h0.6v4.3h-0.6V40.9z M32.8,41.5c-0.1,0-0.3-0.1-0.5-0.1c-0.4,0-0.6,0.1-0.8,0.3
			c-0.2,0.2-0.3,0.5-0.3,0.8l-0.1-0.8c0.2-0.3,0.4-0.5,0.6-0.6c0.3-0.1,0.5-0.2,0.8-0.2c0.2,0,0.4,0,0.5,0.1
			c0.2,0.1,0.3,0.1,0.4,0.3l-0.4,0.5C33,41.6,32.9,41.6,32.8,41.5z"/>
		<path class="st0" d="M34.4,44.9c-0.3-0.2-0.4-0.6-0.4-1c0-0.4,0.1-0.7,0.4-0.9s0.6-0.3,1.1-0.3h1.4l0.1,0.6h-1.5
			c-0.3,0-0.5,0.1-0.6,0.2s-0.2,0.3-0.2,0.5c0,0.2,0.1,0.4,0.3,0.6c0.2,0.1,0.5,0.2,0.8,0.2c0.4,0,0.7,0,0.9-0.1
			c0.2-0.1,0.3-0.2,0.3-0.3l0.1,0.6c-0.1,0.1-0.2,0.2-0.3,0.2s-0.3,0.1-0.5,0.1c-0.2,0-0.4,0-0.6,0C35,45.3,34.7,45.2,34.4,44.9z
			 M36.8,42.5c0-0.3-0.1-0.6-0.3-0.8c-0.2-0.2-0.4-0.3-0.8-0.3c-0.2,0-0.4,0-0.6,0.1c-0.2,0.1-0.4,0.2-0.5,0.3l-0.4-0.3
			c0.2-0.2,0.4-0.3,0.6-0.5c0.3-0.1,0.6-0.2,0.9-0.2c0.4,0,0.7,0.1,0.9,0.2c0.3,0.1,0.4,0.3,0.6,0.5c0.1,0.2,0.2,0.5,0.2,0.9v2.8
			h-0.6V42.5z"/>
		<path class="st0" d="M39.2,45.1c-0.2-0.1-0.4-0.3-0.5-0.6c-0.1-0.3-0.2-0.6-0.2-0.9v-0.9c0-0.4,0.1-0.7,0.2-0.9
			c0.1-0.3,0.3-0.5,0.5-0.6c0.2-0.1,0.5-0.2,0.8-0.2c0.3,0,0.6,0.1,0.9,0.2c0.2,0.1,0.4,0.3,0.6,0.6l-0.1,0.8c0-0.2,0-0.4-0.1-0.5
			s-0.2-0.3-0.4-0.4c-0.2-0.1-0.4-0.2-0.6-0.2c-0.4,0-0.6,0.1-0.8,0.3s-0.3,0.5-0.3,0.9v0.9c0,0.4,0.1,0.7,0.3,0.9
			c0.2,0.2,0.5,0.3,0.8,0.3c0.2,0,0.4-0.1,0.6-0.2c0.2-0.1,0.3-0.2,0.4-0.4c0.1-0.2,0.1-0.4,0.1-0.5l0.1,0.9
			c-0.1,0.3-0.3,0.5-0.5,0.6c-0.2,0.1-0.5,0.2-0.9,0.2C39.7,45.3,39.5,45.2,39.2,45.1z M41.4,39.2H42v6h-0.6V39.2z"/>
		<path class="st0" d="M43.9,45.1c-0.3-0.1-0.5-0.4-0.6-0.6c-0.1-0.3-0.2-0.6-0.2-1v-0.7c0-0.4,0.1-0.7,0.2-1
			c0.1-0.3,0.3-0.5,0.6-0.6s0.6-0.2,1-0.2s0.7,0.1,1,0.2s0.5,0.4,0.6,0.6c0.1,0.3,0.2,0.6,0.2,1v0.7c0,0.4-0.1,0.7-0.2,1
			c-0.1,0.3-0.3,0.5-0.6,0.6c-0.3,0.1-0.6,0.2-1,0.2S44.2,45.2,43.9,45.1z M45.8,44.4c0.2-0.2,0.3-0.5,0.3-1v-0.7
			c0-0.4-0.1-0.7-0.3-1c-0.2-0.2-0.5-0.3-0.9-0.3c-0.4,0-0.7,0.1-0.9,0.3s-0.3,0.5-0.3,1v0.7c0,0.4,0.1,0.7,0.3,1
			c0.2,0.2,0.5,0.3,0.9,0.3C45.3,44.7,45.6,44.6,45.8,44.4z"/>
		<path class="st0" d="M49.3,40.9h0.6v6h-0.6V40.9z M50.4,45.1c-0.2-0.1-0.4-0.3-0.5-0.6l0.1-0.9c0,0.2,0,0.4,0.1,0.5
			s0.2,0.3,0.4,0.4c0.2,0.1,0.4,0.2,0.6,0.2c0.4,0,0.6-0.1,0.8-0.3c0.2-0.2,0.3-0.5,0.3-0.9v-0.9c0-0.4-0.1-0.7-0.3-0.9
			c-0.2-0.2-0.5-0.3-0.8-0.3c-0.2,0-0.4,0.1-0.6,0.2c-0.2,0.1-0.3,0.2-0.4,0.4c-0.1,0.2-0.1,0.3-0.1,0.5l-0.1-0.8
			c0.1-0.3,0.3-0.5,0.6-0.6c0.2-0.1,0.5-0.2,0.9-0.2c0.3,0,0.6,0.1,0.8,0.2c0.2,0.1,0.4,0.3,0.5,0.6s0.2,0.6,0.2,0.9v0.9
			c0,0.4-0.1,0.7-0.2,0.9c-0.1,0.3-0.3,0.5-0.5,0.6c-0.2,0.1-0.5,0.2-0.8,0.2C50.9,45.3,50.6,45.2,50.4,45.1z"/>
		<path class="st0" d="M54.6,45.1c-0.3-0.1-0.5-0.4-0.6-0.6c-0.1-0.3-0.2-0.6-0.2-1v-0.7c0-0.4,0.1-0.7,0.2-1
			c0.1-0.3,0.3-0.5,0.6-0.6s0.6-0.2,1-0.2s0.7,0.1,1,0.2s0.5,0.4,0.6,0.6c0.1,0.3,0.2,0.6,0.2,1v0.7c0,0.4-0.1,0.7-0.2,1
			c-0.1,0.3-0.3,0.5-0.6,0.6c-0.3,0.1-0.6,0.2-1,0.2S54.9,45.2,54.6,45.1z M56.4,44.4c0.2-0.2,0.3-0.5,0.3-1v-0.7
			c0-0.4-0.1-0.7-0.3-1c-0.2-0.2-0.5-0.3-0.9-0.3c-0.4,0-0.7,0.1-0.9,0.3s-0.3,0.5-0.3,1v0.7c0,0.4,0.1,0.7,0.3,1
			c0.2,0.2,0.5,0.3,0.9,0.3C55.9,44.7,56.2,44.6,56.4,44.4z"/>
		<path class="st0" d="M58.5,40.9h0.6v4.3h-0.6V40.9z M60.7,41.5c-0.1,0-0.3-0.1-0.5-0.1c-0.4,0-0.6,0.1-0.8,0.3
			c-0.2,0.2-0.3,0.5-0.3,0.8L59,41.7c0.2-0.3,0.4-0.5,0.6-0.6c0.3-0.1,0.5-0.2,0.8-0.2c0.2,0,0.4,0,0.5,0.1c0.2,0.1,0.3,0.1,0.4,0.3
			L61,41.7C61,41.6,60.8,41.6,60.7,41.5z"/>
		<path class="st0" d="M62.1,40.9h0.6v0.6h-0.6V40.9z M62.1,44.6h0.6v0.6h-0.6V44.6z"/>
	</g>
</g>
<g>
	<g>
		<g>
			<path class="st1" d="M78.7,43.4v0.7h-3v-0.7H78.7z M78.8,41.6v0.7h-3v-0.7H78.8z M76.5,40.5h0.7l-0.7,4.7h-0.7L76.5,40.5z
				 M77.9,40.5h0.7l-0.7,4.7h-0.7L77.9,40.5z"/>
			<path class="st1" d="M79.4,40.5h0.8v4.7h-0.8V40.5z M79.7,40.5H82v0.8h-2.3V40.5z M79.7,42.5h2v0.8h-2V42.5z M79.7,44.4H82v0.8
				h-2.3V44.4z"/>
			<path class="st1" d="M83,45.1c-0.1-0.1-0.2-0.2-0.3-0.4c-0.1-0.2-0.1-0.4-0.1-0.6V43c0-0.3,0-0.5,0.1-0.6
				c0.1-0.2,0.2-0.3,0.3-0.4c0.1-0.1,0.3-0.1,0.5-0.1c0.2,0,0.3,0.1,0.5,0.2c0.1,0.1,0.2,0.3,0.3,0.5L84.2,43c0-0.1,0-0.2,0-0.2
				c0-0.1-0.1-0.1-0.1-0.1c-0.1,0-0.1-0.1-0.2-0.1c-0.1,0-0.2,0-0.3,0.1c-0.1,0.1-0.1,0.2-0.1,0.4v1c0,0.1,0,0.3,0.1,0.3
				c0.1,0.1,0.2,0.1,0.3,0.1c0.1,0,0.1,0,0.2,0c0.1,0,0.1-0.1,0.1-0.1s0-0.1,0-0.2l0,0.6c-0.1,0.2-0.2,0.3-0.3,0.4s-0.3,0.2-0.5,0.2
				C83.3,45.3,83.1,45.2,83,45.1z M84.2,40.5H85v4.7h-0.8V40.5z"/>
			<path class="st1" d="M86.1,45.1c-0.1-0.1-0.2-0.2-0.3-0.4c-0.1-0.2-0.1-0.4-0.1-0.6V43c0-0.3,0-0.5,0.1-0.6
				c0.1-0.2,0.2-0.3,0.3-0.4s0.3-0.1,0.5-0.1c0.2,0,0.3,0.1,0.4,0.2c0.1,0.1,0.2,0.3,0.3,0.5L87.3,43c0-0.1,0-0.2,0-0.2
				s-0.1-0.1-0.1-0.1c-0.1,0-0.1-0.1-0.2-0.1c-0.1,0-0.2,0-0.3,0.1c-0.1,0.1-0.1,0.2-0.1,0.4v1c0,0.1,0,0.3,0.1,0.3
				c0.1,0.1,0.2,0.1,0.3,0.1c0.1,0,0.2,0,0.2-0.1c0.1,0,0.1-0.1,0.1-0.1s0-0.1,0-0.2l0,0.6c-0.1,0.2-0.2,0.3-0.3,0.4
				s-0.3,0.2-0.5,0.2C86.4,45.3,86.2,45.2,86.1,45.1z M86.1,46.4c-0.2-0.1-0.3-0.4-0.4-0.7l0.8-0.3c0,0.1,0.1,0.2,0.1,0.2
				s0.1,0.1,0.2,0.1c0.1,0,0.2,0,0.3-0.1s0.1-0.2,0.1-0.3v-3.6h0.9v3.5c0,0.3-0.1,0.5-0.2,0.7s-0.3,0.3-0.4,0.4
				c-0.2,0.1-0.4,0.1-0.7,0.1C86.5,46.6,86.3,46.5,86.1,46.4z"/>
			<path class="st1" d="M89.1,45c-0.2-0.2-0.2-0.4-0.2-0.8c0-0.3,0.1-0.6,0.3-0.8c0.2-0.2,0.5-0.3,0.9-0.3h0.5l0,0.7H90
				c-0.1,0-0.2,0-0.3,0.1s-0.1,0.2-0.1,0.3c0,0.1,0,0.2,0.1,0.2c0.1,0.1,0.2,0.1,0.3,0.1c0.2,0,0.3,0,0.4-0.1
				c0.1-0.1,0.1-0.1,0.1-0.3l0.1,0.4c0,0.1-0.1,0.3-0.1,0.4c-0.1,0.1-0.2,0.2-0.3,0.2c-0.1,0-0.3,0.1-0.4,0.1
				C89.4,45.3,89.2,45.2,89.1,45z M90.5,42.9c0-0.1,0-0.2-0.1-0.3s-0.2-0.1-0.3-0.1c-0.1,0-0.2,0-0.3,0.1c-0.1,0-0.1,0.1-0.2,0.2
				l-0.7-0.3c0.1-0.2,0.2-0.4,0.4-0.6s0.4-0.2,0.7-0.2c0.3,0,0.5,0,0.7,0.1s0.3,0.2,0.4,0.4c0.1,0.2,0.1,0.4,0.1,0.6v2.3h-0.8V42.9z
				"/>
			<path class="st1" d="M92.1,41.8h0.9v3.4h-0.9V41.8z M93.7,42.7c0,0-0.1,0-0.2,0c-0.2,0-0.3,0.1-0.4,0.2c-0.1,0.1-0.2,0.3-0.2,0.5
				l-0.1-0.9c0.1-0.2,0.2-0.4,0.4-0.5s0.3-0.2,0.5-0.2c0.1,0,0.1,0,0.2,0c0.1,0,0.1,0.1,0.1,0.1l-0.3,0.8
				C93.8,42.7,93.8,42.7,93.7,42.7z"/>
			<path class="st1" d="M96.7,45.2V46h-2.5v-0.8H96.7z"/>
			<path class="st1" d="M98,43h-1.3l2-1.4v1L98,43z M98.8,44.5l-2-1.4H98l0.8,0.4V44.5z"/>
			<path class="st1" d="M100.4,42.4l0.8-1.9h0.9l-1.3,2.7l-0.9,2.1H99L100.4,42.4z M100.4,43.3l-0.1-0.3L99,40.5h0.9l0.8,1.8
				l0.2,0.3l1.3,2.7h-0.9L100.4,43.3z"/>
			<path class="st1" d="M102.5,41.6l2,1.4h-1.3l-0.8-0.4V41.6z M103.2,43h1.3l-2,1.4v-1L103.2,43z"/>
		</g>
	</g>
</g>
<path class="st2" d="M109.6,43.1c-0.5,0-0.9,0.4-0.9,0.9h1.7C110.5,43.5,110.1,43.1,109.6,43.1C109.6,43.1,109.6,43.1,109.6,43.1
	h-0.1l-0.1-0.3l0.2,0c0.3,0,0.5-0.2,0.5-0.5l0-0.1l1.6,0.2l0,0.1c-0.1,1.1-0.6,3-2.2,3c-2.3,0-2.1-3.9-2.1-3.9l2.1-1.4l2.2,1.4
	c0,0,0,0.3,0,0.8l-0.1,0.2l-1.5-0.2l0-0.2c0,0,0,0,0,0c0-0.3-0.2-0.5-0.5-0.5c-0.3,0-0.5,0.2-0.5,0.5s0.2,0.5,0.5,0.5h0.2l-0.1,0.3
	H109.6z"/>
<path class="st0" d="M17,51.3c0.6,0.6,0.6,1.6,0,2.2c0,0,0,0,0,0l-0.7,0.7c-0.6,0.6-1.6,0.6-2.2,0c-0.6-0.6-0.6-1.6,0-2.2l0.4-0.4
	c0.1-0.1,0.3,0,0.3,0.1c0,0.2,0,0.4,0.1,0.5c0,0.1,0,0.1,0,0.2l-0.1,0.1c-0.3,0.3-0.3,0.7,0,1c0.3,0.3,0.7,0.3,1,0l0.7-0.7
	c0.3-0.3,0.3-0.7,0-1c0,0-0.1-0.1-0.1-0.1c0,0-0.1-0.1-0.1-0.1c0-0.1,0-0.2,0.1-0.3l0.2-0.2c0.1-0.1,0.1-0.1,0.2,0
	C16.9,51.2,17,51.2,17,51.3L17,51.3z M18.4,49.9c-0.6-0.6-1.6-0.6-2.2,0l-0.7,0.7c0,0,0,0,0,0c-0.6,0.6-0.6,1.6,0,2.2
	c0.1,0.1,0.1,0.1,0.2,0.2c0.1,0,0.2,0,0.2,0l0.2-0.2c0.1-0.1,0.1-0.2,0.1-0.3c0-0.1,0-0.1-0.1-0.1c0,0-0.1,0-0.1-0.1
	c-0.3-0.3-0.3-0.7,0-1l0.7-0.7c0.3-0.3,0.7-0.3,1,0c0.3,0.3,0.3,0.7,0,1l-0.1,0.1c0,0-0.1,0.1,0,0.2c0.1,0.2,0.1,0.4,0.1,0.5
	c0,0.1,0.2,0.2,0.3,0.1l0.4-0.4C19,51.4,19,50.5,18.4,49.9L18.4,49.9z"/>
<text transform="matrix(1 0 0 1 20.476 53.9179)" class="st0 st3 st4">Edgar.somee.com</text>
<path class="st0" d="M14.2,61.4v-1.9c0-0.2,0.2-0.5,0.5-0.5h1.9c0.1,0,0.2,0,0.3,0.1l2,2c0.2,0.2,0.2,0.5,0,0.6l-1.9,1.9
	c-0.2,0.2-0.5,0.2-0.6,0l-2-2C14.2,61.7,14.2,61.5,14.2,61.4z M15.2,59.7c-0.2,0-0.5,0.2-0.5,0.5c0,0.2,0.2,0.5,0.5,0.5
	c0.2,0,0.5-0.2,0.5-0.5C15.7,59.9,15.5,59.7,15.2,59.7z"/>
<text transform="matrix(1 0 0 1 20.6782 63.1606)" class="st5 st3 st4">Name</text>
<g>
	<text transform="matrix(1 0 0 1 33.0805 63.1606)" class="st0 st3 st4">[FTS]</text>
</g>
<path class="st6" d="M49.7,63.2v0.3c0,0.1-0.1,0.2-0.2,0.2h-2.3c-0.1,0-0.2-0.1-0.2-0.2v-3.1c0-0.1,0.1-0.2,0.2-0.2h0.6v2.5
	c0,0.3,0.2,0.5,0.5,0.5H49.7z M49.7,60.3v-0.9h-1.4c-0.1,0-0.2,0.1-0.2,0.2v3.1c0,0.1,0.1,0.2,0.2,0.2h2.3c0.1,0,0.2-0.1,0.2-0.2
	v-2.2h-0.9C49.7,60.5,49.7,60.4,49.7,60.3z M50.7,60.1l-0.6-0.6c0,0-0.1-0.1-0.1-0.1h-0.1v0.8h0.8v-0.1
	C50.7,60.2,50.7,60.1,50.7,60.1z"/>
<g>
	<g>
		<line class="st7" x1="155.5" y1="83.1" x2="17.8" y2="83.1"/>
		<line class="st7" x1="155.5" y1="88.4" x2="17.8" y2="88.4"/>
		<line class="st7" x1="155.5" y1="93.6" x2="17.8" y2="93.6"/>
		<line class="st7" x1="155.5" y1="98.8" x2="17.8" y2="98.8"/>
		<line class="st7" x1="155.5" y1="104.1" x2="17.8" y2="104.1"/>
		<line class="st7" x1="155.5" y1="109.3" x2="17.8" y2="109.3"/>
		<line class="st7" x1="155.5" y1="114.5" x2="17.8" y2="114.5"/>
		<line class="st7" x1="155.5" y1="119.8" x2="17.8" y2="119.8"/>
		<line class="st7" x1="155.5" y1="125" x2="17.8" y2="125"/>
		<line class="st7" x1="155.5" y1="130.3" x2="17.8" y2="130.3"/>
		<line class="st8" x1="155.5" y1="135.5" x2="17.8" y2="135.5"/>
		<line class="st7" x1="155.2" y1="138.8" x2="155.5" y2="83"/>
		<line class="st7" x1="133" y1="138.8" x2="133.3" y2="83"/>
		<line class="st7" x1="110.8" y1="138.8" x2="111.1" y2="83"/>
		<line class="st7" x1="88.6" y1="138.8" x2="88.9" y2="83"/>
		<line class="st7" x1="66.4" y1="138.8" x2="66.8" y2="83"/>
		<line class="st7" x1="44.2" y1="138.8" x2="44.6" y2="83"/>
		<line class="st8" x1="22" y1="138.8" x2="22.4" y2="83"/>
		<path class="st9" d="M22.4,125c0,0,42.3-26.3,66.4-10.5s66.8-10.5,66.8-10.5"/>
		<path class="st10" d="M22.1,119.8c0,0,31.1,6.5,66.8-15.7s66.6,31.4,66.6,31.4"/>
		<path class="st11" d="M22.1,109.3c0,0,19.9,18,66.7-10.6c0,0,23.4-14.4,44.5,5.4c6,5.6,13.9,9,22.1,11"/>
	</g>
	<circle class="st12" cx="22.4" cy="109.4" r="0.7"/>
	<circle class="st12" cx="44.3" cy="114.7" r="0.7"/>
	<circle class="st12" cx="66.6" cy="109.9" r="0.7"/>
	<circle class="st12" cx="88.8" cy="98.5" r="0.7"/>
	<circle class="st12" cx="111.1" cy="93.7" r="0.7"/>
	<circle class="st12" cx="133.4" cy="104.2" r="0.7"/>
	<circle class="st12" cx="155.3" cy="115.1" r="0.7"/>
	<circle class="st13" cx="22.4" cy="119.9" r="0.7"/>
	<circle class="st13" cx="44.3" cy="119.9" r="0.7"/>
	<circle class="st13" cx="66.6" cy="114.7" r="0.7"/>
	<circle class="st13" cx="88.8" cy="104.2" r="0.7"/>
	<circle class="st13" cx="111.1" cy="98.9" r="0.7"/>
	<circle class="st13" cx="133" cy="109.4" r="0.7"/>
	<circle class="st13" cx="155.3" cy="135.2" r="0.7"/>
	<circle class="st14" cx="22.4" cy="125.2" r="0.7"/>
	<circle class="st14" cx="44.7" cy="114.2" r="0.7"/>
	<circle class="st14" cx="66.6" cy="109.4" r="0.7"/>
	<circle class="st14" cx="88.8" cy="114.7" r="0.7"/>
	<circle class="st14" cx="110.7" cy="119.5" r="0.7"/>
	<circle class="st14" cx="133" cy="114.7" r="0.7"/>
	<circle class="st14" cx="155.3" cy="104.2" r="0.7"/>
	<rect x="24.4" y="71.6" class="st12" width="14" height="4.4"/>
	<text transform="matrix(1 0 0 1 40.0082 75.2216)" class="st0 st3 st15">Asistencia</text>
	<rect x="65.9" y="71.6" class="st13" width="14" height="4.4"/>
	<text transform="matrix(1 0 0 1 81.5415 75.2216)" class="st0 st3 st15">Actividades</text>
	<rect x="106.6" y="71.6" class="st14" width="14" height="4.4"/>
	<text transform="matrix(1 0 0 1 122.1997 75.2216)" class="st0 st3 st15">Participaciones</text>
	<text transform="matrix(1 0 0 1 10.8491 84.4799)" class="st0 st3 st15">100</text>
	<text transform="matrix(1 0 0 1 13.0346 89.7265)" class="st0 st3 st15">90</text>
	<text transform="matrix(1 0 0 1 13.0346 94.9726)" class="st0 st3 st15">80</text>
	<text transform="matrix(1 0 0 1 13.0346 100.2187)" class="st0 st3 st15">70</text>
	<text transform="matrix(1 0 0 1 13.0346 105.4653)" class="st0 st3 st15">60</text>
	<text transform="matrix(1 0 0 1 13.0346 110.7119)" class="st0 st3 st15">50</text>
	<text transform="matrix(1 0 0 1 13.0346 115.958)" class="st0 st3 st15">40</text>
	<text transform="matrix(1 0 0 1 13.0346 121.204)" class="st0 st3 st15">30</text>
	<text transform="matrix(1 0 0 1 13.0346 126.4506)" class="st0 st3 st15">20</text>
	<text transform="matrix(1 0 0 1 13.0346 131.6972)" class="st0 st3 st15">10</text>
	<text transform="matrix(1 0 0 1 15.2211 137.3803)" class="st0 st3 st15">0</text>
	<text transform="matrix(1 0 0 1 149.0014 143.3515)" class="st0 st3 st15">Agosto</text>
	<text transform="matrix(1 0 0 1 128.7885 143.3515)" class="st0 st3 st15">Julio</text>
	<text transform="matrix(1 0 0 1 105.8334 143.3515)" class="st0 st3 st15">Junio</text>
	<text transform="matrix(1 0 0 1 83.8647 143.3515)" class="st0 st3 st15">Mayo</text>
	<text transform="matrix(1 0 0 1 62.4467 143.3515)" class="st0 st3 st15">Abril</text>
	<text transform="matrix(1 0 0 1 38.6147 143.3515)" class="st0 st3 st15">Marzo</text>
	<text transform="matrix(1 0 0 1 14.893 143.3515)" class="st0 st3 st15">Febrero</text>
</g>
<polygon class="st16" points="27.3,181.4 15.8,181.4 9.6,171.6 15,161.8 27.3,161.8 141,161.8 152.6,161.8 158.7,171.6 153.3,181.4 
	141,181.4 "/>
<g>
	<g>
		<path class="st0" d="M65.7,168.9h0.6l1.5,4.9h-0.9l-0.9-3.3l-0.9,3.3h-0.9L65.7,168.9z M65,172.1h1.9v0.8H65V172.1z"/>
		<path class="st0" d="M68.8,173.6c-0.2-0.1-0.4-0.2-0.5-0.4c-0.1-0.2-0.2-0.4-0.2-0.7v-1c0-0.3,0.1-0.5,0.2-0.7s0.3-0.3,0.5-0.4
			c0.2-0.1,0.4-0.2,0.7-0.2c0.2,0,0.4,0,0.6,0.1s0.3,0.2,0.4,0.3c0.1,0.1,0.2,0.3,0.2,0.5l-0.8,0.3c0-0.1-0.1-0.3-0.1-0.3
			s-0.2-0.1-0.3-0.1c-0.1,0-0.2,0-0.3,0.1c-0.1,0.1-0.1,0.2-0.1,0.4v0.9c0,0.2,0,0.3,0.1,0.4s0.2,0.1,0.3,0.1c0.1,0,0.2,0,0.3-0.1
			c0.1-0.1,0.1-0.2,0.1-0.3l0.8,0.3c0,0.2-0.1,0.4-0.2,0.5c-0.1,0.1-0.2,0.2-0.4,0.3c-0.2,0.1-0.4,0.1-0.6,0.1
			C69.2,173.8,69,173.7,68.8,173.6z"/>
		<path class="st0" d="M71.8,173.6c-0.2-0.1-0.4-0.2-0.5-0.4c-0.1-0.2-0.2-0.4-0.2-0.7v-1c0-0.3,0.1-0.5,0.2-0.7s0.3-0.3,0.5-0.4
			c0.2-0.1,0.4-0.2,0.7-0.2c0.2,0,0.4,0,0.6,0.1s0.3,0.2,0.4,0.3c0.1,0.1,0.2,0.3,0.2,0.5l-0.8,0.3c0-0.1-0.1-0.3-0.1-0.3
			s-0.2-0.1-0.3-0.1c-0.1,0-0.2,0-0.3,0.1c-0.1,0.1-0.1,0.2-0.1,0.4v0.9c0,0.2,0,0.3,0.1,0.4s0.2,0.1,0.3,0.1c0.1,0,0.2,0,0.3-0.1
			c0.1-0.1,0.1-0.2,0.1-0.3l0.8,0.3c0,0.2-0.1,0.4-0.2,0.5c-0.1,0.1-0.2,0.2-0.4,0.3c-0.2,0.1-0.4,0.1-0.6,0.1
			C72.2,173.8,72,173.7,71.8,173.6z"/>
		<path class="st0" d="M74.8,173.6c-0.2-0.1-0.4-0.3-0.5-0.5s-0.2-0.4-0.2-0.7v-0.9c0-0.3,0.1-0.5,0.2-0.7c0.1-0.2,0.3-0.4,0.4-0.5
			c0.2-0.1,0.4-0.2,0.7-0.2c0.3,0,0.5,0.1,0.7,0.2c0.2,0.1,0.3,0.3,0.4,0.5s0.1,0.5,0.1,0.8v0.6h-1.9v-0.6h1.1v-0.2
			c0-0.1,0-0.3-0.1-0.4c-0.1-0.1-0.2-0.1-0.3-0.1c-0.1,0-0.3,0-0.4,0.1c-0.1,0.1-0.1,0.2-0.1,0.4v0.9c0,0.2,0,0.3,0.1,0.4
			c0.1,0.1,0.2,0.1,0.4,0.1c0.1,0,0.2,0,0.3-0.1s0.1-0.1,0.2-0.3l0.7,0.3c-0.1,0.3-0.2,0.5-0.4,0.6s-0.5,0.2-0.8,0.2
			C75.2,173.8,75,173.7,74.8,173.6z"/>
		<path class="st0" d="M77.8,173.6c-0.1-0.1-0.2-0.2-0.3-0.4c-0.1-0.2-0.1-0.4-0.1-0.7v-1.1c0-0.3,0-0.5,0.1-0.7
			c0.1-0.2,0.2-0.3,0.3-0.4s0.3-0.1,0.5-0.1c0.2,0,0.3,0.1,0.5,0.2c0.1,0.1,0.3,0.3,0.3,0.5l-0.1,0.6c0-0.1,0-0.2,0-0.2
			c0-0.1-0.1-0.1-0.1-0.1c-0.1,0-0.1-0.1-0.2-0.1c-0.1,0-0.2,0-0.3,0.1s-0.1,0.2-0.1,0.4v1c0,0.2,0,0.3,0.1,0.4s0.2,0.1,0.3,0.1
			c0.1,0,0.2,0,0.2-0.1c0.1,0,0.1-0.1,0.1-0.1c0-0.1,0-0.1,0-0.2l0,0.6c-0.1,0.2-0.2,0.3-0.3,0.4c-0.1,0.1-0.3,0.2-0.5,0.2
			C78.1,173.8,77.9,173.7,77.8,173.6z M79,168.9h0.9v4.9H79V168.9z"/>
		<path class="st0" d="M81.2,173.6c-0.2-0.1-0.4-0.3-0.5-0.5s-0.2-0.4-0.2-0.7v-0.9c0-0.3,0.1-0.5,0.2-0.7c0.1-0.2,0.3-0.4,0.4-0.5
			c0.2-0.1,0.4-0.2,0.7-0.2c0.3,0,0.5,0.1,0.7,0.2c0.2,0.1,0.3,0.3,0.4,0.5s0.1,0.5,0.1,0.8v0.6h-1.9v-0.6h1.1v-0.2
			c0-0.1,0-0.3-0.1-0.4c-0.1-0.1-0.2-0.1-0.3-0.1c-0.1,0-0.3,0-0.4,0.1c-0.1,0.1-0.1,0.2-0.1,0.4v0.9c0,0.2,0,0.3,0.1,0.4
			c0.1,0.1,0.2,0.1,0.4,0.1c0.1,0,0.2,0,0.3-0.1s0.1-0.1,0.2-0.3l0.7,0.3c-0.1,0.3-0.2,0.5-0.4,0.6s-0.5,0.2-0.8,0.2
			C81.6,173.8,81.4,173.7,81.2,173.6z"/>
		<path class="st0" d="M83.9,170.3h0.9v3.5h-0.9V170.3z M85.5,171.1c-0.1,0-0.1,0-0.2,0c-0.2,0-0.3,0.1-0.4,0.2s-0.2,0.3-0.2,0.5
			l-0.1-0.9c0.1-0.2,0.2-0.4,0.4-0.5c0.2-0.1,0.3-0.2,0.5-0.2c0.1,0,0.1,0,0.2,0c0.1,0,0.1,0.1,0.2,0.1l-0.3,0.8
			C85.6,171.1,85.6,171.1,85.5,171.1z"/>
		<path class="st0" d="M87.6,173.5c-0.2-0.2-0.2-0.4-0.2-0.8c0-0.4,0.1-0.6,0.3-0.8s0.5-0.3,0.9-0.3h0.6l0,0.7h-0.6
			c-0.1,0-0.2,0-0.3,0.1s-0.1,0.2-0.1,0.3c0,0.1,0,0.2,0.1,0.2c0.1,0.1,0.2,0.1,0.3,0.1c0.2,0,0.3,0,0.4-0.1s0.1-0.2,0.1-0.3
			l0.1,0.4c0,0.1-0.1,0.3-0.1,0.4s-0.2,0.2-0.3,0.2s-0.3,0.1-0.4,0.1C88,173.8,87.8,173.7,87.6,173.5z M89.1,171.4
			c0-0.1,0-0.2-0.1-0.3s-0.2-0.1-0.3-0.1c-0.1,0-0.2,0-0.3,0.1c-0.1,0-0.2,0.1-0.2,0.2l-0.7-0.3c0.1-0.2,0.2-0.4,0.4-0.6
			s0.5-0.2,0.8-0.2c0.3,0,0.5,0,0.7,0.1s0.3,0.2,0.4,0.4s0.1,0.4,0.1,0.6v2.4h-0.8V171.4z"/>
		<path class="st0" d="M92.7,172.6c0,0.1,0,0.1,0.1,0.2c0,0,0.1,0.1,0.2,0.1h0.1v0.8h-0.4c-0.3,0-0.5-0.1-0.6-0.2s-0.2-0.4-0.2-0.7
			v-4h0.9V172.6z"/>
		<path class="st0" d="M93.7,173.5c-0.2-0.2-0.2-0.4-0.2-0.8c0-0.4,0.1-0.6,0.3-0.8s0.5-0.3,0.9-0.3h0.6l0,0.7h-0.6
			c-0.1,0-0.2,0-0.3,0.1s-0.1,0.2-0.1,0.3c0,0.1,0,0.2,0.1,0.2c0.1,0.1,0.2,0.1,0.3,0.1c0.2,0,0.3,0,0.4-0.1s0.1-0.2,0.1-0.3
			l0.1,0.4c0,0.1-0.1,0.3-0.1,0.4s-0.2,0.2-0.3,0.2s-0.3,0.1-0.4,0.1C94.1,173.8,93.9,173.7,93.7,173.5z M95.2,171.4
			c0-0.1,0-0.2-0.1-0.3s-0.2-0.1-0.3-0.1c-0.1,0-0.2,0-0.3,0.1c-0.1,0-0.2,0.1-0.2,0.2l-0.7-0.3c0.1-0.2,0.2-0.4,0.4-0.6
			s0.5-0.2,0.8-0.2c0.3,0,0.5,0,0.7,0.1s0.3,0.2,0.4,0.4s0.1,0.4,0.1,0.6v2.4h-0.8V171.4z"/>
		<path class="st0" d="M97.9,168.9h0.9v4.9h-0.9V168.9z M98.3,168.9h2.3v0.8h-2.3V168.9z M98.3,170.9h2.1v0.8h-2.1V170.9z"/>
		<path class="st0" d="M100.9,172.9h0.9v0.9h-0.9V172.9z"/>
		<path class="st0" d="M103.1,173.6c-0.2-0.1-0.4-0.3-0.5-0.5s-0.2-0.5-0.2-0.8v-2c0-0.3,0.1-0.6,0.2-0.8c0.1-0.2,0.3-0.4,0.5-0.5
			c0.2-0.1,0.5-0.2,0.8-0.2c0.3,0,0.6,0.1,0.8,0.2c0.2,0.1,0.4,0.3,0.5,0.5c0.1,0.2,0.2,0.5,0.2,0.8v2c0,0.3-0.1,0.6-0.2,0.8
			s-0.3,0.4-0.5,0.5c-0.2,0.1-0.5,0.2-0.8,0.2C103.6,173.8,103.3,173.7,103.1,173.6z M104.2,172.8c0.1-0.1,0.2-0.1,0.2-0.2
			s0.1-0.2,0.1-0.3v-1.9c0-0.1,0-0.2-0.1-0.3s-0.1-0.2-0.2-0.2s-0.2-0.1-0.3-0.1c-0.1,0-0.2,0-0.3,0.1s-0.2,0.1-0.2,0.2
			c-0.1,0.1-0.1,0.2-0.1,0.3v1.9c0,0.1,0,0.2,0.1,0.3c0,0.1,0.1,0.2,0.2,0.2c0.1,0.1,0.2,0.1,0.3,0.1
			C104,172.9,104.1,172.9,104.2,172.8z"/>
	</g>
</g>
<circle class="st0" cx="69.2" cy="43.3" r="3.9"/>
<path class="st17" d="M69.2,39.1c-2.4,0-4.3,1.9-4.3,4.3c0,2.4,1.9,4.3,4.3,4.3c2.4,0,4.3-1.9,4.3-4.3C73.5,41,71.5,39.1,69.2,39.1z
	 M69.2,40.8c0.9,0,1.5,0.7,1.5,1.5s-0.7,1.5-1.5,1.5s-1.5-0.7-1.5-1.5C67.7,41.4,68.3,40.8,69.2,40.8z M69.2,46.7
	c-1,0-1.9-0.4-2.5-1.2c0.3-0.6,1-1,1.7-1c0,0,0.1,0,0.1,0c0.2,0.1,0.4,0.1,0.7,0.1s0.5,0,0.7-0.1c0,0,0.1,0,0.1,0
	c0.7,0,1.4,0.4,1.7,1C71.1,46.2,70.2,46.7,69.2,46.7z"/>
</svg>
