<?xml version="1.0" encoding="utf-8"?>
<!-- Generator: Adobe Illustrator 24.1.1, SVG Export Plug-In . SVG Version: 6.00 Build 0)  -->
<svg version="1.1" id="Capa_1" xmlns="http://www.w3.org/2000/svg" xmlns:xlink="http://www.w3.org/1999/xlink" x="0px" y="0px"
	 viewBox="0 0 866.4 150.9" style="enable-background:new 0 0 866.4 150.9;" xml:space="preserve">
<style type="text/css">
	.st0{fill:#FBB4BC;}
	.st1{opacity:0.31;fill:url(#SVGID_1_);}
	.st2{fill:#FEFEFE;}
	.st3{opacity:0.5;fill:#FEFEFE;}
	.st4{opacity:0.75;fill:#FEFEFE;}
	.st5{fill:#F87582;}
	.st6{opacity:0.82;}
	.st7{fill:#FFFFFF;}
	.st8{font-family:'ArialNarrow-Bold';}
	.st9{font-size:9.4061px;}
	.st10{fill:#FDE886;}
	.st11{fill:#6E4A3C;}
	.st12{fill:none;stroke:#6E4A3C;stroke-width:0.2;stroke-miterlimit:10;}
	.st13{opacity:0.38;fill:#FFFFFF;}
	.st14{opacity:0.18;fill:#6E4A3C;}
	.st15{fill:none;stroke:#6E4A3C;stroke-miterlimit:10;}
	.st16{fill:#272E51;}
	.st17{opacity:0.16;fill:url(#SVGID_2_);}
	.st18{fill:#F8B318;}
	.st19{opacity:0.54;fill:#F8B318;}
	.st20{opacity:0.75;fill:#F8B318;}
	.st21{fill:#FC7A00;}
	.st22{font-size:9.9714px;}
	.st23{fill:#DD012E;}
	.st24{fill:#FFE010;}
	.st25{fill:#2C2E45;}
	.st26{fill:#D80165;}
	.st27{opacity:0.75;fill:#D80165;}
	.st28{font-size:10.5515px;}
	.st29{fill:#F70D82;}
</style>
<polygon class="st0" points="819.5,55.1 46.8,55.1 46.8,0 557.7,0 819.5,0 "/>
<linearGradient id="SVGID_1_" gradientUnits="userSpaceOnUse" x1="46.8481" y1="27.5742" x2="781.322" y2="27.5742">
	<stop  offset="0" style="stop-color:#315CB0;stop-opacity:0"/>
	<stop  offset="7.510634e-02" style="stop-color:#6686C4;stop-opacity:0.1453"/>
	<stop  offset="0.1513" style="stop-color:#94ABD6;stop-opacity:0.2928"/>
	<stop  offset="0.2278" style="stop-color:#BBC9E5;stop-opacity:0.4408"/>
	<stop  offset="0.3032" style="stop-color:#D9E1F0;stop-opacity:0.5867"/>
	<stop  offset="0.3772" style="stop-color:#EEF1F8;stop-opacity:0.7299"/>
	<stop  offset="0.4491" style="stop-color:#FBFCFD;stop-opacity:0.8691"/>
	<stop  offset="0.5168" style="stop-color:#FFFFFF"/>
	<stop  offset="0.6218" style="stop-color:#FCFEFE;stop-opacity:0.7826"/>
	<stop  offset="0.6991" style="stop-color:#F3FAFD;stop-opacity:0.6226"/>
	<stop  offset="0.7676" style="stop-color:#E3F4FA;stop-opacity:0.481"/>
	<stop  offset="0.8309" style="stop-color:#CCEBF6;stop-opacity:0.35"/>
	<stop  offset="0.8907" style="stop-color:#AFE0F0;stop-opacity:0.2263"/>
	<stop  offset="0.947" style="stop-color:#8CD2EA;stop-opacity:0.1097"/>
	<stop  offset="1" style="stop-color:#63C2E2;stop-opacity:0"/>
</linearGradient>
<polygon class="st1" points="781.3,55.1 46.8,55.1 46.8,0 532.5,0 781.3,0 "/>
<rect x="92.4" class="st2" width="726.6" height="28.8"/>
<rect x="56.2" y="19" transform="matrix(6.123234e-17 -1 1 6.123234e-17 27.8789 111.3807)" class="st3" width="26.9" height="45.5"/>
<rect x="46.6" y="0" class="st4" width="45.8" height="28.3"/>
<path class="st5" d="M812.6,24.3h-59.9c-1.6,0-2.9-1.3-2.9-2.9V8c0-1.6,1.3-2.9,2.9-2.9h59.9c1.6,0,2.9,1.3,2.9,2.9v13.4
	C815.5,23,814.2,24.3,812.6,24.3z"/>
<g class="st6">
	<text transform="matrix(0.8826 0 0 1 764.1989 17.6708)" class="st7 st8 st9">Registrarse</text>
</g>
<path class="st5" d="M740.6,24.3h-59.8c-1.6,0-2.9-1.3-2.9-2.9V8.1c0-1.6,1.3-2.9,2.9-2.9h59.8c1.6,0,2.9,1.3,2.9,2.9v13.3
	C743.5,23,742.2,24.3,740.6,24.3z"/>
<g class="st6">
	<text transform="matrix(0.8826 0 0 1 689.8503 17.7255)" class="st7 st8 st9">Iniciar sesión</text>
</g>
<path class="st10" d="M63.9,9.1c0,0,0.6-2,1.8-3.8c1.2-1.8,2.7-3.5,4.7,0.5c2,4,1.6,3.3,1.6,3.3s11.3-0.4,8,3.5S75.2,17,75.2,17
	s2.5,10.5-1.6,8c-4.1-2.5-5.9-4.6-5.9-4.6s-8.2,8.6-8,3.3c0.2-5.3,0.9-6.6,0.9-6.6s-8-5.9-3.2-7.2S63.9,9.1,63.9,9.1z"/>
<circle class="st11" cx="63.7" cy="13.2" r="0.5"/>
<circle class="st11" cx="72.4" cy="13.2" r="0.5"/>
<path class="st12" d="M66.3,15.6c0,0-0.5,1.6,1.5,1.6c2,0,1.8-1.6,1.8-1.6"/>
<path class="st13" d="M67.9,3.4l0,1.4c0,0-1.1,2.6-2.6,4.9s-7.1,0-9.4,1.8l0.1-0.8l0.4-0.4l0.6-0.3l1.4-0.4L61,9.2l2-0.2l1,0.1
	l0.7-2.1l0.9-1.7l0.6-0.8L67,3.8L67.9,3.4z"/>
<path class="st14" d="M67.9,3.4v1.4c0,0,1.5,1.8,2.1,3.5c0.6,1.8,1.8,1.6,2.4,0.8l-0.5-0.3l-0.5-1l-1.2-2l-0.5-1.3l-0.8-0.8
	L67.9,3.4z"/>
<path class="st13" d="M80.6,11.6c0,0-4.3,0.1-9.4-1.9l0.7-0.1l0.2-0.1l0.3-0.4h0.6H74l1.9,0.2l1,0.1c0,0,1.1,0.2,1.2,0.2
	c0.1,0.1,0.3,0,0.6,0.1s1,0.4,1,0.4s0.4,0.3,0.5,0.4S80.6,11.6,80.6,11.6z"/>
<path class="st14" d="M75.5,16.9c0,0-2,0-1.1-0.7c0.9-0.7,4-3.6,4.4-4.6c0,0,1.1,0.2,1.8-0.4c0,0-0.1,0.9-0.2,1
	c-0.1,0.1-0.3,0.7-0.3,0.6c0-0.1-1,1.1-1,1.1s-0.4,0.4-0.6,0.7c-0.2,0.3-1,1-1,1l-0.8,0.6c0,0-0.5,0.5-0.7,0.6
	C75.6,16.7,75.5,16.9,75.5,16.9z"/>
<path class="st13" d="M74.2,25.3c0,0,0.8-1.8,0-8.9l1,0.4l0.2,0.8l0.2,1.1c0,0,0.5,1.5,0.4,1.7c-0.2,0.3,0,1.6,0,1.6V23l-0.1,1.8
	l-0.8,0.5L74.2,25.3z"/>
<path class="st14" d="M57.4,11c0,0-0.7,0.1-1.5,0.6l1.1,1.8c0,0,0.2,0.5,0.5,0.9s1,1,1,1s0.2,0.1,0.4,0.4c0.3,0.3,0.7,0.6,0.7,0.6
	l1.1,1c0,0,0.7-0.7-1.4-3.1S57.4,11,57.4,11z"/>
<path class="st13" d="M60.9,16.8c0,0-0.7,7.1,0.6,7.9l0.4,0.4c0,0-0.2,0.1-0.5,0.2c-0.3,0.1-1.2,0-1.2,0l-0.5-1.2l0.1-2l0.1-1.4
	l0.2-1.5l0.4-1.6L60.9,16.8z"/>
<path class="st14" d="M67.9,20.5c0,0,0.5-1.1-1.6-0.2c-2.1,0.8-2.7,3.1-5.2,3.8l0.2,0.4l0.3,0.3l0.4,0.4l1.7-1l1.1-0.9l0.5-0.7
	l0.8-0.8l0.9-0.6L67.9,20.5z"/>
<path class="st14" d="M74.5,23.6c0,0-2.5-1-4.9-3.1S67.7,20,67.7,20l0.9,1.6l0.6,0.4l0.9,0.3c0,0,0.5,0.8,0.6,0.9
	c0.1,0.1,0.7,0.4,0.7,0.5s0.9,1,1,0.9c0.1-0.1,0.5,0.1,0.5,0.1S74.5,26.2,74.5,23.6z"/>
<path class="st15" d="M63.9,9.1c0,0,0.6-2,1.8-3.8c1.2-1.8,2.7-3.5,4.7,0.5c2,4,1.6,3.3,1.6,3.3s11.3-0.4,8,3.5S75.2,17,75.2,17
	s2.5,10.5-1.6,8c-4.1-2.5-5.9-4.6-5.9-4.6s-8.2,8.6-8,3.3c0.2-5.3,0.9-6.6,0.9-6.6s-8-5.9-3.2-7.2S63.9,9.1,63.9,9.1z"/>
<polygon class="st16" points="842.7,123.1 23.7,123.1 23.7,52.4 565.2,52.4 842.7,52.4 "/>
<linearGradient id="SVGID_2_" gradientUnits="userSpaceOnUse" x1="23.6514" y1="87.7916" x2="802.2596" y2="87.7916">
	<stop  offset="0" style="stop-color:#315CB0;stop-opacity:0"/>
	<stop  offset="3.555340e-02" style="stop-color:#476EB9;stop-opacity:6.880063e-02"/>
	<stop  offset="0.1187" style="stop-color:#7594CB;stop-opacity:0.2296"/>
	<stop  offset="0.202" style="stop-color:#9CB3DA;stop-opacity:0.3908"/>
	<stop  offset="0.2841" style="stop-color:#BACBE5;stop-opacity:0.5497"/>
	<stop  offset="0.3647" style="stop-color:#CFDCED;stop-opacity:0.7057"/>
	<stop  offset="0.4431" style="stop-color:#DCE7F2;stop-opacity:0.8574"/>
	<stop  offset="0.5168" style="stop-color:#E0EAF4"/>
	<stop  offset="0.6311" style="stop-color:#DDE9F4;stop-opacity:0.7633"/>
	<stop  offset="0.7153" style="stop-color:#D4E6F2;stop-opacity:0.5891"/>
	<stop  offset="0.7899" style="stop-color:#C4E1F0;stop-opacity:0.4349"/>
	<stop  offset="0.8588" style="stop-color:#ADDAED;stop-opacity:0.2922"/>
	<stop  offset="0.9238" style="stop-color:#90D0E8;stop-opacity:0.1576"/>
	<stop  offset="0.9852" style="stop-color:#6DC5E3;stop-opacity:3.062010e-02"/>
	<stop  offset="1" style="stop-color:#63C2E2;stop-opacity:0"/>
</linearGradient>
<polygon class="st17" points="802.3,123.1 23.7,123.1 23.7,52.4 538.5,52.4 802.3,52.4 "/>
<rect x="71.9" y="52.4" class="st18" width="770.8" height="30.6"/>
<rect x="27.4" y="78.7" transform="matrix(6.123234e-17 -1 1 6.123234e-17 -55.0262 150.63)" class="st19" width="40.8" height="48.2"/>
<rect x="23.4" y="52.4" class="st20" width="48.6" height="30"/>
<path class="st21" d="M828.3,78.2H779c-5.6,0-10.2-4.6-10.2-10.2v0c0-5.6,4.6-10.2,10.2-10.2h49.3c5.6,0,10.2,4.6,10.2,10.2v0
	C838.5,73.6,833.9,78.2,828.3,78.2z"/>
<g class="st6">
	<text transform="matrix(0.8826 0 0 1 784.1082 71.1761)" class="st7 st8 st22">Registrarse</text>
</g>
<path class="st21" d="M752,78.2h-49.3c-5.6,0-10.2-4.6-10.2-10.2v0c0-5.6,4.6-10.2,10.2-10.2H752c5.6,0,10.2,4.6,10.2,10.2v0
	C762.2,73.7,757.6,78.2,752,78.2z"/>
<g class="st6">
	<text transform="matrix(0.8826 0 0 1 705.2918 71.2338)" class="st7 st8 st22">Iniciar sesión</text>
</g>
<path class="st23" d="M43.3,59.2c-3.4,1.6-5.7,5-5.7,8.9c0,5.4,4.4,9.9,9.9,9.9s9.9-4.4,9.9-9.9s-4.4-9.9-9.9-9.9
	C45.9,58.3,44.6,58.6,43.3,59.2l-0.4,0.2l1.4,2.6l0.6-0.2c0.8-0.3,1.7-0.5,2.6-0.5c3.8,0,6.8,3,6.8,6.8s-3,6.8-6.8,6.8
	c-3.8,0-6.8-3-6.8-6.8c0-2.8,1.7-5.2,4.2-6.3l0.6-0.3l-1.4-2.7L43.3,59.2z"/>
<path class="st24" d="M42.5,58.9c-3.4,1.6-5.7,5-5.7,8.9c0,5.4,4.4,9.9,9.9,9.9s9.9-4.4,9.9-9.9S52.1,58,46.6,58
	C45.2,58,43.8,58.3,42.5,58.9l-0.4,0.2l1.4,2.6l0.6-0.2c0.8-0.3,1.7-0.5,2.6-0.5c3.8,0,6.8,3,6.8,6.8s-3,6.8-6.8,6.8
	c-3.8,0-6.8-3-6.8-6.8c0-2.8,1.7-5.2,4.2-6.3l0.6-0.3l-1.4-2.7L42.5,58.9z"/>
<polygon class="st25" points="866.4,150.9 0,150.9 0,118.6 572.9,118.6 866.4,118.6 "/>
<rect x="51.4" y="118.6" class="st26" width="815" height="32.4"/>
<rect y="118.6" class="st27" width="51.4" height="31.7"/>
<polygon class="st25" points="714,146.5 703.1,146.5 697.2,134.9 702.4,123.2 714,123.2 759.5,123.2 770.5,123.2 776.4,134.9 
	771.2,146.5 759.5,146.5 "/>
<polygon class="st25" points="799.1,146.5 788.1,146.5 782.2,134.8 787.4,123.2 799.1,123.2 844.6,123.2 855.5,123.2 861.4,134.8 
	856.2,146.5 844.6,146.5 "/>
<g class="st6">
	<text transform="matrix(0.8826 0 0 1 801.1843 138.3471)" class="st7 st8 st28">Registrarse</text>
</g>
<g class="st6">
	<text transform="matrix(0.8826 0 0 1 713.9743 138.4072)" class="st7 st8 st28">Iniciar sesión</text>
</g>
<polygon class="st29" points="22.9,131.4 22.9,130.3 22,130.3 22,128.5 20.8,128.5 20.8,129.4 20,129.4 20,130.4 21.9,130.4 
	21.9,131.4 "/>
<polygon class="st29" points="28.6,133.2 26.6,133.2 26.6,135.4 27.7,135.4 27.7,134.4 28.8,134.4 28.8,133.2 28.6,133.2 
	28.4,133.2 28.4,132.7 28.6,132.6 29.6,132.6 29.6,135.2 28.7,135.2 28.7,137.2 27.7,137.2 27.7,138.1 26.9,138.1 26.9,137.2 
	24.6,137.2 24.6,138.1 23.8,138.1 23.8,137.2 22.9,137.2 22.9,135.4 21.9,135.4 21.9,132.6 22.9,132.6 23.3,132.6 23.1,133.2 
	22.9,133.2 22.8,133.2 22.8,134.4 23.8,134.4 23.8,135.4 24.9,135.4 24.9,133.2 22.9,133.2 22.6,133.2 22.8,132.7 22.9,132.6 
	23.1,132.6 23.1,131.6 24,131.6 24,130.5 27.7,130.5 27.7,131.6 28.4,131.6 28.4,132.6 28.6,132.6 28.9,132.6 28.8,133.2 "/>
<polygon class="st29" points="28.5,131.5 29.6,131.5 29.6,130.5 31.4,130.5 31.4,129.4 30.5,129.4 30.5,128.5 29.5,128.5 
	29.5,130.5 28.5,130.5 "/>
<polygon class="st29" points="28.8,137.3 28.8,138.3 29.7,138.3 29.7,140.2 30.8,140.2 30.8,139.3 31.7,139.3 31.7,138.3 
	29.8,138.3 29.8,137.3 "/>
<polygon class="st29" points="22.8,137.3 21.8,137.3 21.8,138.2 19.9,138.2 19.9,139.3 20.8,139.3 20.8,140.2 21.8,140.2 
	21.8,138.3 22.8,138.3 "/>
<path class="st29" d="M26.6,123c-0.6-0.4-1-0.6-1-0.6L14,129v10.7l11.6,6.8l11.5-6.9V129c0,0-7.4-4.2-10.3-5.9l-0.4-0.1l-0.5,0.8
	l0.4,0.3c2.3,1.4,9.6,5.5,9.6,5.5v9.5l-10.2,6.2l-10.4-6.1v-9.6l10.4-5.9c0,0,0.2,0.1,0.5,0.4l0.6,0.3l0.5-0.9L26.6,123z"/>
</svg>
