<svg id="Capa_1" data-name="Capa 1" xmlns="http://www.w3.org/2000/svg" viewBox="0 0 166.79 35.45"><defs><style>.cls-1,.cls-8{fill:#fff;}.cls-2{fill:#111;}.cls-3{font-size:6.74px;stroke:#000;stroke-miterlimit:10;stroke-width:0.2px;font-family:MyriadPro-Regular, Myriad Pro;}.cls-4{fill:#0a0a0a;}.cls-5{fill:#d80165;}.cls-6{fill:#2c2e45;}.cls-7{opacity:0.82;}.cls-8{font-size:5.12px;font-family:ArialNarrow-Bold, Arial;font-weight:700;}</style></defs><rect class="cls-1" width="166.79" height="13.36"/><path class="cls-2" d="M37.89,0V3.22c0,5.6,5,10.14,11.19,10.14H118.9c6.18,0,11.19-4.54,11.19-10.14V0"/><text class="cls-3" transform="translate(13 9.23) scale(0.99 1)">9:41</text><rect class="cls-4" x="137.25" y="6.06" width="1.22" height="3.12"/><rect class="cls-4" x="138.86" y="5" width="1.22" height="4.13"/><rect class="cls-4" x="135.6" y="6.89" width="1.22" height="2.28"/><rect class="cls-4" x="133.99" y="7.59" width="1.22" height="1.58"/><path d="M158.55,6.08v.78h.38v.77h-.38v.78h-5.81V6.08h5.81m.19-.78h-6.19a.58.58,0,0,0-.58.58V8.61a.58.58,0,0,0,.58.58h6.19a.58.58,0,0,0,.58-.58v-.2h.1a.29.29,0,0,0,.29-.29V6.37a.29.29,0,0,0-.29-.29h-.1v-.2A.58.58,0,0,0,158.74,5.3Zm-.58,1.17h-5V8h5Z"/><path d="M149.4,6.14a4.23,4.23,0,0,0-5.78,0,.15.15,0,0,0,0,.21l.32.32a.14.14,0,0,0,.2,0,3.51,3.51,0,0,1,4.76,0,.14.14,0,0,0,.2,0l.32-.32a.14.14,0,0,0,0-.21ZM146.51,8a.59.59,0,0,0-.59.59.6.6,0,0,0,.59.59.59.59,0,0,0,.59-.59A.58.58,0,0,0,146.51,8Zm1.86-.78a2.81,2.81,0,0,0-3.72,0,.15.15,0,0,0,0,.22l.32.31a.14.14,0,0,0,.2,0,2.06,2.06,0,0,1,2.7,0,.14.14,0,0,0,.2,0l.32-.31A.15.15,0,0,0,148.37,7.19Z"/><rect class="cls-5" y="13.23" width="166.79" height="22.22"/><polygon class="cls-6" points="89.81 29.56 84.48 29.56 81.63 23.92 84.14 18.28 89.81 18.28 111.87 18.28 117.2 18.28 120.05 23.92 117.54 29.56 111.87 29.56 89.81 29.56"/><polygon class="cls-6" points="131.08 29.56 125.75 29.56 122.9 23.91 125.41 18.25 131.08 18.25 153.14 18.25 158.47 18.25 161.32 23.91 158.81 29.56 153.14 29.56 131.08 29.56"/><g class="cls-7"><text class="cls-8" transform="translate(132.1 25.61) scale(0.88 1)">Registrarse</text></g><g class="cls-7"><text class="cls-8" transform="translate(89.78 25.64) scale(0.88 1)">Iniciar sesión</text></g></svg>