<?xml version="1.0" encoding="utf-8"?>
<!-- Generator: Adobe Illustrator 24.1.1, SVG Export Plug-In . SVG Version: 6.00 Build 0)  -->
<svg version="1.1" id="Capa_1" xmlns="http://www.w3.org/2000/svg" xmlns:xlink="http://www.w3.org/1999/xlink" x="0px" y="0px"
	 viewBox="0 0 1365 769" style="enable-background:new 0 0 1365 769;" xml:space="preserve">
<style type="text/css">
	.st0{fill:#2C2E45;}
	.st1{opacity:0.16;fill:url(#SVGID_1_);}
	.st2{fill:#D80165;}
	.st3{opacity:0.54;fill:#D80165;}
	.st4{opacity:0.75;fill:#D80165;}
	.st5{fill:#FFFFFF;}
	.st6{font-family:'BerlinSansFBDemi-Bold';}
	.st7{font-size:94.209px;}
	.st8{opacity:0.54;fill:#212121;}
	.st9{fill:none;}
	.st10{font-family:'ArialNarrow';}
	.st11{font-size:13px;}
	.st12{fill:#FCFCFC;}
	.st13{font-size:20.9686px;}
	.st14{fill:#111111;}
	.st15{fill:none;stroke:#FFFFFF;stroke-width:0.5;stroke-miterlimit:10;}
	.st16{fill:none;stroke:#FFFFFF;stroke-miterlimit:10;}
	.st17{fill:none;stroke:#32F987;stroke-miterlimit:10;}
	.st18{fill:none;stroke:#2086E2;stroke-miterlimit:10;}
	.st19{fill:none;stroke:#F4278E;stroke-miterlimit:10;}
	.st20{fill:#F4278E;}
	.st21{fill:#2086E2;}
	.st22{fill:#32F987;}
	.st23{font-size:11px;}
	.st24{fill:#F86EFF;}
	.st25{font-size:13.0596px;}
	.st26{opacity:0.38;fill:#FFFFFF;}
	.st27{opacity:0.5;fill:#FFFFFF;}
	.st28{fill:#393D5B;stroke:#D80165;stroke-width:2;stroke-miterlimit:10;}
	.st29{opacity:0.82;}
	.st30{font-family:'ArialNarrow-Bold';}
	.st31{font-size:16.6294px;}
	.st32{fill:none;stroke:#F70D82;stroke-width:2;stroke-miterlimit:10;}
	.st33{fill:#F70D82;}
	.st34{font-family:'MyriadPro-Regular';}
	.st35{font-size:16px;}
	.st36{fill:#AAAAAA;}
</style>
<polygon class="st0" points="1366,768 0,768 0,0 903.2,0 1366,0 "/>
<linearGradient id="SVGID_1_" gradientUnits="userSpaceOnUse" x1="0" y1="384" x2="1298.5" y2="384">
	<stop  offset="0" style="stop-color:#315CB0;stop-opacity:0"/>
	<stop  offset="2.363527e-02" style="stop-color:#3F54AA;stop-opacity:4.573745e-02"/>
	<stop  offset="0.1088" style="stop-color:#6D3B95;stop-opacity:0.2106"/>
	<stop  offset="0.1942" style="stop-color:#942784;stop-opacity:0.3758"/>
	<stop  offset="0.2783" style="stop-color:#B21777;stop-opacity:0.5386"/>
	<stop  offset="0.3609" style="stop-color:#C70B6E;stop-opacity:0.6984"/>
	<stop  offset="0.4413" style="stop-color:#D40468;stop-opacity:0.8539"/>
	<stop  offset="0.5168" style="stop-color:#D80266"/>
	<stop  offset="0.6137" style="stop-color:#D60568;stop-opacity:0.7993"/>
	<stop  offset="0.6851" style="stop-color:#D00E6E;stop-opacity:0.6516"/>
	<stop  offset="0.7483" style="stop-color:#C71E78;stop-opacity:0.5208"/>
	<stop  offset="0.8068" style="stop-color:#B93587;stop-opacity:0.3998"/>
	<stop  offset="0.862" style="stop-color:#A7529A;stop-opacity:0.2856"/>
	<stop  offset="0.9147" style="stop-color:#9176B1;stop-opacity:0.1765"/>
	<stop  offset="0.9646" style="stop-color:#78A0CC;stop-opacity:7.324868e-02"/>
	<stop  offset="1" style="stop-color:#63C2E2;stop-opacity:0"/>
</linearGradient>
<polygon class="st1" points="1298.5,768 0,768 0,0 858.6,0 1298.5,0 "/>
<rect x="80.5" class="st2" width="1284.5" height="51"/>
<rect x="-319.1" y="369.4" transform="matrix(6.123234e-17 -1 1 6.123234e-17 -369.3171 449.8698)" class="st3" width="718.8" height="80.4"/>
<rect x="-0.5" y="0" class="st4" width="81" height="50"/>
<image style="overflow:visible;" width="100" height="101" xlink:href="../../../../../Proyecto CIBB (Comunidad Ispana de Boom Beach)/Illustrations/clan icon-03.png"  transform="matrix(0.5738 0 0 0.5738 10.5 71)">
</image>
<text transform="matrix(1 0 0 1 423.7206 253.8003)" class="st5 st6 st7">TAG-CLAN</text>
<g>
	<g>
		<path class="st5" d="M430.1,142.4h2.2v22.1h-2.2V142.4z M431.6,142.4H444v2h-12.4V142.4z M431.6,152.7h10.7v2h-10.7V152.7z"/>
		<path class="st5" d="M449.4,158.3c0,1.4,0.4,2.5,1.1,3.2c0.7,0.8,1.7,1.1,3,1.1c1.3,0,2.3-0.3,3-1c0.7-0.7,1.1-1.7,1.1-3l0.2,3.3
			c-0.4,0.8-1,1.4-1.9,2c-0.9,0.5-2,0.8-3.3,0.8c-1.7,0-3.1-0.6-4-1.7c-0.9-1.1-1.4-2.7-1.4-4.7v-9.6h2.2V158.3z M457.6,148.7h2.2
			v15.7h-2.2V148.7z"/>
		<path class="st5" d="M467.2,163.9c-1-0.6-1.8-1.4-2.4-2.4c-0.5-1.1-0.8-2.3-0.8-3.8v-1.8c0-1.6,0.3-2.9,0.8-4
			c0.5-1.1,1.3-1.9,2.3-2.5c1-0.6,2.2-0.9,3.6-0.9c1.3,0,2.4,0.3,3.4,0.8s1.6,1.4,2.1,2.5c0.5,1.1,0.7,2.4,0.7,3.9v1.8h-11.4v-2h9.3
			v-0.2c0-1.6-0.4-2.8-1.1-3.6c-0.7-0.9-1.8-1.3-3.1-1.3c-1.5,0-2.6,0.5-3.4,1.4c-0.8,0.9-1.2,2.2-1.2,3.8v2c0,1.6,0.4,2.8,1.3,3.7
			c0.8,0.9,2,1.3,3.6,1.3c0.7,0,1.4-0.2,2.2-0.5c0.7-0.3,1.3-0.7,1.9-1.3l1.5,1.4c-0.8,0.7-1.6,1.3-2.6,1.7c-1,0.4-2,0.6-2.9,0.6
			C469.4,164.7,468.2,164.4,467.2,163.9z"/>
		<path class="st5" d="M481.1,148.7h2.2v15.7h-2.2V148.7z M489.2,150.8c-0.5-0.2-1.1-0.3-1.7-0.3c-1.3,0-2.3,0.4-3.1,1.1
			c-0.7,0.7-1.1,1.7-1.1,2.9l-0.3-3c0.6-0.9,1.3-1.7,2.3-2.2s2-0.8,3.1-0.8c0.7,0,1.4,0.1,1.9,0.3c0.6,0.2,1.1,0.5,1.5,0.9l-1.4,1.8
			C490.1,151.2,489.6,151,489.2,150.8z"/>
		<path class="st5" d="M505.2,150.4l-8.5,12.1h8.9v2h-11.7v-1.8l8.7-12h-8.5v-2h11.1V150.4z"/>
		<path class="st5" d="M510.5,163.4c-1-0.8-1.5-2-1.5-3.6c0-1.5,0.5-2.6,1.4-3.5c0.9-0.8,2.2-1.2,3.9-1.2h5.2l0.2,2h-5.4
			c-1,0-1.8,0.2-2.3,0.7c-0.6,0.5-0.8,1.1-0.8,2c0,0.9,0.3,1.6,1,2.1c0.7,0.5,1.7,0.7,2.9,0.7c1.4,0,2.4-0.1,3.2-0.4
			c0.7-0.3,1.1-0.7,1.1-1.2l0.3,2.1c-0.3,0.3-0.7,0.6-1.2,0.8c-0.5,0.2-1.1,0.4-1.7,0.5c-0.6,0.1-1.3,0.2-2,0.2
			C512.9,164.7,511.5,164.3,510.5,163.4z M519.4,154.5c0-1.3-0.3-2.3-1-3s-1.7-1.1-2.9-1.1c-0.7,0-1.5,0.1-2.2,0.4
			c-0.7,0.2-1.4,0.6-1.9,1l-1.6-1.1c0.6-0.7,1.4-1.3,2.4-1.7c1-0.4,2.1-0.6,3.3-0.6c1.3,0,2.4,0.2,3.4,0.7c0.9,0.5,1.6,1.1,2.1,2
			c0.5,0.9,0.7,1.9,0.7,3.2v10.1h-2.2V154.5z"/>
		<path class="st5" d="M535,163.8c-1.2-0.6-2-1.6-2.6-2.8c-0.6-1.2-0.9-2.7-0.9-4.4v-6.3c0-1.7,0.3-3.2,0.9-4.4
			c0.6-1.2,1.5-2.1,2.6-2.8c1.2-0.6,2.6-1,4.2-1s3,0.3,4.2,1c1.2,0.6,2,1.6,2.6,2.8s0.9,2.7,0.9,4.4v6.3c0,1.7-0.3,3.2-0.9,4.4
			c-0.6,1.2-1.5,2.1-2.6,2.8c-1.2,0.6-2.6,1-4.2,1S536.1,164.4,535,163.8z M542.2,162c0.8-0.5,1.5-1.2,1.9-2s0.7-2,0.7-3.2v-6.5
			c0-1.3-0.2-2.3-0.7-3.2c-0.4-0.9-1.1-1.6-1.9-2c-0.8-0.5-1.8-0.7-3-0.7c-1.2,0-2.2,0.2-3,0.7c-0.8,0.5-1.5,1.2-1.9,2
			c-0.4,0.9-0.7,2-0.7,3.2v6.5c0,1.3,0.2,2.3,0.7,3.2c0.4,0.9,1.1,1.6,1.9,2c0.8,0.5,1.8,0.7,3,0.7
			C540.4,162.7,541.4,162.5,542.2,162z"/>
		<path class="st5" d="M551.6,148.7h2.2v22.1h-2.2V148.7z M555.5,164.1c-0.9-0.4-1.5-1.1-1.9-2.1l0.2-3.3c0,0.7,0.2,1.3,0.5,2
			c0.3,0.6,0.8,1.1,1.4,1.5s1.3,0.6,2.1,0.6c1.3,0,2.3-0.4,3-1.2c0.7-0.8,1.1-1.9,1.1-3.3V155c0-1.4-0.4-2.6-1.1-3.4
			c-0.7-0.8-1.7-1.2-3-1.2c-0.8,0-1.5,0.2-2.1,0.6c-0.6,0.4-1.1,0.9-1.4,1.5c-0.3,0.6-0.5,1.3-0.5,1.9l-0.3-3c0.5-1,1.3-1.8,2.2-2.2
			c0.9-0.5,2-0.7,3.2-0.7c1.1,0,2.1,0.3,2.9,0.8c0.8,0.5,1.4,1.2,1.8,2.2c0.4,1,0.6,2.1,0.6,3.5v3.4c0,1.3-0.2,2.5-0.6,3.4
			c-0.4,1-1,1.7-1.9,2.2c-0.8,0.5-1.8,0.8-2.9,0.8C557.4,164.7,556.3,164.5,555.5,164.1z"/>
		<path class="st5" d="M571.3,163.9c-1-0.6-1.8-1.4-2.4-2.4c-0.5-1.1-0.8-2.3-0.8-3.8v-1.8c0-1.6,0.3-2.9,0.8-4
			c0.5-1.1,1.3-1.9,2.3-2.5c1-0.6,2.2-0.9,3.6-0.9c1.3,0,2.4,0.3,3.4,0.8s1.6,1.4,2.1,2.5c0.5,1.1,0.7,2.4,0.7,3.9v1.8h-11.4v-2h9.3
			v-0.2c0-1.6-0.4-2.8-1.1-3.6c-0.7-0.9-1.8-1.3-3.1-1.3c-1.5,0-2.6,0.5-3.4,1.4c-0.8,0.9-1.2,2.2-1.2,3.8v2c0,1.6,0.4,2.8,1.3,3.7
			c0.8,0.9,2,1.3,3.6,1.3c0.7,0,1.4-0.2,2.2-0.5c0.7-0.3,1.3-0.7,1.9-1.3l1.5,1.4c-0.8,0.7-1.6,1.3-2.6,1.7c-1,0.4-2,0.6-2.9,0.6
			C573.5,164.7,572.3,164.4,571.3,163.9z"/>
		<path class="st5" d="M585.2,148.7h2.2v15.7h-2.2V148.7z M593.2,150.8c-0.5-0.2-1.1-0.3-1.7-0.3c-1.3,0-2.3,0.4-3.1,1.1
			c-0.7,0.7-1.1,1.7-1.1,2.9l-0.3-3c0.6-0.9,1.3-1.7,2.3-2.2s2-0.8,3.1-0.8c0.7,0,1.4,0.1,1.9,0.3c0.6,0.2,1.1,0.5,1.5,0.9l-1.4,1.8
			C594.1,151.2,593.7,151,593.2,150.8z"/>
		<path class="st5" d="M599.2,163.4c-1-0.8-1.5-2-1.5-3.6c0-1.5,0.5-2.6,1.4-3.5c0.9-0.8,2.2-1.2,3.9-1.2h5.2l0.2,2H603
			c-1,0-1.8,0.2-2.3,0.7c-0.6,0.5-0.8,1.1-0.8,2c0,0.9,0.3,1.6,1,2.1c0.7,0.5,1.7,0.7,2.9,0.7c1.4,0,2.4-0.1,3.2-0.4
			c0.7-0.3,1.1-0.7,1.1-1.2l0.3,2.1c-0.3,0.3-0.7,0.6-1.2,0.8c-0.5,0.2-1.1,0.4-1.7,0.5c-0.6,0.1-1.3,0.2-2,0.2
			C601.6,164.7,600.2,164.3,599.2,163.4z M608.1,154.5c0-1.3-0.3-2.3-1-3s-1.7-1.1-2.9-1.1c-0.7,0-1.5,0.1-2.2,0.4
			c-0.7,0.2-1.4,0.6-1.9,1l-1.6-1.1c0.6-0.7,1.4-1.3,2.4-1.7c1-0.4,2.1-0.6,3.3-0.6c1.3,0,2.4,0.2,3.4,0.7c0.9,0.5,1.6,1.1,2.1,2
			c0.5,0.9,0.7,1.9,0.7,3.2v10.1h-2.2V154.5z"/>
		<path class="st5" d="M613.8,148.7h7.1v1.9h-7.1V148.7z M616.3,163.5c-0.6-0.7-0.9-1.7-0.9-3.1v-16.2h2.2v16.3
			c0,0.7,0.2,1.2,0.5,1.6s0.8,0.5,1.4,0.5h1.5v2h-1.8C617.8,164.6,616.9,164.2,616.3,163.5z"/>
		<path class="st5" d="M625.6,142.4h2.2v2.2h-2.2V142.4z M625.6,148.7h2.2v15.7h-2.2V148.7z"/>
		<path class="st5" d="M643.1,148.7h2.3l-6.2,15.7h-1.7l-6.2-15.7h2.3l4.8,12.9L643.1,148.7z"/>
		<path class="st5" d="M649.2,163.4c-1-0.8-1.5-2-1.5-3.6c0-1.5,0.5-2.6,1.4-3.5c0.9-0.8,2.2-1.2,3.9-1.2h5.2l0.2,2H653
			c-1,0-1.8,0.2-2.3,0.7c-0.6,0.5-0.8,1.1-0.8,2c0,0.9,0.3,1.6,1,2.1c0.7,0.5,1.7,0.7,2.9,0.7c1.4,0,2.4-0.1,3.2-0.4
			c0.7-0.3,1.1-0.7,1.1-1.2l0.3,2.1c-0.3,0.3-0.7,0.6-1.2,0.8c-0.5,0.2-1.1,0.4-1.7,0.5c-0.6,0.1-1.3,0.2-2,0.2
			C651.7,164.7,650.2,164.3,649.2,163.4z M658.1,154.5c0-1.3-0.3-2.3-1-3s-1.7-1.1-2.9-1.1c-0.7,0-1.5,0.1-2.2,0.4
			c-0.7,0.2-1.4,0.6-1.9,1l-1.6-1.1c0.6-0.7,1.4-1.3,2.4-1.7c1-0.4,2.1-0.6,3.3-0.6c1.3,0,2.4,0.2,3.4,0.7c0.9,0.5,1.6,1.1,2.1,2
			c0.5,0.9,0.7,1.9,0.7,3.2v10.1h-2.2V154.5z"/>
	</g>
</g>
<g>
	<g>
		<path class="st5" d="M429.5,278.6h1.5v15h-1.5V278.6z M430.5,292.2h8.6v1.4h-8.6V292.2z"/>
		<path class="st5" d="M441.7,278.6h1.5v1.5h-1.5V278.6z M441.7,282.9h1.5v10.7h-1.5V282.9z"/>
		<path class="st5" d="M448,293.2c-0.6-0.3-1-0.8-1.3-1.5c-0.3-0.6-0.4-1.4-0.4-2.3v-2.3c0-0.9,0.1-1.7,0.4-2.4
			c0.3-0.7,0.7-1.1,1.2-1.5c0.5-0.3,1.2-0.5,1.9-0.5c0.8,0,1.5,0.2,2.1,0.5c0.6,0.3,1.1,0.8,1.5,1.5l-0.2,2.1c0-0.5-0.1-0.9-0.3-1.3
			c-0.2-0.4-0.5-0.8-0.9-1c-0.4-0.3-0.9-0.4-1.5-0.4c-0.9,0-1.6,0.3-2.1,0.8c-0.5,0.5-0.7,1.3-0.7,2.3v2.3c0,1,0.2,1.7,0.7,2.2
			c0.5,0.5,1.2,0.8,2.1,0.8c0.5,0,1-0.1,1.4-0.4c0.4-0.3,0.7-0.6,0.9-1s0.3-0.9,0.3-1.3l0.1,2.2c-0.3,0.7-0.7,1.1-1.3,1.4
			s-1.3,0.4-2.2,0.4C449.2,293.7,448.6,293.6,448,293.2z M453.3,278.6h1.5v15h-1.5V278.6z"/>
		<path class="st5" d="M459.8,293.2c-0.7-0.4-1.2-0.9-1.6-1.6c-0.4-0.7-0.6-1.6-0.6-2.6v-1.2c0-1.1,0.2-2,0.5-2.7
			c0.4-0.7,0.9-1.3,1.5-1.7c0.7-0.4,1.5-0.6,2.4-0.6c0.9,0,1.7,0.2,2.3,0.6c0.6,0.4,1.1,0.9,1.4,1.7c0.3,0.7,0.5,1.6,0.5,2.7v1.2
			h-7.7v-1.3h6.3v-0.1c0-1.1-0.2-1.9-0.7-2.5c-0.5-0.6-1.2-0.9-2.1-0.9c-1,0-1.8,0.3-2.3,0.9s-0.8,1.5-0.8,2.6v1.4
			c0,1.1,0.3,1.9,0.9,2.5c0.6,0.6,1.4,0.9,2.4,0.9c0.5,0,1-0.1,1.5-0.3s0.9-0.5,1.3-0.9l1,1c-0.5,0.5-1.1,0.9-1.8,1.2
			c-0.7,0.3-1.3,0.4-2,0.4C461.4,293.7,460.5,293.6,459.8,293.2z"/>
		<path class="st5" d="M469.3,282.9h1.5v10.7h-1.5V282.9z M474.8,284.3c-0.3-0.1-0.7-0.2-1.2-0.2c-0.9,0-1.6,0.2-2.1,0.7
			c-0.5,0.5-0.7,1.1-0.7,2l-0.2-2.1c0.4-0.6,0.9-1.1,1.5-1.5c0.6-0.4,1.3-0.5,2.1-0.5c0.5,0,0.9,0.1,1.3,0.2s0.7,0.3,1,0.6l-1,1.2
			C475.4,284.6,475.1,284.4,474.8,284.3z"/>
		<path class="st5" d="M478.8,292.9c-0.7-0.6-1-1.4-1-2.4c0-1,0.3-1.8,0.9-2.3c0.6-0.6,1.5-0.8,2.7-0.8h3.6l0.1,1.4h-3.7
			c-0.7,0-1.2,0.2-1.6,0.5c-0.4,0.3-0.6,0.8-0.6,1.3c0,0.6,0.2,1.1,0.7,1.4s1.1,0.5,2,0.5c0.9,0,1.6-0.1,2.1-0.3
			c0.5-0.2,0.8-0.4,0.8-0.8l0.2,1.4c-0.2,0.2-0.5,0.4-0.8,0.6c-0.3,0.2-0.7,0.3-1.1,0.4s-0.9,0.1-1.4,0.1
			C480.5,293.7,479.5,293.4,478.8,292.9z M484.8,286.8c0-0.9-0.2-1.5-0.7-2c-0.5-0.5-1.1-0.7-2-0.7c-0.5,0-1,0.1-1.5,0.2
			c-0.5,0.2-0.9,0.4-1.3,0.7l-1.1-0.7c0.4-0.5,0.9-0.9,1.6-1.1c0.7-0.3,1.4-0.4,2.2-0.4c0.9,0,1.6,0.2,2.3,0.5
			c0.6,0.3,1.1,0.8,1.4,1.4c0.3,0.6,0.5,1.3,0.5,2.1v6.9h-1.5V286.8z"/>
		<path class="st5" d="M490.9,293.2c-0.6-0.3-1-0.8-1.3-1.5c-0.3-0.6-0.4-1.4-0.4-2.3v-2.3c0-0.9,0.1-1.7,0.4-2.4
			c0.3-0.7,0.7-1.1,1.2-1.5c0.5-0.3,1.2-0.5,1.9-0.5c0.8,0,1.5,0.2,2.1,0.5c0.6,0.3,1.1,0.8,1.5,1.5l-0.2,2.1c0-0.5-0.1-0.9-0.3-1.3
			c-0.2-0.4-0.5-0.8-0.9-1c-0.4-0.3-0.9-0.4-1.5-0.4c-0.9,0-1.6,0.3-2.1,0.8c-0.5,0.5-0.7,1.3-0.7,2.3v2.3c0,1,0.2,1.7,0.7,2.2
			c0.5,0.5,1.2,0.8,2.1,0.8c0.5,0,1-0.1,1.4-0.4c0.4-0.3,0.7-0.6,0.9-1s0.3-0.9,0.3-1.3l0.1,2.2c-0.3,0.7-0.7,1.1-1.3,1.4
			s-1.3,0.4-2.2,0.4C492.1,293.7,491.5,293.6,490.9,293.2z M496.2,278.6h1.5v15h-1.5V278.6z"/>
		<path class="st5" d="M502.6,293.2c-0.7-0.4-1.2-0.9-1.5-1.6s-0.5-1.5-0.5-2.5v-1.7c0-1,0.2-1.8,0.5-2.5s0.8-1.2,1.5-1.6
			c0.7-0.4,1.5-0.5,2.4-0.5s1.7,0.2,2.4,0.5c0.7,0.4,1.2,0.9,1.5,1.6s0.5,1.5,0.5,2.5v1.8c0,1-0.2,1.8-0.5,2.5s-0.8,1.2-1.5,1.6
			c-0.7,0.4-1.5,0.5-2.4,0.5S503.2,293.6,502.6,293.2z M507.1,291.5c0.5-0.6,0.8-1.4,0.8-2.4v-1.8c0-1-0.3-1.8-0.8-2.4
			c-0.5-0.6-1.2-0.8-2.2-0.8c-0.9,0-1.6,0.3-2.2,0.8s-0.8,1.4-0.8,2.4v1.8c0,1,0.3,1.8,0.8,2.4c0.5,0.6,1.2,0.8,2.2,0.8
			C505.9,292.4,506.6,292.1,507.1,291.5z"/>
		<path class="st5" d="M516,282.9h1.5v15H516V282.9z M518.6,293.3c-0.6-0.3-1-0.8-1.3-1.4l0.1-2.2c0,0.5,0.1,0.9,0.3,1.3
			c0.2,0.4,0.5,0.8,0.9,1c0.4,0.3,0.9,0.4,1.4,0.4c0.9,0,1.6-0.3,2.1-0.8s0.7-1.3,0.7-2.2v-2.3c0-1-0.2-1.7-0.7-2.3
			c-0.5-0.5-1.2-0.8-2.1-0.8c-0.5,0-1,0.1-1.4,0.4c-0.4,0.3-0.7,0.6-0.9,1c-0.2,0.4-0.3,0.9-0.3,1.3l-0.2-2.1
			c0.4-0.7,0.9-1.2,1.5-1.5c0.6-0.3,1.3-0.5,2.1-0.5c0.8,0,1.4,0.2,1.9,0.5c0.5,0.3,0.9,0.8,1.2,1.5c0.3,0.7,0.4,1.4,0.4,2.4v2.3
			c0,0.9-0.1,1.7-0.4,2.3c-0.3,0.6-0.7,1.1-1.3,1.5c-0.6,0.3-1.2,0.5-2,0.5C519.9,293.7,519.1,293.6,518.6,293.3z"/>
		<path class="st5" d="M529.1,293.2c-0.7-0.4-1.2-0.9-1.5-1.6s-0.5-1.5-0.5-2.5v-1.7c0-1,0.2-1.8,0.5-2.5s0.8-1.2,1.5-1.6
			c0.7-0.4,1.5-0.5,2.4-0.5s1.7,0.2,2.4,0.5c0.7,0.4,1.2,0.9,1.5,1.6s0.5,1.5,0.5,2.5v1.8c0,1-0.2,1.8-0.5,2.5s-0.8,1.2-1.5,1.6
			c-0.7,0.4-1.5,0.5-2.4,0.5S529.8,293.6,529.1,293.2z M533.7,291.5c0.5-0.6,0.8-1.4,0.8-2.4v-1.8c0-1-0.3-1.8-0.8-2.4
			c-0.5-0.6-1.2-0.8-2.2-0.8c-0.9,0-1.6,0.3-2.2,0.8s-0.8,1.4-0.8,2.4v1.8c0,1,0.3,1.8,0.8,2.4c0.5,0.6,1.2,0.8,2.2,0.8
			C532.4,292.4,533.2,292.1,533.7,291.5z"/>
		<path class="st5" d="M538.9,282.9h1.5v10.7h-1.5V282.9z M544.4,284.3c-0.3-0.1-0.7-0.2-1.2-0.2c-0.9,0-1.6,0.2-2.1,0.7
			c-0.5,0.5-0.7,1.1-0.7,2l-0.2-2.1c0.4-0.6,0.9-1.1,1.5-1.5c0.6-0.4,1.3-0.5,2.1-0.5c0.5,0,0.9,0.1,1.3,0.2s0.7,0.3,1,0.6l-1,1.2
			C545,284.6,544.7,284.4,544.4,284.3z"/>
		<path class="st5" d="M547.9,282.9h1.5v1.5h-1.5V282.9z M547.9,292.1h1.5v1.5h-1.5V292.1z"/>
	</g>
</g>
<path class="st8" d="M1330.1,761H115.9c-9.6,0-17.4-7.8-17.4-17.4V405.4c0-9.6,7.8-17.4,17.4-17.4h1214.1c9.6,0,17.4,7.8,17.4,17.4
	v338.1C1347.5,753.2,1339.7,761,1330.1,761z"/>
<rect x="131.9" y="433.6" class="st9" width="550.6" height="83.2"/>
<text transform="matrix(1 0 0 1 131.8797 442.9507)"><tspan x="0" y="0" class="st5 st10 st11">Lorem ipsum dolor sit amet, consectetuer adipiscing elit, sed diam nonummy nibh euismod tincidunt ut laoreet dolore </tspan><tspan x="0" y="15.6" class="st5 st10 st11">magna aliquam erat volutpat. Ut wisi enim ad minim veniam, quis nostrud exerci tation ullamcorper suscipit lobortis </tspan><tspan x="0" y="31.2" class="st5 st10 st11">nisl ut aliquip ex ea commodo consequat. Duis autem vel eum iriure dolor in hendrerit in vulputate velit esse molestie </tspan><tspan x="0" y="46.8" class="st5 st10 st11">consequat, vel illum dolore eu feugiat nulla facilisis at vero eros et accumsan et iusto odio dignissim qui blandit </tspan><tspan x="0" y="62.4" class="st5 st10 st11">praesent luptatum zzril delenit augue duis dolore te feugait nulla facilisi.</tspan></text>
<text transform="matrix(1 0 0 1 131.6776 421.3423)" class="st12 st10 st13">Descripción</text>
<rect x="131.5" y="545" class="st14" width="362" height="178"/>
<rect x="540.5" y="545" class="st14" width="362" height="178"/>
<rect x="950.5" y="545" class="st14" width="362" height="178"/>
<line class="st15" x1="1300.5" y1="126.3" x2="985.5" y2="126.3"/>
<line class="st15" x1="1300.5" y1="138.3" x2="985.5" y2="138.3"/>
<line class="st15" x1="1300.5" y1="150.3" x2="985.5" y2="150.3"/>
<line class="st15" x1="1300.5" y1="162.3" x2="985.5" y2="162.3"/>
<line class="st15" x1="1300.5" y1="174.3" x2="985.5" y2="174.3"/>
<line class="st15" x1="1300.5" y1="186.2" x2="985.5" y2="186.2"/>
<line class="st15" x1="1300.5" y1="198.2" x2="985.5" y2="198.2"/>
<line class="st15" x1="1300.5" y1="210.2" x2="985.5" y2="210.2"/>
<line class="st15" x1="1300.5" y1="222.2" x2="985.5" y2="222.2"/>
<line class="st15" x1="1300.5" y1="234.1" x2="985.5" y2="234.1"/>
<line class="st16" x1="1300.5" y1="246.1" x2="985.5" y2="246.1"/>
<line class="st15" x1="1299.7" y1="253.6" x2="1300.5" y2="126"/>
<line class="st15" x1="1248.9" y1="253.6" x2="1249.7" y2="126"/>
<line class="st15" x1="1198.1" y1="253.6" x2="1199" y2="126"/>
<line class="st15" x1="1147.4" y1="253.6" x2="1148.2" y2="126"/>
<line class="st15" x1="1096.6" y1="253.6" x2="1097.5" y2="126"/>
<line class="st15" x1="1045.9" y1="253.6" x2="1046.7" y2="126"/>
<line class="st16" x1="995.1" y1="253.6" x2="996" y2="126"/>
<path class="st17" d="M996,222.2c0,0,96.7-60.2,151.8-24c55.2,36.3,152.7-24,152.7-24"/>
<path class="st18" d="M995.4,210.2c0,0,71.1,14.8,152.8-35.9c81.8-50.8,152.3,71.9,152.3,71.9"/>
<path class="st19" d="M995.4,186.2c0,0,45.5,41.2,152.6-24.3c0,0,53.5-32.9,101.8,12.3c13.8,12.9,31.8,20.7,50.6,25.2"/>
<circle class="st20" cx="996" cy="186.5" r="1.5"/>
<circle class="st20" cx="1046" cy="198.5" r="1.5"/>
<circle class="st20" cx="1097" cy="187.5" r="1.5"/>
<circle class="st20" cx="1148" cy="161.5" r="1.5"/>
<circle class="st20" cx="1199" cy="150.5" r="1.5"/>
<circle class="st20" cx="1250" cy="174.5" r="1.5"/>
<circle class="st20" cx="1300" cy="199.5" r="1.5"/>
<circle class="st21" cx="996" cy="210.5" r="1.5"/>
<circle class="st21" cx="1046" cy="210.5" r="1.5"/>
<circle class="st21" cx="1097" cy="198.5" r="1.5"/>
<circle class="st21" cx="1148" cy="174.5" r="1.5"/>
<circle class="st21" cx="1199" cy="162.5" r="1.5"/>
<circle class="st21" cx="1249" cy="186.5" r="1.5"/>
<circle class="st21" cx="1300" cy="245.5" r="1.5"/>
<circle class="st22" cx="996" cy="222.5" r="1.5"/>
<circle class="st22" cx="1047" cy="197.5" r="1.5"/>
<circle class="st22" cx="1097" cy="186.5" r="1.5"/>
<circle class="st22" cx="1148" cy="198.5" r="1.5"/>
<circle class="st22" cx="1198" cy="209.5" r="1.5"/>
<circle class="st22" cx="1249" cy="198.5" r="1.5"/>
<circle class="st22" cx="1300" cy="174.5" r="1.5"/>
<rect x="1000.5" y="100" class="st20" width="32" height="10"/>
<text transform="matrix(1 0 0 1 1036.285 108.2535)" class="st5 st10 st23">Asistencia</text>
<rect x="1095.5" y="100" class="st21" width="32" height="10"/>
<text transform="matrix(1 0 0 1 1131.285 108.2535)" class="st5 st10 st23">Actividades</text>
<rect x="1188.5" y="100" class="st22" width="32" height="10"/>
<text transform="matrix(1 0 0 1 1224.285 108.2535)" class="st5 st10 st23">Participaciones</text>
<text transform="matrix(1 0 0 1 969.5897 129.4306)" class="st5 st10 st23">100</text>
<text transform="matrix(1 0 0 1 974.5897 141.4306)" class="st5 st10 st23">90</text>
<text transform="matrix(1 0 0 1 974.5897 153.4306)" class="st5 st10 st23">80</text>
<text transform="matrix(1 0 0 1 974.5897 165.4306)" class="st5 st10 st23">70</text>
<text transform="matrix(1 0 0 1 974.5897 177.4306)" class="st5 st10 st23">60</text>
<text transform="matrix(1 0 0 1 974.5897 189.4306)" class="st5 st10 st23">50</text>
<text transform="matrix(1 0 0 1 974.5897 201.4306)" class="st5 st10 st23">40</text>
<text transform="matrix(1 0 0 1 974.5897 213.4306)" class="st5 st10 st23">30</text>
<text transform="matrix(1 0 0 1 974.5897 225.4306)" class="st5 st10 st23">20</text>
<text transform="matrix(1 0 0 1 974.5897 237.4306)" class="st5 st10 st23">10</text>
<text transform="matrix(1 0 0 1 979.5897 250.4306)" class="st5 st10 st23">0</text>
<text transform="matrix(1 0 0 1 1285.5873 264.0878)" class="st5 st10 st23">Agosto</text>
<text transform="matrix(1 0 0 1 1239.3549 264.0878)" class="st5 st10 st23">Julio</text>
<text transform="matrix(1 0 0 1 1186.848 264.0878)" class="st5 st10 st23">Junio</text>
<text transform="matrix(1 0 0 1 1136.601 264.0878)" class="st5 st10 st23">Mayo</text>
<text transform="matrix(1 0 0 1 1087.6097 264.0878)" class="st5 st10 st23">Abril</text>
<text transform="matrix(1 0 0 1 1033.099 264.0878)" class="st5 st10 st23">Marzo</text>
<text transform="matrix(1 0 0 1 978.8392 264.0878)" class="st5 st10 st23">Febrero</text>
<g>
	<g>
		<g>
			<path class="st12" d="M589,289.1v1.7h-7.5v-1.7H589z M589.4,284.5v1.7h-7.6v-1.7H589.4z M583.8,281.7h1.7l-1.7,11.8h-1.7
				L583.8,281.7z M587.1,281.7h1.7l-1.7,11.8h-1.7L587.1,281.7z"/>
			<path class="st12" d="M590.9,281.7h2.1v11.8h-2.1V281.7z M591.7,281.7h5.7v2.1h-5.7V281.7z M591.7,286.7h5.1v2h-5.1V286.7z
				 M591.7,291.5h5.7v2.1h-5.7V291.5z"/>
			<path class="st12" d="M599.8,293.3c-0.3-0.2-0.6-0.6-0.8-1s-0.3-1-0.3-1.6V288c0-0.6,0.1-1.2,0.3-1.6c0.2-0.4,0.4-0.8,0.8-1
				c0.3-0.2,0.7-0.3,1.2-0.3c0.4,0,0.8,0.1,1.1,0.4c0.3,0.3,0.6,0.6,0.8,1.1l-0.2,1.5c0-0.2,0-0.4-0.1-0.6s-0.2-0.3-0.3-0.4
				c-0.1-0.1-0.3-0.1-0.5-0.1c-0.3,0-0.5,0.1-0.7,0.3c-0.2,0.2-0.3,0.5-0.3,0.9v2.4c0,0.4,0.1,0.7,0.3,0.9c0.2,0.2,0.4,0.3,0.7,0.3
				c0.2,0,0.4,0,0.5-0.1c0.1-0.1,0.2-0.2,0.3-0.4s0.1-0.3,0.1-0.6l0.1,1.5c-0.2,0.5-0.4,0.8-0.7,1.1c-0.3,0.3-0.7,0.4-1.2,0.4
				C600.5,293.7,600.1,293.6,599.8,293.3z M602.8,281.7h2.1v11.8h-2.1V281.7z"/>
			<path class="st12" d="M607.6,293.3c-0.3-0.2-0.6-0.6-0.8-1c-0.2-0.4-0.3-1-0.3-1.6V288c0-0.6,0.1-1.2,0.3-1.6
				c0.2-0.4,0.4-0.8,0.8-1c0.3-0.2,0.7-0.3,1.2-0.3c0.4,0,0.8,0.1,1.1,0.4c0.3,0.3,0.6,0.6,0.8,1.1l-0.2,1.5c0-0.2,0-0.4-0.1-0.6
				s-0.2-0.3-0.3-0.4s-0.3-0.1-0.5-0.1c-0.3,0-0.5,0.1-0.7,0.3c-0.2,0.2-0.3,0.5-0.3,0.9v2.4c0,0.4,0.1,0.7,0.3,0.9
				c0.2,0.2,0.4,0.3,0.7,0.3c0.2,0,0.4,0,0.5-0.1s0.2-0.2,0.3-0.4s0.1-0.3,0.1-0.6l0.1,1.5c-0.1,0.5-0.4,0.8-0.7,1.1
				c-0.3,0.3-0.7,0.4-1.2,0.4C608.3,293.7,607.9,293.6,607.6,293.3z M607.6,296.4c-0.5-0.4-0.8-0.9-0.9-1.6l2-0.6
				c0.1,0.3,0.2,0.5,0.3,0.6c0.2,0.1,0.4,0.2,0.6,0.2c0.3,0,0.5-0.1,0.7-0.3c0.2-0.2,0.2-0.4,0.2-0.7v-8.9h2.1v8.8
				c0,0.6-0.1,1.2-0.4,1.6c-0.3,0.5-0.6,0.8-1.1,1c-0.5,0.2-1.1,0.4-1.7,0.4C608.7,297,608,296.8,607.6,296.4z"/>
			<path class="st12" d="M614.9,293c-0.4-0.4-0.6-1-0.6-1.9c0-0.9,0.2-1.5,0.7-2c0.5-0.5,1.2-0.7,2.2-0.7h1.4l0.1,1.6h-1.4
				c-0.3,0-0.6,0.1-0.8,0.2c-0.2,0.2-0.3,0.4-0.3,0.7c0,0.3,0.1,0.5,0.2,0.6c0.2,0.1,0.4,0.2,0.7,0.2c0.4,0,0.8-0.1,1-0.2
				c0.2-0.1,0.3-0.4,0.3-0.7l0.2,1c0,0.4-0.1,0.7-0.3,0.9c-0.2,0.2-0.4,0.4-0.7,0.6c-0.3,0.1-0.6,0.2-1,0.2
				C615.9,293.7,615.3,293.5,614.9,293z M618.6,287.9c0-0.3-0.1-0.5-0.3-0.7s-0.5-0.2-0.8-0.2c-0.3,0-0.5,0.1-0.7,0.2
				c-0.2,0.1-0.4,0.3-0.5,0.5l-1.6-0.7c0.2-0.6,0.5-1.1,1-1.4s1.1-0.5,1.9-0.5c0.6,0,1.2,0.1,1.6,0.3s0.8,0.5,1,1
				c0.2,0.4,0.4,0.9,0.4,1.5v5.7h-2V287.9z"/>
			<path class="st12" d="M622.4,285.1h2.2v8.4h-2.2V285.1z M626.5,287.2c-0.1,0-0.3,0-0.4,0c-0.5,0-0.8,0.1-1.1,0.4
				c-0.3,0.3-0.4,0.7-0.4,1.2l-0.2-2.2c0.2-0.5,0.5-0.9,0.9-1.2c0.4-0.3,0.8-0.4,1.2-0.4c0.2,0,0.3,0,0.5,0.1s0.3,0.1,0.4,0.2
				l-0.6,2C626.7,287.2,626.6,287.2,626.5,287.2z"/>
			<path class="st12" d="M633.9,293.6v2h-6.2v-2H633.9z"/>
			<path class="st12" d="M637.2,288.1H634l5-3.5v2.5L637.2,288.1z M639.1,291.6l-5-3.5h3.2l1.9,1V291.6z"/>
			<path class="st12" d="M643.2,286.5l2.1-4.8h2.3l-3.3,6.7l-2.3,5.2h-2.3L643.2,286.5z M643.2,288.8l-0.3-0.6l-3.2-6.4h2.3l2,4.4
				l0.4,0.8l3.3,6.6h-2.3L643.2,288.8z"/>
			<path class="st12" d="M648.3,284.7l5,3.5h-3.1l-1.9-1V284.7z M650.2,288.1h3.1l-5,3.5v-2.5L650.2,288.1z"/>
		</g>
	</g>
</g>
<path class="st24" d="M666.1,288.2c-1.2,0-2.2,1-2.2,2.2h4.4C668.3,289.2,667.4,288.2,666.1,288.2
	C666.2,288.2,666.1,288.2,666.1,288.2h-0.3l-0.1-0.8l0.4,0c0.7,0,1.2-0.5,1.3-1.2l0-0.2l4,0.4l0,0.3c-0.3,2.8-1.4,7.5-5.4,7.5
	c-5.6,0-5.3-9.6-5.3-9.6l5.3-3.5l5.5,3.6c0,0,0,0.8-0.1,1.9l-0.1,0.5l-3.8-0.5l0-0.5c0,0,0,0,0-0.1c0-0.7-0.6-1.3-1.3-1.3
	s-1.3,0.6-1.3,1.3s0.6,1.3,1.3,1.3h0.4l-0.1,0.8H666.1z"/>
<path class="st5" d="M435.6,308.6c1.5,1.5,1.5,3.9,0,5.4c0,0,0,0,0,0l-1.7,1.7c-1.5,1.5-3.9,1.5-5.4,0c-1.5-1.5-1.5-3.9,0-5.4
	l0.9-0.9c0.2-0.2,0.7-0.1,0.7,0.3c0,0.4,0.1,0.9,0.2,1.3c0,0.1,0,0.3-0.1,0.4l-0.3,0.3c-0.7,0.7-0.7,1.8,0,2.5
	c0.7,0.7,1.8,0.7,2.6,0l1.7-1.7c0.7-0.7,0.7-1.8,0-2.5c-0.1-0.1-0.2-0.2-0.3-0.2c-0.1-0.1-0.2-0.2-0.2-0.3c0-0.3,0.1-0.5,0.3-0.7
	l0.5-0.5c0.1-0.1,0.4-0.2,0.5,0C435.3,308.3,435.4,308.5,435.6,308.6L435.6,308.6z M439.1,305.1c-1.5-1.5-3.9-1.5-5.4,0l-1.7,1.7
	c0,0,0,0,0,0c-1.5,1.5-1.5,3.9,0,5.4c0.2,0.2,0.3,0.3,0.5,0.4c0.2,0.1,0.4,0.1,0.5,0l0.5-0.5c0.2-0.2,0.3-0.5,0.3-0.7
	c0-0.1-0.1-0.2-0.2-0.3c-0.1-0.1-0.2-0.1-0.3-0.2c-0.7-0.7-0.7-1.8,0-2.5l1.7-1.7c0.7-0.7,1.9-0.7,2.6,0c0.7,0.7,0.7,1.8,0,2.5
	l-0.3,0.3c-0.1,0.1-0.1,0.3-0.1,0.4c0.1,0.4,0.2,0.9,0.2,1.3c0,0.3,0.4,0.5,0.7,0.3l0.9-0.9C440.6,309,440.6,306.6,439.1,305.1
	L439.1,305.1z"/>
<text transform="matrix(1 0 0 1 444.1766 315.2051)" class="st5 st10 st25">Edgar.somee.com</text>
<path class="st5" d="M428.5,333.9v-4.8c0-0.6,0.5-1.1,1.1-1.1h4.8c0.3,0,0.6,0.1,0.8,0.3l5,5c0.4,0.4,0.4,1.2,0,1.6l-4.8,4.8
	c-0.4,0.4-1.2,0.4-1.6,0l-5-5C428.6,334.5,428.5,334.2,428.5,333.9z M431.1,329.5c-0.6,0-1.1,0.5-1.1,1.1s0.5,1.1,1.1,1.1
	s1.1-0.5,1.1-1.1S431.7,329.5,431.1,329.5z"/>
<text transform="matrix(1 0 0 1 444.6771 338.2193)" class="st26 st10 st25">Name</text>
<g>
	<text transform="matrix(1 0 0 1 475.5584 338.2193)" class="st5 st10 st25">[FTS]</text>
</g>
<path class="st27" d="M516.8,338.4v0.8c0,0.3-0.2,0.5-0.5,0.5h-5.7c-0.3,0-0.5-0.2-0.5-0.5v-7.7c0-0.3,0.2-0.5,0.5-0.5h1.5v6.2
	c0,0.6,0.5,1.2,1.2,1.2H516.8z M516.8,331.2V329h-3.5c-0.3,0-0.5,0.2-0.5,0.5v7.7c0,0.3,0.2,0.5,0.5,0.5h5.7c0.3,0,0.5-0.2,0.5-0.5
	v-5.5h-2.2C517.1,331.7,516.8,331.4,516.8,331.2z M519.4,330.5l-1.4-1.4c-0.1-0.1-0.2-0.1-0.4-0.1h-0.1v2h2v-0.1
	C519.5,330.7,519.4,330.6,519.4,330.5z"/>
<polygon class="st28" points="1092.9,348.1 1066.5,348.1 1052.4,325.7 1064.8,303.2 1092.9,303.2 1202.4,303.2 1228.8,303.2 
	1243,325.7 1230.5,348.1 1202.4,348.1 "/>
<g>
	<g>
		<path class="st5" d="M1102.2,319.3h1.3l3.5,11.2h-2.1l-2.1-7.5l-2.1,7.5h-2.1L1102.2,319.3z M1100.6,326.8h4.5v1.9h-4.5V326.8z"/>
		<path class="st5" d="M1109.2,330.2c-0.5-0.2-0.8-0.6-1-1c-0.2-0.4-0.4-1-0.4-1.6v-2.3c0-0.6,0.1-1.2,0.4-1.6c0.2-0.4,0.6-0.8,1-1
			c0.5-0.2,1-0.3,1.6-0.3c0.5,0,1,0.1,1.4,0.2c0.4,0.2,0.7,0.4,0.9,0.7c0.2,0.3,0.4,0.7,0.5,1.2l-1.8,0.6c-0.1-0.3-0.2-0.6-0.3-0.7
			c-0.2-0.2-0.4-0.2-0.6-0.2c-0.3,0-0.6,0.1-0.8,0.3c-0.2,0.2-0.3,0.5-0.3,0.9v2.1c0,0.4,0.1,0.7,0.3,0.9s0.4,0.3,0.8,0.3
			c0.3,0,0.5-0.1,0.6-0.2c0.2-0.2,0.3-0.4,0.3-0.7l1.8,0.6c-0.1,0.5-0.2,0.9-0.5,1.2c-0.2,0.3-0.5,0.6-0.9,0.7
			c-0.4,0.2-0.9,0.2-1.4,0.2C1110.2,330.6,1109.7,330.5,1109.2,330.2z"/>
		<path class="st5" d="M1116.1,330.2c-0.5-0.2-0.8-0.6-1-1c-0.2-0.4-0.4-1-0.4-1.6v-2.3c0-0.6,0.1-1.2,0.4-1.6c0.2-0.4,0.6-0.8,1-1
			c0.5-0.2,1-0.3,1.6-0.3c0.5,0,1,0.1,1.4,0.2c0.4,0.2,0.7,0.4,0.9,0.7c0.2,0.3,0.4,0.7,0.5,1.2l-1.8,0.6c-0.1-0.3-0.2-0.6-0.3-0.7
			c-0.2-0.2-0.4-0.2-0.6-0.2c-0.3,0-0.6,0.1-0.8,0.3c-0.2,0.2-0.3,0.5-0.3,0.9v2.1c0,0.4,0.1,0.7,0.3,0.9s0.4,0.3,0.8,0.3
			c0.3,0,0.5-0.1,0.6-0.2c0.2-0.2,0.3-0.4,0.3-0.7l1.8,0.6c-0.1,0.5-0.2,0.9-0.5,1.2c-0.2,0.3-0.5,0.6-0.9,0.7
			c-0.4,0.2-0.9,0.2-1.4,0.2C1117.1,330.6,1116.6,330.5,1116.1,330.2z"/>
		<path class="st5" d="M1123,330.2c-0.5-0.2-0.8-0.6-1.1-1s-0.4-1-0.4-1.6v-2c0-0.7,0.1-1.2,0.4-1.7s0.6-0.8,1-1.1
			c0.4-0.2,1-0.4,1.6-0.4c0.6,0,1.1,0.1,1.6,0.4c0.4,0.3,0.8,0.7,1,1.2c0.2,0.5,0.3,1.1,0.3,1.9v1.4h-4.4v-1.4h2.6v-0.6
			c0-0.3-0.1-0.6-0.3-0.8s-0.4-0.3-0.7-0.3c-0.3,0-0.6,0.1-0.8,0.3c-0.2,0.2-0.3,0.5-0.3,0.9v2.2c0,0.4,0.1,0.7,0.3,0.9
			c0.2,0.2,0.5,0.3,0.8,0.3c0.3,0,0.5-0.1,0.7-0.2c0.2-0.1,0.3-0.3,0.4-0.6l1.7,0.6c-0.2,0.6-0.5,1.1-0.9,1.5
			c-0.5,0.3-1.1,0.5-1.8,0.5C1124,330.6,1123.4,330.4,1123,330.2z"/>
		<path class="st5" d="M1129.8,330.2c-0.3-0.2-0.6-0.5-0.7-1c-0.2-0.4-0.2-0.9-0.2-1.5v-2.6c0-0.6,0.1-1.1,0.2-1.5
			c0.2-0.4,0.4-0.7,0.7-1c0.3-0.2,0.7-0.3,1.1-0.3c0.4,0,0.7,0.1,1.1,0.4s0.6,0.6,0.8,1.1l-0.2,1.4c0-0.2,0-0.4-0.1-0.5
			c-0.1-0.1-0.2-0.3-0.3-0.3c-0.1-0.1-0.3-0.1-0.5-0.1c-0.3,0-0.5,0.1-0.7,0.3c-0.2,0.2-0.2,0.5-0.2,0.8v2.3c0,0.3,0.1,0.6,0.2,0.8
			c0.2,0.2,0.4,0.3,0.7,0.3c0.2,0,0.4,0,0.5-0.1c0.1-0.1,0.2-0.2,0.3-0.3c0.1-0.1,0.1-0.3,0.1-0.5l0.1,1.4c-0.2,0.4-0.4,0.8-0.7,1
			c-0.3,0.2-0.7,0.4-1.1,0.4C1130.5,330.6,1130.2,330.5,1129.8,330.2z M1132.7,319.3h2v11.2h-2V319.3z"/>
		<path class="st5" d="M1137.7,330.2c-0.5-0.2-0.8-0.6-1.1-1s-0.4-1-0.4-1.6v-2c0-0.7,0.1-1.2,0.4-1.7s0.6-0.8,1-1.1
			c0.4-0.2,1-0.4,1.6-0.4c0.6,0,1.1,0.1,1.6,0.4c0.4,0.3,0.8,0.7,1,1.2c0.2,0.5,0.3,1.1,0.3,1.9v1.4h-4.4v-1.4h2.6v-0.6
			c0-0.3-0.1-0.6-0.3-0.8s-0.4-0.3-0.7-0.3c-0.3,0-0.6,0.1-0.8,0.3c-0.2,0.2-0.3,0.5-0.3,0.9v2.2c0,0.4,0.1,0.7,0.3,0.9
			c0.2,0.2,0.5,0.3,0.8,0.3c0.3,0,0.5-0.1,0.7-0.2c0.2-0.1,0.3-0.3,0.4-0.6l1.7,0.6c-0.2,0.6-0.5,1.1-0.9,1.5
			c-0.5,0.3-1.1,0.5-1.8,0.5C1138.7,330.6,1138.1,330.4,1137.7,330.2z"/>
		<path class="st5" d="M1143.8,322.5h2.1v8h-2.1V322.5z M1147.6,324.4c-0.1,0-0.2,0-0.4,0c-0.4,0-0.8,0.1-1,0.4s-0.4,0.6-0.4,1.1
			l-0.2-2c0.2-0.5,0.5-0.8,0.9-1.1c0.4-0.3,0.7-0.4,1.2-0.4c0.2,0,0.3,0,0.4,0.1c0.1,0.1,0.3,0.1,0.3,0.2l-0.6,1.9
			C1147.8,324.5,1147.7,324.4,1147.6,324.4z"/>
		<path class="st5" d="M1152.4,330c-0.4-0.4-0.5-1-0.5-1.8c0-0.8,0.2-1.4,0.7-1.9c0.5-0.4,1.1-0.6,2-0.6h1.3l0.1,1.6h-1.3
			c-0.3,0-0.5,0.1-0.7,0.2c-0.2,0.2-0.2,0.4-0.2,0.7c0,0.2,0.1,0.4,0.2,0.6c0.1,0.1,0.4,0.2,0.7,0.2c0.4,0,0.7-0.1,0.9-0.2
			s0.3-0.3,0.3-0.6l0.1,0.9c0,0.3-0.1,0.6-0.3,0.9c-0.2,0.2-0.4,0.4-0.7,0.5c-0.3,0.1-0.6,0.2-1,0.2
			C1153.3,330.6,1152.7,330.4,1152.4,330z M1155.8,325.1c0-0.3-0.1-0.5-0.3-0.7c-0.2-0.2-0.4-0.2-0.8-0.2c-0.2,0-0.5,0.1-0.7,0.2
			c-0.2,0.1-0.4,0.3-0.5,0.4l-1.6-0.6c0.2-0.6,0.5-1,0.9-1.3s1.1-0.5,1.8-0.5c0.6,0,1.1,0.1,1.5,0.3s0.8,0.5,1,0.9
			c0.2,0.4,0.3,0.9,0.3,1.4v5.4h-1.8V325.1z"/>
		<path class="st5" d="M1163.9,327.9c0,0.2,0,0.3,0.1,0.4c0.1,0.1,0.2,0.2,0.4,0.2h0.3v1.9h-0.9c-0.6,0-1.1-0.2-1.5-0.6
			c-0.3-0.4-0.5-0.9-0.5-1.6v-9h2V327.9z"/>
		<path class="st5" d="M1166.3,330c-0.4-0.4-0.5-1-0.5-1.8c0-0.8,0.2-1.4,0.7-1.9c0.5-0.4,1.1-0.6,2-0.6h1.3l0.1,1.6h-1.3
			c-0.3,0-0.5,0.1-0.7,0.2c-0.2,0.2-0.2,0.4-0.2,0.7c0,0.2,0.1,0.4,0.2,0.6c0.1,0.1,0.4,0.2,0.7,0.2c0.4,0,0.7-0.1,0.9-0.2
			s0.3-0.3,0.3-0.6l0.1,0.9c0,0.3-0.1,0.6-0.3,0.9c-0.2,0.2-0.4,0.4-0.7,0.5c-0.3,0.1-0.6,0.2-1,0.2
			C1167.2,330.6,1166.7,330.4,1166.3,330z M1169.8,325.1c0-0.3-0.1-0.5-0.3-0.7c-0.2-0.2-0.4-0.2-0.8-0.2c-0.2,0-0.5,0.1-0.7,0.2
			c-0.2,0.1-0.4,0.3-0.5,0.4l-1.6-0.6c0.2-0.6,0.5-1,0.9-1.3s1.1-0.5,1.8-0.5c0.6,0,1.1,0.1,1.5,0.3s0.8,0.5,1,0.9
			c0.2,0.4,0.3,0.9,0.3,1.4v5.4h-1.8V325.1z"/>
		<path class="st5" d="M1175.9,319.3h2v11.2h-2V319.3z M1176.7,319.3h5.3v1.9h-5.3V319.3z M1176.7,324.1h4.7v1.9h-4.7V324.1z"/>
		<path class="st5" d="M1182.8,328.4h2v2h-2V328.4z"/>
		<path class="st5" d="M1187.8,330.2c-0.5-0.3-0.9-0.7-1.2-1.2s-0.4-1.1-0.4-1.8v-4.7c0-0.7,0.1-1.3,0.4-1.8
			c0.3-0.5,0.7-0.9,1.2-1.2c0.5-0.3,1.1-0.4,1.8-0.4c0.7,0,1.3,0.1,1.8,0.4c0.5,0.3,0.9,0.7,1.2,1.2c0.3,0.5,0.4,1.1,0.4,1.8v4.7
			c0,0.7-0.1,1.3-0.4,1.8c-0.3,0.5-0.7,0.9-1.2,1.2c-0.5,0.3-1.1,0.4-1.8,0.4C1188.9,330.6,1188.3,330.4,1187.8,330.2z
			 M1190.4,328.4c0.2-0.1,0.4-0.3,0.5-0.5c0.1-0.2,0.2-0.5,0.2-0.8v-4.5c0-0.3-0.1-0.6-0.2-0.8c-0.1-0.2-0.3-0.4-0.5-0.5
			c-0.2-0.1-0.5-0.2-0.8-0.2s-0.5,0.1-0.7,0.2c-0.2,0.1-0.4,0.3-0.5,0.5c-0.1,0.2-0.2,0.5-0.2,0.8v4.5c0,0.3,0.1,0.6,0.2,0.8
			c0.1,0.2,0.3,0.4,0.5,0.5s0.5,0.2,0.7,0.2S1190.1,328.5,1190.4,328.4z"/>
	</g>
</g>
<polygon class="st0" points="1124.9,44 1107.5,44 1098.3,25.7 1106.4,7.4 1124.9,7.4 1196.5,7.4 1213.8,7.4 1223.1,25.7 1214.9,44 
	1196.5,44 "/>
<polygon class="st0" points="1258.9,44 1241.6,44 1232.3,25.6 1240.5,7.3 1258.9,7.3 1330.5,7.3 1347.9,7.3 1357.1,25.6 1349,44 
	1330.5,44 "/>
<g class="st29">
	<text transform="matrix(0.8826 0 0 1 1262.1932 31.1816)" class="st5 st30 st31">Registrarse</text>
</g>
<g class="st29">
	<text transform="matrix(0.8826 0 0 1 1124.7489 31.2773)" class="st5 st30 st31">Iniciar sesión</text>
</g>
<g>
	<defs>
		<circle id="SVGID_2_" cx="259" cy="234.5" r="140"/>
	</defs>
	<clipPath id="SVGID_3_">
		<use xlink:href="#SVGID_2_"  style="overflow:visible;"/>
	</clipPath>
	<g style="clip-path:url(#SVGID_3_);">
		
			<image style="overflow:visible;" width="500" height="500" xlink:href="F1EA9503.jpg"  transform="matrix(0.7431 0 0 0.7431 73.1865 48.691)">
		</image>
	</g>
</g>
<image style="overflow:visible;" width="362" height="204" xlink:href="../../../../../Proyecto CIBB (Comunidad Ispana de Boom Beach)/Illustrations/Designs-CIBB-Rentable-08.png"  transform="matrix(1.0028 0 0 0.8725 950 545)">
</image>
<image style="overflow:visible;" width="362" height="204" xlink:href="../../../../../Proyecto CIBB (Comunidad Ispana de Boom Beach)/Illustrations/Designs-CIBB-Rentable-08.png"  transform="matrix(1.0028 0 0 0.8725 540 545)">
</image>
<image style="overflow:visible;" width="362" height="204" xlink:href="../../../../../Proyecto CIBB (Comunidad Ispana de Boom Beach)/Illustrations/Designs-CIBB-Rentable-08.png"  transform="matrix(1.0028 0 0 0.8725 131 545)">
</image>
<g>
	<defs>
		<ellipse id="SVGID_4_" cx="39.1" cy="101.2" rx="17.1" ry="16.8"/>
	</defs>
	<clipPath id="SVGID_5_">
		<use xlink:href="#SVGID_4_"  style="overflow:visible;"/>
	</clipPath>
	<g style="clip-path:url(#SVGID_5_);">
		
			<image style="overflow:visible;" width="500" height="500" xlink:href="F1EA9502.jpg"  transform="matrix(9.084412e-02 0 0 8.892265e-02 16.4034 79.0169)">
		</image>
	</g>
</g>
<polygon class="st32" points="39.9,7 57.4,16.8 57.4,32.6 39.9,43 22.5,32.6 22.5,16.8 "/>
<polygon class="st33" points="35.6,20.2 35.6,18.5 34.1,18.5 34.1,15.7 32.3,15.7 32.3,17 31,17 31,18.7 34,18.7 34,20.2 "/>
<polygon class="st33" points="44.5,23.1 41.4,23.1 41.4,26.5 43.2,26.5 43.2,24.9 44.8,24.9 44.8,23.1 44.6,23.1 44.3,23.1 
	44.3,22.3 44.6,22.1 46.1,22.1 46.1,26.3 44.7,26.3 44.7,29.4 43.1,29.4 43.1,30.8 41.8,30.8 41.8,29.4 38.3,29.4 38.3,30.8 
	37,30.8 37,29.4 35.5,29.4 35.5,26.5 34,26.5 34,22.1 35.6,22.1 36.3,22.1 35.9,23.1 35.6,23.1 35.4,23.1 35.4,24.9 37,24.9 
	37,26.5 38.8,26.5 38.8,23.1 35.6,23.1 35.2,23 35.4,22.3 35.6,22.1 35.9,22.1 35.9,20.5 37.3,20.5 37.3,18.9 43.1,18.9 43.1,20.5 
	44.3,20.5 44.3,22.1 44.5,22.1 45.1,22.1 44.8,23.1 "/>
<polygon class="st33" points="44.5,20.4 46.1,20.4 46.1,18.9 49,18.9 49,17.1 47.6,17.1 47.6,15.7 46,15.7 46,18.7 44.5,18.7 "/>
<polygon class="st33" points="44.8,29.5 44.8,31.2 46.3,31.2 46.3,34.1 48.1,34.1 48.1,32.7 49.5,32.7 49.5,31 46.5,31 46.5,29.5 
	"/>
<polygon class="st33" points="35.4,29.5 33.8,29.5 33.8,31 30.9,31 30.9,32.7 32.3,32.7 32.3,34.1 33.9,34.1 33.9,31.1 35.4,31.1 
	"/>
<path class="st28" d="M1197.2,495.8h-247c-15.2,0-27.5-12.3-27.5-27.5v0c0-15.2,12.3-27.5,27.5-27.5h247c15.2,0,27.5,12.3,27.5,27.5
	v0C1224.7,483.5,1212.3,495.8,1197.2,495.8z"/>
<polygon class="st5" points="945.1,463.3 945.1,474.3 953.1,469.3 "/>
<text transform="matrix(1 0 0 1 970.3218 473.7136)" class="st5 st34 st35">0:01 / 5:30</text>
<polygon class="st5" points="1189.7,466.8 1192.7,466.8 1196.7,462.8 1196.7,474.8 1192.7,470.8 1189.7,470.8 "/>
<path class="st16" d="M1198.7,462.8c0,0,5,0,5,6s-5,6-5,6"/>
<path class="st16" d="M1197.7,465.6c0,0,2.6,0,2.6,3.1s-2.6,3.1-2.6,3.1"/>
<path class="st36" d="M1162.7,470.8h-89c-1.1,0-2-0.9-2-2l0,0c0-1.1,0.9-2,2-2h89c1.1,0,2,0.9,2,2l0,0
	C1164.7,469.9,1163.8,470.8,1162.7,470.8z"/>
</svg>
