<?xml version="1.0" encoding="utf-8"?>
<!-- Generator: Adobe Illustrator 24.1.1, SVG Export Plug-In . SVG Version: 6.00 Build 0)  -->
<svg version="1.1" id="Capa_1" xmlns="http://www.w3.org/2000/svg" xmlns:xlink="http://www.w3.org/1999/xlink" x="0px" y="0px"
	 viewBox="0 0 1179.2 360.4" style="enable-background:new 0 0 1179.2 360.4;" xml:space="preserve">
<style type="text/css">
	.st0{opacity:0.54;fill:#212121;}
	.st1{fill:none;}
	.st2{fill:#FFFFFF;}
	.st3{font-family:'ArialNarrow';}
	.st4{font-size:12.2304px;}
	.st5{fill:#FCFCFC;}
	.st6{font-size:19.7273px;}
	.st7{fill:#020202;}
	.st8{fill:#393D5B;stroke:#D80165;stroke-width:2;stroke-miterlimit:10;}
	.st9{font-family:'MyriadPro-Regular';}
	.st10{font-size:15.0528px;}
	.st11{fill:none;stroke:#FFFFFF;stroke-miterlimit:10;}
	.st12{fill:#AAAAAA;}
	.st13{fill:#3EA8FF;}
</style>
<path class="st0" d="M1161.8,355.6H21.6c-9.6,0-17.4-7.8-17.4-17.4V22.1c0-9.6,7.8-17.4,17.4-17.4h1140.2c9.6,0,17.4,7.8,17.4,17.4
	v316.1C1179.2,347.8,1171.4,355.6,1161.8,355.6z"/>
<rect x="35.6" y="47.6" class="st1" width="518" height="78.3"/>
<text transform="matrix(1 0 0 1 35.5504 56.3594)"><tspan x="0" y="0" class="st2 st3 st4">Lorem ipsum dolor sit amet, consectetuer adipiscing elit, sed diam nonummy nibh euismod tincidunt ut laoreet dolore </tspan><tspan x="0" y="14.7" class="st2 st3 st4">magna aliquam erat volutpat. Ut wisi enim ad minim veniam, quis nostrud exerci tation ullamcorper suscipit lobortis </tspan><tspan x="0" y="29.4" class="st2 st3 st4">nisl ut aliquip ex ea commodo consequat. Duis autem vel eum iriure dolor in hendrerit in vulputate velit esse molestie </tspan><tspan x="0" y="44" class="st2 st3 st4">consequat, vel illum dolore eu feugiat nulla facilisis at vero eros et accumsan et iusto odio dignissim qui blandit </tspan><tspan x="0" y="58.7" class="st2 st3 st4">praesent luptatum zzril delenit augue duis dolore te feugait nulla facilisi.</tspan></text>
<text transform="matrix(1 0 0 1 35.36 36.0298)" class="st5 st3 st6">Descripción</text>
<rect x="35.2" y="152.4" class="st7" width="340.6" height="167.5"/>
<rect x="420" y="152.4" class="st7" width="340.6" height="167.5"/>
<rect x="805.7" y="152.4" class="st7" width="340.6" height="167.5"/>
<path class="st8" d="M1037.8,106.1H805.4c-14.3,0-25.9-11.6-25.9-25.9v0c0-14.3,11.6-25.9,25.9-25.9h232.4
	c14.3,0,25.9,11.6,25.9,25.9v0C1063.6,94.5,1052,106.1,1037.8,106.1z"/>
<polygon class="st2" points="800.7,75.5 800.7,85.9 808.2,81.1 "/>
<text transform="matrix(1 0 0 1 824.3571 85.3013)" class="st2 st9 st10">0:01 / 5:30</text>
<polygon class="st2" points="1030.7,78.8 1033.5,78.8 1037.3,75 1037.3,86.3 1033.5,82.6 1030.7,82.6 "/>
<path class="st11" d="M1039.2,75c0,0,4.7,0,4.7,5.6s-4.7,5.6-4.7,5.6"/>
<path class="st11" d="M1038.3,77.7c0,0,2.4,0,2.4,2.9c0,2.9-2.4,2.9-2.4,2.9"/>
<path class="st12" d="M1005.3,82.6h-83.7c-1,0-1.9-0.8-1.9-1.9v0c0-1,0.8-1.9,1.9-1.9h83.7c1,0,1.9,0.8,1.9,1.9v0
	C1007.2,81.7,1006.3,82.6,1005.3,82.6z"/>
<path class="st13" d="M233.7,261.4h-56.4c-3.6,0-6.5-2.9-6.5-6.5v-39.1c0-3.6,2.9-6.5,6.5-6.5h56.4c3.6,0,6.5,2.9,6.5,6.5v39.1
	C240.2,258.5,237.3,261.4,233.7,261.4z M185.9,216.9c-4.2,0-7.6,3.4-7.6,7.6s3.4,7.6,7.6,7.6s7.6-3.4,7.6-7.6
	S190.1,216.9,185.9,216.9z M179.4,252.7h52.1v-15.2l-11.9-11.9c-0.6-0.6-1.7-0.6-2.3,0L199,244l-7.5-7.5c-0.6-0.6-1.7-0.6-2.3,0
	l-9.7,9.7V252.7z"/>
<path class="st13" d="M618.9,262.1h-56.4c-3.6,0-6.5-2.9-6.5-6.5v-39.1c0-3.6,2.9-6.5,6.5-6.5h56.4c3.6,0,6.5,2.9,6.5,6.5v39.1
	C625.5,259.2,622.5,262.1,618.9,262.1z M571.2,217.7c-4.2,0-7.6,3.4-7.6,7.6c0,4.2,3.4,7.6,7.6,7.6c4.2,0,7.6-3.4,7.6-7.6
	C578.8,221.1,575.4,217.7,571.2,217.7z M564.7,253.5h52.1v-15.2l-11.9-11.9c-0.6-0.6-1.7-0.6-2.3,0l-18.4,18.4l-7.5-7.5
	c-0.6-0.6-1.7-0.6-2.3,0l-9.7,9.7V253.5z"/>
<path class="st13" d="M1004.2,262.1h-56.4c-3.6,0-6.5-2.9-6.5-6.5v-39.1c0-3.6,2.9-6.5,6.5-6.5h56.4c3.6,0,6.5,2.9,6.5,6.5v39.1
	C1010.7,259.2,1007.8,262.1,1004.2,262.1z M956.5,217.7c-4.2,0-7.6,3.4-7.6,7.6c0,4.2,3.4,7.6,7.6,7.6c4.2,0,7.6-3.4,7.6-7.6
	C964.1,221.1,960.7,217.7,956.5,217.7z M950,253.5h52.1v-15.2l-11.9-11.9c-0.6-0.6-1.7-0.6-2.3,0l-18.4,18.4l-7.5-7.5
	c-0.6-0.6-1.7-0.6-2.3,0l-9.7,9.7V253.5z"/>
</svg>
