<?xml version="1.0" encoding="utf-8"?>
<!-- Generator: Adobe Illustrator 24.1.1, SVG Export Plug-In . SVG Version: 6.00 Build 0)  -->
<svg version="1.1" id="Capa_1" xmlns="http://www.w3.org/2000/svg" xmlns:xlink="http://www.w3.org/1999/xlink" x="0px" y="0px"
	 viewBox="0 0 941.5 337" style="enable-background:new 0 0 941.5 337;" xml:space="preserve">
<style type="text/css">
	.st0{fill:#FFFFFF;}
	.st1{fill:none;stroke:#FFFFFF;stroke-width:0.5;stroke-miterlimit:10;}
	.st2{fill:none;stroke:#FFFFFF;stroke-miterlimit:10;}
	.st3{fill:none;stroke:#32F987;stroke-miterlimit:10;}
	.st4{fill:none;stroke:#2086E2;stroke-miterlimit:10;}
	.st5{fill:none;stroke:#F4278E;stroke-miterlimit:10;}
	.st6{fill:#F4278E;}
	.st7{fill:#2086E2;}
	.st8{fill:#32F987;}
	.st9{font-family:'ArialNarrow';}
	.st10{font-size:11px;}
	.st11{fill:#FCFCFC;}
	.st12{fill:#F86EFF;}
	.st13{font-size:13.0596px;}
	.st14{opacity:0.38;fill:#FFFFFF;}
	.st15{opacity:0.5;fill:#FFFFFF;}
	.st16{fill:#393D5B;stroke:#D80165;stroke-width:2;stroke-miterlimit:10;}
	.st17{fill:#2B2B2B;}
</style>
<g>
	<g>
		<g>
			<path class="st0" d="M2.4,129.1h53.9v10.5H2.4V129.1z M21.5,134.2h15.7V190H21.5V134.2z"/>
			<path class="st0" d="M83.1,129.1h10.5l27.1,60.9h-16.2l-16.1-40.7L72.2,190H56L83.1,129.1z M71.1,170H106v10.4H71.1V170z"/>
			<path class="st0" d="M182.3,156.5v15.1c0,3.9-1.1,7.2-3.3,10.1c-2.2,2.9-5.3,5.1-9.3,6.6c-4,1.5-8.7,2.3-14.2,2.3
				c-5.5,0-10.3-0.7-14.4-2.2c-4.1-1.5-7.2-3.6-9.4-6.3c-2.2-2.7-3.3-5.9-3.3-9.6v-24.8c0-3.9,1.1-7.3,3.3-10.2
				c2.2-2.9,5.3-5.1,9.3-6.7c4-1.6,8.7-2.3,14.2-2.3s10,0.7,13.8,2.1c3.8,1.4,6.7,3.5,8.8,6.3c2.1,2.8,3.4,6.3,3.8,10.6h-16.4
				c-0.2-1.8-0.7-3.2-1.6-4.4c-0.9-1.2-2-2-3.4-2.6c-1.4-0.6-3.1-0.8-5-0.8c-2.1,0-4,0.3-5.6,1c-1.6,0.7-2.8,1.6-3.7,2.8
				c-0.9,1.2-1.3,2.6-1.3,4.2v24.8c0,1.4,0.4,2.6,1.3,3.6c0.9,1.1,2.2,1.9,3.8,2.4c1.7,0.6,3.6,0.8,5.8,0.8c2.2,0,4.1-0.3,5.7-0.9
				c1.6-0.6,2.9-1.5,3.8-2.6c0.9-1.2,1.4-2.5,1.4-4.1V167h-10.3v-10.5H182.3z"/>
			<path class="st0" d="M233.5,162.9v10.5h-37.4v-10.5H233.5z"/>
			<path class="st0" d="M247.9,129.1h15.6V190h-15.6V129.1z M254.2,129.1H296v10.5h-41.8V129.1z M254.2,155.1h37v10.5h-37V155.1z"/>
			<path class="st0" d="M301.6,179.1h15.7V190h-15.7V179.1z"/>
			<path class="st0" d="M340.7,188.4c-4.1-1.5-7.2-3.6-9.4-6.4c-2.2-2.8-3.3-6-3.3-9.7v-25.5c0-3.7,1.1-7,3.3-9.8s5.4-4.9,9.4-6.4
				c4.1-1.5,8.9-2.2,14.4-2.2c5.5,0,10.3,0.7,14.4,2.2c4.1,1.5,7.2,3.6,9.4,6.4c2.2,2.8,3.3,6,3.3,9.8v25.5c0,3.7-1.1,7-3.3,9.7
				c-2.2,2.8-5.3,4.9-9.4,6.4c-4.1,1.5-8.9,2.2-14.4,2.2C349.5,190.6,344.7,189.9,340.7,188.4z M360.9,178.7c1.7-0.6,3-1.6,3.8-2.8
				c0.9-1.2,1.3-2.6,1.3-4.3v-24.3c0-1.6-0.4-3-1.3-4.2c-0.9-1.2-2.2-2.1-3.8-2.8c-1.7-0.7-3.6-1-5.9-1c-2.2,0-4.2,0.3-5.9,1
				c-1.7,0.7-2.9,1.6-3.8,2.8c-0.9,1.2-1.4,2.6-1.4,4.2v24.3c0,1.6,0.5,3.1,1.4,4.3c0.9,1.2,2.2,2.1,3.8,2.8c1.7,0.6,3.6,1,5.9,1
				C357.3,179.7,359.2,179.4,360.9,178.7z"/>
		</g>
	</g>
</g>
<g>
	<g>
		<path class="st0" d="M6.6,80.4h2.2v22.1H6.6V80.4z M8.1,80.4h12.4v2H8.1V80.4z M8.1,90.7h10.7v2H8.1V90.7z"/>
		<path class="st0" d="M25.9,96.3c0,1.4,0.4,2.5,1.1,3.2c0.7,0.8,1.7,1.1,3,1.1c1.3,0,2.3-0.3,3-1c0.7-0.7,1.1-1.7,1.1-3l0.2,3.3
			c-0.4,0.8-1,1.4-1.9,2c-0.9,0.5-2,0.8-3.3,0.8c-1.7,0-3.1-0.6-4-1.7s-1.4-2.7-1.4-4.7v-9.6h2.2V96.3z M34.1,86.7h2.2v15.7h-2.2
			V86.7z"/>
		<path class="st0" d="M43.7,101.9c-1-0.6-1.8-1.4-2.4-2.4c-0.5-1.1-0.8-2.3-0.8-3.8v-1.8c0-1.6,0.3-2.9,0.8-4
			c0.5-1.1,1.3-1.9,2.3-2.5s2.2-0.9,3.6-0.9c1.3,0,2.4,0.3,3.4,0.8s1.6,1.4,2.1,2.5c0.5,1.1,0.7,2.4,0.7,3.9v1.8H42v-2h9.3v-0.2
			c0-1.6-0.4-2.8-1.1-3.6c-0.7-0.9-1.8-1.3-3.1-1.3c-1.5,0-2.6,0.5-3.4,1.4c-0.8,0.9-1.2,2.2-1.2,3.8v2c0,1.6,0.4,2.8,1.3,3.7
			s2,1.3,3.6,1.3c0.7,0,1.4-0.2,2.2-0.5c0.7-0.3,1.3-0.7,1.9-1.3l1.5,1.4c-0.8,0.7-1.6,1.3-2.6,1.7s-2,0.6-2.9,0.6
			C45.9,102.7,44.7,102.4,43.7,101.9z"/>
		<path class="st0" d="M57.6,86.7h2.2v15.7h-2.2V86.7z M65.7,88.8c-0.5-0.2-1.1-0.3-1.7-0.3c-1.3,0-2.3,0.4-3.1,1.1
			c-0.7,0.7-1.1,1.7-1.1,2.9l-0.3-3c0.6-0.9,1.3-1.7,2.3-2.2c0.9-0.5,2-0.8,3.1-0.8c0.7,0,1.4,0.1,1.9,0.3c0.6,0.2,1.1,0.5,1.5,0.9
			l-1.4,1.8C66.6,89.2,66.1,89,65.7,88.8z"/>
		<path class="st0" d="M81.7,88.4l-8.5,12.1h8.9v2H70.4v-1.8l8.7-12h-8.5v-2h11.1V88.4z"/>
		<path class="st0" d="M87,101.5c-1-0.8-1.5-2-1.5-3.6c0-1.5,0.5-2.6,1.4-3.5c0.9-0.8,2.2-1.2,3.9-1.2H96l0.2,2h-5.4
			c-1,0-1.8,0.2-2.3,0.7c-0.6,0.5-0.8,1.1-0.8,1.9c0,0.9,0.3,1.6,1,2.1c0.7,0.5,1.7,0.7,2.9,0.7c1.4,0,2.4-0.1,3.2-0.4
			c0.7-0.3,1.1-0.7,1.1-1.2l0.3,2.1c-0.3,0.3-0.7,0.6-1.2,0.8c-0.5,0.2-1.1,0.4-1.7,0.5c-0.6,0.1-1.3,0.2-2,0.2
			C89.4,102.7,88,102.3,87,101.5z M95.9,92.5c0-1.3-0.3-2.3-1-3c-0.7-0.7-1.7-1.1-2.9-1.1c-0.7,0-1.5,0.1-2.2,0.4
			c-0.7,0.2-1.4,0.6-1.9,1l-1.6-1.1c0.6-0.7,1.4-1.3,2.4-1.7c1-0.4,2.1-0.6,3.3-0.6c1.3,0,2.4,0.2,3.4,0.7s1.6,1.1,2.1,2
			c0.5,0.9,0.7,1.9,0.7,3.2v10.1h-2.2V92.5z"/>
		<path class="st0" d="M111.5,101.8c-1.2-0.6-2-1.6-2.6-2.8c-0.6-1.2-0.9-2.7-0.9-4.4v-6.3c0-1.7,0.3-3.2,0.9-4.4
			c0.6-1.2,1.5-2.1,2.6-2.8s2.6-1,4.2-1s3,0.3,4.2,1s2,1.6,2.6,2.8s0.9,2.7,0.9,4.4v6.3c0,1.7-0.3,3.2-0.9,4.4
			c-0.6,1.2-1.5,2.1-2.6,2.8s-2.6,1-4.2,1S112.6,102.4,111.5,101.8z M118.7,100c0.8-0.5,1.5-1.2,1.9-2c0.4-0.9,0.7-2,0.7-3.2v-6.5
			c0-1.3-0.2-2.3-0.7-3.2c-0.4-0.9-1.1-1.6-1.9-2c-0.8-0.5-1.8-0.7-3-0.7c-1.2,0-2.2,0.2-3,0.7s-1.5,1.2-1.9,2
			c-0.4,0.9-0.7,2-0.7,3.2v6.5c0,1.3,0.2,2.3,0.7,3.2c0.4,0.9,1.1,1.6,1.9,2s1.8,0.7,3,0.7C116.9,100.7,117.9,100.5,118.7,100z"/>
		<path class="st0" d="M128.1,86.7h2.2v22.1h-2.2V86.7z M132,102.1c-0.9-0.4-1.5-1.1-1.9-2.1l0.2-3.3c0,0.7,0.2,1.3,0.5,2
			c0.3,0.6,0.8,1.1,1.4,1.5c0.6,0.4,1.3,0.6,2.1,0.6c1.3,0,2.3-0.4,3-1.2c0.7-0.8,1.1-1.9,1.1-3.3V93c0-1.4-0.4-2.6-1.1-3.4
			c-0.7-0.8-1.7-1.2-3-1.2c-0.8,0-1.5,0.2-2.1,0.6c-0.6,0.4-1.1,0.9-1.4,1.5c-0.3,0.6-0.5,1.3-0.5,1.9l-0.3-3c0.5-1,1.3-1.8,2.2-2.2
			c0.9-0.5,2-0.7,3.2-0.7c1.1,0,2.1,0.3,2.9,0.8s1.4,1.2,1.8,2.2c0.4,1,0.6,2.1,0.6,3.5v3.4c0,1.3-0.2,2.5-0.6,3.4
			c-0.4,1-1,1.7-1.9,2.2s-1.8,0.8-2.9,0.8C133.9,102.7,132.8,102.5,132,102.1z"/>
		<path class="st0" d="M147.8,101.9c-1-0.6-1.8-1.4-2.4-2.4c-0.5-1.1-0.8-2.3-0.8-3.8v-1.8c0-1.6,0.3-2.9,0.8-4
			c0.5-1.1,1.3-1.9,2.3-2.5s2.2-0.9,3.6-0.9c1.3,0,2.4,0.3,3.4,0.8s1.6,1.4,2.1,2.5c0.5,1.1,0.7,2.4,0.7,3.9v1.8h-11.4v-2h9.3v-0.2
			c0-1.6-0.4-2.8-1.1-3.6c-0.7-0.9-1.8-1.3-3.1-1.3c-1.5,0-2.6,0.5-3.4,1.4c-0.8,0.9-1.2,2.2-1.2,3.8v2c0,1.6,0.4,2.8,1.3,3.7
			s2,1.3,3.6,1.3c0.7,0,1.4-0.2,2.2-0.5c0.7-0.3,1.3-0.7,1.9-1.3l1.5,1.4c-0.8,0.7-1.6,1.3-2.6,1.7s-2,0.6-2.9,0.6
			C150,102.7,148.8,102.4,147.8,101.9z"/>
		<path class="st0" d="M161.7,86.7h2.2v15.7h-2.2V86.7z M169.7,88.8c-0.5-0.2-1.1-0.3-1.7-0.3c-1.3,0-2.3,0.4-3.1,1.1
			c-0.7,0.7-1.1,1.7-1.1,2.9l-0.3-3c0.6-0.9,1.3-1.7,2.3-2.2c0.9-0.5,2-0.8,3.1-0.8c0.7,0,1.4,0.1,1.9,0.3c0.6,0.2,1.1,0.5,1.5,0.9
			l-1.4,1.8C170.6,89.2,170.2,89,169.7,88.8z"/>
		<path class="st0" d="M175.7,101.5c-1-0.8-1.5-2-1.5-3.6c0-1.5,0.5-2.6,1.4-3.5c0.9-0.8,2.2-1.2,3.9-1.2h5.2l0.2,2h-5.4
			c-1,0-1.8,0.2-2.3,0.7c-0.6,0.5-0.8,1.1-0.8,1.9c0,0.9,0.3,1.6,1,2.1c0.7,0.5,1.7,0.7,2.9,0.7c1.4,0,2.4-0.1,3.2-0.4
			c0.7-0.3,1.1-0.7,1.1-1.2l0.3,2.1c-0.3,0.3-0.7,0.6-1.2,0.8c-0.5,0.2-1.1,0.4-1.7,0.5c-0.6,0.1-1.3,0.2-2,0.2
			C178.1,102.7,176.7,102.3,175.7,101.5z M184.6,92.5c0-1.3-0.3-2.3-1-3c-0.7-0.7-1.7-1.1-2.9-1.1c-0.7,0-1.5,0.1-2.2,0.4
			c-0.7,0.2-1.4,0.6-1.9,1l-1.6-1.1c0.6-0.7,1.4-1.3,2.4-1.7c1-0.4,2.1-0.6,3.3-0.6c1.3,0,2.4,0.2,3.4,0.7s1.6,1.1,2.1,2
			c0.5,0.9,0.7,1.9,0.7,3.2v10.1h-2.2V92.5z"/>
		<path class="st0" d="M190.3,86.7h7.1v1.9h-7.1V86.7z M192.8,101.5c-0.6-0.7-0.9-1.7-0.9-3.1V82.2h2.2v16.3c0,0.7,0.2,1.2,0.5,1.6
			c0.3,0.4,0.8,0.5,1.4,0.5h1.5v2h-1.8C194.3,102.6,193.4,102.2,192.8,101.5z"/>
		<path class="st0" d="M202.1,80.4h2.2v2.2h-2.2V80.4z M202.1,86.7h2.2v15.7h-2.2V86.7z"/>
		<path class="st0" d="M219.6,86.7h2.3l-6.2,15.7H214l-6.2-15.7h2.3l4.8,12.9L219.6,86.7z"/>
		<path class="st0" d="M225.7,101.5c-1-0.8-1.5-2-1.5-3.6c0-1.5,0.5-2.6,1.4-3.5c0.9-0.8,2.2-1.2,3.9-1.2h5.2l0.2,2h-5.4
			c-1,0-1.8,0.2-2.3,0.7c-0.6,0.5-0.8,1.1-0.8,1.9c0,0.9,0.3,1.6,1,2.1c0.7,0.5,1.7,0.7,2.9,0.7c1.4,0,2.4-0.1,3.2-0.4
			c0.7-0.3,1.1-0.7,1.1-1.2l0.3,2.1c-0.3,0.3-0.7,0.6-1.2,0.8c-0.5,0.2-1.1,0.4-1.7,0.5c-0.6,0.1-1.3,0.2-2,0.2
			C228.2,102.7,226.7,102.3,225.7,101.5z M234.6,92.5c0-1.3-0.3-2.3-1-3c-0.7-0.7-1.7-1.1-2.9-1.1c-0.7,0-1.5,0.1-2.2,0.4
			c-0.7,0.2-1.4,0.6-1.9,1l-1.6-1.1c0.6-0.7,1.4-1.3,2.4-1.7c1-0.4,2.1-0.6,3.3-0.6c1.3,0,2.4,0.2,3.4,0.7s1.6,1.1,2.1,2
			c0.5,0.9,0.7,1.9,0.7,3.2v10.1h-2.2V92.5z"/>
	</g>
</g>
<g>
	<g>
		<path class="st0" d="M6,216.6h1.5v15H6V216.6z M7,230.2h8.6v1.4H7V230.2z"/>
		<path class="st0" d="M18.2,216.6h1.5v1.5h-1.5V216.6z M18.2,220.9h1.5v10.7h-1.5V220.9z"/>
		<path class="st0" d="M24.5,231.2c-0.6-0.3-1-0.8-1.3-1.5c-0.3-0.6-0.4-1.4-0.4-2.3v-2.3c0-0.9,0.1-1.7,0.4-2.4
			c0.3-0.7,0.7-1.1,1.2-1.5c0.5-0.3,1.2-0.5,1.9-0.5c0.8,0,1.5,0.2,2.1,0.5c0.6,0.3,1.1,0.8,1.5,1.5l-0.2,2.1c0-0.5-0.1-0.9-0.3-1.3
			c-0.2-0.4-0.5-0.8-0.9-1c-0.4-0.3-0.9-0.4-1.5-0.4c-0.9,0-1.6,0.3-2.1,0.8c-0.5,0.5-0.7,1.3-0.7,2.3v2.3c0,1,0.2,1.7,0.7,2.2
			c0.5,0.5,1.2,0.8,2.1,0.8c0.5,0,1-0.1,1.4-0.4c0.4-0.3,0.7-0.6,0.9-1s0.3-0.9,0.3-1.3l0.1,2.2c-0.3,0.7-0.7,1.1-1.3,1.4
			s-1.3,0.4-2.2,0.4C25.7,231.7,25.1,231.6,24.5,231.2z M29.8,216.6h1.5v15h-1.5V216.6z"/>
		<path class="st0" d="M36.3,231.2c-0.7-0.4-1.2-0.9-1.6-1.6c-0.4-0.7-0.6-1.6-0.6-2.6v-1.2c0-1.1,0.2-2,0.5-2.7
			c0.4-0.7,0.9-1.3,1.5-1.7c0.7-0.4,1.5-0.6,2.4-0.6c0.9,0,1.7,0.2,2.3,0.6c0.6,0.4,1.1,0.9,1.4,1.7c0.3,0.7,0.5,1.6,0.5,2.7v1.2
			h-7.7v-1.3h6.3v-0.1c0-1.1-0.2-1.9-0.7-2.5c-0.5-0.6-1.2-0.9-2.1-0.9c-1,0-1.8,0.3-2.3,0.9s-0.8,1.5-0.8,2.6v1.4
			c0,1.1,0.3,1.9,0.9,2.5c0.6,0.6,1.4,0.9,2.4,0.9c0.5,0,1-0.1,1.5-0.3s0.9-0.5,1.3-0.9l1,1c-0.5,0.5-1.1,0.9-1.8,1.2
			c-0.7,0.3-1.3,0.4-2,0.4C37.9,231.7,37,231.6,36.3,231.2z"/>
		<path class="st0" d="M45.8,220.9h1.5v10.7h-1.5V220.9z M51.3,222.3c-0.3-0.1-0.7-0.2-1.2-0.2c-0.9,0-1.6,0.2-2.1,0.7
			c-0.5,0.5-0.7,1.1-0.7,2l-0.2-2.1c0.4-0.6,0.9-1.1,1.5-1.5c0.6-0.4,1.3-0.5,2.1-0.5c0.5,0,0.9,0.1,1.3,0.2s0.7,0.3,1,0.6l-1,1.2
			C51.9,222.6,51.6,222.4,51.3,222.3z"/>
		<path class="st0" d="M55.3,230.9c-0.7-0.6-1-1.4-1-2.4c0-1,0.3-1.8,0.9-2.3c0.6-0.6,1.5-0.8,2.7-0.8h3.6l0.1,1.4h-3.7
			c-0.7,0-1.2,0.2-1.6,0.5c-0.4,0.3-0.6,0.8-0.6,1.3c0,0.6,0.2,1.1,0.7,1.4s1.1,0.5,2,0.5c0.9,0,1.6-0.1,2.1-0.3
			c0.5-0.2,0.8-0.4,0.8-0.8l0.2,1.4c-0.2,0.2-0.5,0.4-0.8,0.6c-0.3,0.2-0.7,0.3-1.1,0.4s-0.9,0.1-1.4,0.1
			C57,231.7,56,231.4,55.3,230.9z M61.3,224.8c0-0.9-0.2-1.5-0.7-2c-0.5-0.5-1.1-0.7-2-0.7c-0.5,0-1,0.1-1.5,0.2
			c-0.5,0.2-0.9,0.4-1.3,0.7l-1.1-0.7c0.4-0.5,0.9-0.9,1.6-1.1c0.7-0.3,1.4-0.4,2.2-0.4c0.9,0,1.6,0.2,2.3,0.5
			c0.6,0.3,1.1,0.8,1.4,1.4c0.3,0.6,0.5,1.3,0.5,2.1v6.9h-1.5V224.8z"/>
		<path class="st0" d="M67.4,231.2c-0.6-0.3-1-0.8-1.3-1.5c-0.3-0.6-0.4-1.4-0.4-2.3v-2.3c0-0.9,0.1-1.7,0.4-2.4
			c0.3-0.7,0.7-1.1,1.2-1.5c0.5-0.3,1.2-0.5,1.9-0.5c0.8,0,1.5,0.2,2.1,0.5c0.6,0.3,1.1,0.8,1.5,1.5l-0.2,2.1c0-0.5-0.1-0.9-0.3-1.3
			c-0.2-0.4-0.5-0.8-0.9-1c-0.4-0.3-0.9-0.4-1.5-0.4c-0.9,0-1.6,0.3-2.1,0.8c-0.5,0.5-0.7,1.3-0.7,2.3v2.3c0,1,0.2,1.7,0.7,2.2
			c0.5,0.5,1.2,0.8,2.1,0.8c0.5,0,1-0.1,1.4-0.4c0.4-0.3,0.7-0.6,0.9-1s0.3-0.9,0.3-1.3l0.1,2.2c-0.3,0.7-0.7,1.1-1.3,1.4
			s-1.3,0.4-2.2,0.4C68.6,231.7,67.9,231.6,67.4,231.2z M72.7,216.6h1.5v15h-1.5V216.6z"/>
		<path class="st0" d="M79.1,231.2c-0.7-0.4-1.2-0.9-1.5-1.6s-0.5-1.5-0.5-2.5v-1.7c0-1,0.2-1.8,0.5-2.5s0.8-1.2,1.5-1.6
			c0.7-0.4,1.5-0.5,2.4-0.5s1.7,0.2,2.4,0.5c0.7,0.4,1.2,0.9,1.5,1.6s0.5,1.5,0.5,2.5v1.8c0,1-0.2,1.8-0.5,2.5s-0.8,1.2-1.5,1.6
			c-0.7,0.4-1.5,0.5-2.4,0.5S79.7,231.6,79.1,231.2z M83.6,229.5c0.5-0.6,0.8-1.4,0.8-2.4v-1.8c0-1-0.3-1.8-0.8-2.4
			c-0.5-0.6-1.2-0.8-2.2-0.8c-0.9,0-1.6,0.3-2.2,0.8s-0.8,1.4-0.8,2.4v1.8c0,1,0.3,1.8,0.8,2.4c0.5,0.6,1.2,0.8,2.2,0.8
			C82.4,230.4,83.1,230.1,83.6,229.5z"/>
		<path class="st0" d="M92.5,220.9h1.5v15h-1.5V220.9z M95.1,231.3c-0.6-0.3-1-0.8-1.3-1.4l0.1-2.2c0,0.5,0.1,0.9,0.3,1.3
			c0.2,0.4,0.5,0.8,0.9,1c0.4,0.3,0.9,0.4,1.4,0.4c0.9,0,1.6-0.3,2.1-0.8s0.7-1.3,0.7-2.2v-2.3c0-1-0.2-1.7-0.7-2.3
			c-0.5-0.5-1.2-0.8-2.1-0.8c-0.5,0-1,0.1-1.4,0.4c-0.4,0.3-0.7,0.6-0.9,1c-0.2,0.4-0.3,0.9-0.3,1.3l-0.2-2.1
			c0.4-0.7,0.9-1.2,1.5-1.5c0.6-0.3,1.3-0.5,2.1-0.5c0.8,0,1.4,0.2,1.9,0.5c0.5,0.3,0.9,0.8,1.2,1.5c0.3,0.7,0.4,1.4,0.4,2.4v2.3
			c0,0.9-0.1,1.7-0.4,2.3c-0.3,0.6-0.7,1.1-1.3,1.5c-0.6,0.3-1.2,0.5-2,0.5C96.4,231.7,95.6,231.6,95.1,231.3z"/>
		<path class="st0" d="M105.6,231.2c-0.7-0.4-1.2-0.9-1.5-1.6s-0.5-1.5-0.5-2.5v-1.7c0-1,0.2-1.8,0.5-2.5s0.8-1.2,1.5-1.6
			c0.7-0.4,1.5-0.5,2.4-0.5s1.7,0.2,2.4,0.5c0.7,0.4,1.2,0.9,1.5,1.6s0.5,1.5,0.5,2.5v1.8c0,1-0.2,1.8-0.5,2.5s-0.8,1.2-1.5,1.6
			c-0.7,0.4-1.5,0.5-2.4,0.5S106.3,231.6,105.6,231.2z M110.2,229.5c0.5-0.6,0.8-1.4,0.8-2.4v-1.8c0-1-0.3-1.8-0.8-2.4
			c-0.5-0.6-1.2-0.8-2.2-0.8c-0.9,0-1.6,0.3-2.2,0.8s-0.8,1.4-0.8,2.4v1.8c0,1,0.3,1.8,0.8,2.4c0.5,0.6,1.2,0.8,2.2,0.8
			C108.9,230.4,109.7,230.1,110.2,229.5z"/>
		<path class="st0" d="M115.4,220.9h1.5v10.7h-1.5V220.9z M120.9,222.3c-0.3-0.1-0.7-0.2-1.2-0.2c-0.9,0-1.6,0.2-2.1,0.7
			c-0.5,0.5-0.7,1.1-0.7,2l-0.2-2.1c0.4-0.6,0.9-1.1,1.5-1.5c0.6-0.4,1.3-0.5,2.1-0.5c0.5,0,0.9,0.1,1.3,0.2s0.7,0.3,1,0.6l-1,1.2
			C121.5,222.6,121.2,222.4,120.9,222.3z"/>
		<path class="st0" d="M124.4,220.9h1.5v1.5h-1.5V220.9z M124.4,230.1h1.5v1.5h-1.5V230.1z"/>
	</g>
</g>
<line class="st1" x1="877" y1="75.3" x2="562" y2="75.3"/>
<line class="st1" x1="877" y1="87.3" x2="562" y2="87.3"/>
<line class="st1" x1="877" y1="99.3" x2="562" y2="99.3"/>
<line class="st1" x1="877" y1="111.3" x2="562" y2="111.3"/>
<line class="st1" x1="877" y1="123.3" x2="562" y2="123.3"/>
<line class="st1" x1="877" y1="135.2" x2="562" y2="135.2"/>
<line class="st1" x1="877" y1="147.2" x2="562" y2="147.2"/>
<line class="st1" x1="877" y1="159.2" x2="562" y2="159.2"/>
<line class="st1" x1="877" y1="171.2" x2="562" y2="171.2"/>
<line class="st1" x1="877" y1="183.1" x2="562" y2="183.1"/>
<line class="st2" x1="877" y1="195.1" x2="562" y2="195.1"/>
<line class="st1" x1="876.2" y1="202.6" x2="877" y2="75"/>
<line class="st1" x1="825.4" y1="202.6" x2="826.2" y2="75"/>
<line class="st1" x1="774.6" y1="202.6" x2="775.5" y2="75"/>
<line class="st1" x1="723.9" y1="202.6" x2="724.7" y2="75"/>
<line class="st1" x1="673.1" y1="202.6" x2="674" y2="75"/>
<line class="st1" x1="622.4" y1="202.6" x2="623.2" y2="75"/>
<line class="st2" x1="571.6" y1="202.6" x2="572.5" y2="75"/>
<path class="st3" d="M572.5,171.2c0,0,96.7-60.2,151.8-24s152.7-24,152.7-24"/>
<path class="st4" d="M571.9,159.2c0,0,71.1,14.8,152.8-35.9S877,195.1,877,195.1"/>
<path class="st5" d="M571.9,135.2c0,0,45.5,41.2,152.6-24.3c0,0,53.5-32.9,101.8,12.3c13.8,12.9,31.8,20.7,50.6,25.2"/>
<circle class="st6" cx="572.5" cy="135.5" r="1.5"/>
<circle class="st6" cx="622.5" cy="147.5" r="1.5"/>
<circle class="st6" cx="673.5" cy="136.5" r="1.5"/>
<circle class="st6" cx="724.5" cy="110.5" r="1.5"/>
<circle class="st6" cx="775.5" cy="99.5" r="1.5"/>
<circle class="st6" cx="826.5" cy="123.5" r="1.5"/>
<circle class="st6" cx="876.5" cy="148.5" r="1.5"/>
<circle class="st7" cx="572.5" cy="159.5" r="1.5"/>
<circle class="st7" cx="622.5" cy="159.5" r="1.5"/>
<circle class="st7" cx="673.5" cy="147.5" r="1.5"/>
<circle class="st7" cx="724.5" cy="123.5" r="1.5"/>
<circle class="st7" cx="775.5" cy="111.5" r="1.5"/>
<circle class="st7" cx="825.5" cy="135.5" r="1.5"/>
<circle class="st7" cx="876.5" cy="194.5" r="1.5"/>
<circle class="st8" cx="572.5" cy="171.5" r="1.5"/>
<circle class="st8" cx="623.5" cy="146.5" r="1.5"/>
<circle class="st8" cx="673.5" cy="135.5" r="1.5"/>
<circle class="st8" cx="724.5" cy="147.5" r="1.5"/>
<circle class="st8" cx="774.5" cy="158.5" r="1.5"/>
<circle class="st8" cx="825.5" cy="147.5" r="1.5"/>
<circle class="st8" cx="876.5" cy="123.5" r="1.5"/>
<rect x="577" y="49" class="st6" width="32" height="10"/>
<text transform="matrix(1 0 0 1 612.7848 57.2536)" class="st0 st9 st10">Asistencia</text>
<rect x="672" y="49" class="st7" width="32" height="10"/>
<text transform="matrix(1 0 0 1 707.7848 57.2536)" class="st0 st9 st10">Actividades</text>
<rect x="765" y="49" class="st8" width="32" height="10"/>
<text transform="matrix(1 0 0 1 800.7848 57.2536)" class="st0 st9 st10">Participaciones</text>
<text transform="matrix(1 0 0 1 546.0895 78.4307)" class="st0 st9 st10">100</text>
<text transform="matrix(1 0 0 1 551.0895 90.4307)" class="st0 st9 st10">90</text>
<text transform="matrix(1 0 0 1 551.0895 102.4307)" class="st0 st9 st10">80</text>
<text transform="matrix(1 0 0 1 551.0895 114.4307)" class="st0 st9 st10">70</text>
<text transform="matrix(1 0 0 1 551.0895 126.4307)" class="st0 st9 st10">60</text>
<text transform="matrix(1 0 0 1 551.0895 138.4307)" class="st0 st9 st10">50</text>
<text transform="matrix(1 0 0 1 551.0895 150.4307)" class="st0 st9 st10">40</text>
<text transform="matrix(1 0 0 1 551.0895 162.4307)" class="st0 st9 st10">30</text>
<text transform="matrix(1 0 0 1 551.0895 174.4307)" class="st0 st9 st10">20</text>
<text transform="matrix(1 0 0 1 551.0895 186.4307)" class="st0 st9 st10">10</text>
<text transform="matrix(1 0 0 1 556.0895 199.4307)" class="st0 st9 st10">0</text>
<text transform="matrix(1 0 0 1 862.087 213.0878)" class="st0 st9 st10">Agosto</text>
<text transform="matrix(1 0 0 1 815.8546 213.0878)" class="st0 st9 st10">Julio</text>
<text transform="matrix(1 0 0 1 763.3478 213.0878)" class="st0 st9 st10">Junio</text>
<text transform="matrix(1 0 0 1 713.1007 213.0878)" class="st0 st9 st10">Mayo</text>
<text transform="matrix(1 0 0 1 664.1095 213.0878)" class="st0 st9 st10">Abril</text>
<text transform="matrix(1 0 0 1 609.5988 213.0878)" class="st0 st9 st10">Marzo</text>
<text transform="matrix(1 0 0 1 555.339 213.0878)" class="st0 st9 st10">Febrero</text>
<g>
	<g>
		<g>
			<path class="st11" d="M165.5,227.1v1.7H158v-1.7H165.5z M165.9,222.5v1.7h-7.6v-1.7H165.9z M160.3,219.7h1.7l-1.7,11.8h-1.7
				L160.3,219.7z M163.6,219.7h1.7l-1.7,11.8h-1.7L163.6,219.7z"/>
			<path class="st11" d="M167.4,219.7h2.1v11.8h-2.1V219.7z M168.2,219.7h5.7v2.1h-5.7V219.7z M168.2,224.7h5.1v2h-5.1V224.7z
				 M168.2,229.5h5.7v2.1h-5.7V229.5z"/>
			<path class="st11" d="M176.3,231.3c-0.3-0.2-0.6-0.6-0.8-1s-0.3-1-0.3-1.6V226c0-0.6,0.1-1.2,0.3-1.6c0.2-0.4,0.4-0.8,0.8-1
				c0.3-0.2,0.7-0.3,1.2-0.3c0.4,0,0.8,0.1,1.1,0.4c0.3,0.3,0.6,0.6,0.8,1.1l-0.2,1.5c0-0.2,0-0.4-0.1-0.6s-0.2-0.3-0.3-0.4
				c-0.1-0.1-0.3-0.1-0.5-0.1c-0.3,0-0.5,0.1-0.7,0.3c-0.2,0.2-0.3,0.5-0.3,0.9v2.4c0,0.4,0.1,0.7,0.3,0.9c0.2,0.2,0.4,0.3,0.7,0.3
				c0.2,0,0.4,0,0.5-0.1c0.1-0.1,0.2-0.2,0.3-0.4s0.1-0.3,0.1-0.6l0.1,1.5c-0.2,0.5-0.4,0.8-0.7,1.1c-0.3,0.3-0.7,0.4-1.2,0.4
				C177,231.7,176.6,231.6,176.3,231.3z M179.3,219.7h2.1v11.8h-2.1V219.7z"/>
			<path class="st11" d="M184.1,231.3c-0.3-0.2-0.6-0.6-0.8-1c-0.2-0.4-0.3-1-0.3-1.6V226c0-0.6,0.1-1.2,0.3-1.6
				c0.2-0.4,0.4-0.8,0.8-1c0.3-0.2,0.7-0.3,1.2-0.3c0.4,0,0.8,0.1,1.1,0.4c0.3,0.3,0.6,0.6,0.8,1.1l-0.2,1.5c0-0.2,0-0.4-0.1-0.6
				s-0.2-0.3-0.3-0.4s-0.3-0.1-0.5-0.1c-0.3,0-0.5,0.1-0.7,0.3c-0.2,0.2-0.3,0.5-0.3,0.9v2.4c0,0.4,0.1,0.7,0.3,0.9
				c0.2,0.2,0.4,0.3,0.7,0.3c0.2,0,0.4,0,0.5-0.1s0.2-0.2,0.3-0.4s0.1-0.3,0.1-0.6l0.1,1.5c-0.1,0.5-0.4,0.8-0.7,1.1
				c-0.3,0.3-0.7,0.4-1.2,0.4C184.8,231.7,184.4,231.6,184.1,231.3z M184.1,234.4c-0.5-0.4-0.8-0.9-0.9-1.6l2-0.6
				c0.1,0.3,0.2,0.5,0.3,0.6c0.2,0.1,0.4,0.2,0.6,0.2c0.3,0,0.5-0.1,0.7-0.3c0.2-0.2,0.2-0.4,0.2-0.7v-8.9h2.1v8.8
				c0,0.6-0.1,1.2-0.4,1.6c-0.3,0.5-0.6,0.8-1.1,1c-0.5,0.2-1.1,0.4-1.7,0.4C185.2,235,184.5,234.8,184.1,234.4z"/>
			<path class="st11" d="M191.4,231c-0.4-0.4-0.6-1-0.6-1.9c0-0.9,0.2-1.5,0.7-2c0.5-0.5,1.2-0.7,2.2-0.7h1.4l0.1,1.6h-1.4
				c-0.3,0-0.6,0.1-0.8,0.2c-0.2,0.2-0.3,0.4-0.3,0.7c0,0.3,0.1,0.5,0.2,0.6c0.2,0.1,0.4,0.2,0.7,0.2c0.4,0,0.8-0.1,1-0.2
				c0.2-0.1,0.3-0.4,0.3-0.7l0.2,1c0,0.4-0.1,0.7-0.3,0.9c-0.2,0.2-0.4,0.4-0.7,0.6c-0.3,0.1-0.6,0.2-1,0.2
				C192.4,231.7,191.8,231.5,191.4,231z M195.1,225.9c0-0.3-0.1-0.5-0.3-0.7s-0.5-0.2-0.8-0.2c-0.3,0-0.5,0.1-0.7,0.2
				c-0.2,0.1-0.4,0.3-0.5,0.5l-1.6-0.7c0.2-0.6,0.5-1.1,1-1.4s1.1-0.5,1.9-0.5c0.6,0,1.2,0.1,1.6,0.3s0.8,0.5,1,1
				c0.2,0.4,0.4,0.9,0.4,1.5v5.7h-2V225.9z"/>
			<path class="st11" d="M198.9,223.1h2.2v8.4h-2.2V223.1z M203,225.2c-0.1,0-0.3,0-0.4,0c-0.5,0-0.8,0.1-1.1,0.4
				c-0.3,0.3-0.4,0.7-0.4,1.2l-0.2-2.2c0.2-0.5,0.5-0.9,0.9-1.2c0.4-0.3,0.8-0.4,1.2-0.4c0.2,0,0.3,0,0.5,0.1s0.3,0.1,0.4,0.2
				l-0.6,2C203.2,225.2,203.1,225.2,203,225.2z"/>
			<path class="st11" d="M210.4,231.6v2h-6.2v-2H210.4z"/>
			<path class="st11" d="M213.7,226.1h-3.2l5-3.5v2.5L213.7,226.1z M215.6,229.6l-5-3.5h3.2l1.9,1V229.6z"/>
			<path class="st11" d="M219.7,224.5l2.1-4.8h2.3l-3.3,6.7l-2.3,5.2h-2.3L219.7,224.5z M219.7,226.8l-0.3-0.6l-3.2-6.4h2.3l2,4.4
				l0.4,0.8l3.3,6.6h-2.3L219.7,226.8z"/>
			<path class="st11" d="M224.8,222.7l5,3.5h-3.1l-1.9-1V222.7z M226.7,226.1h3.1l-5,3.5v-2.5L226.7,226.1z"/>
		</g>
	</g>
</g>
<path class="st12" d="M242.6,226.2c-1.2,0-2.2,1-2.2,2.2h4.4C244.8,227.2,243.9,226.2,242.6,226.2
	C242.7,226.2,242.6,226.2,242.6,226.2h-0.3l-0.1-0.8l0.4,0c0.7,0,1.2-0.5,1.3-1.2l0-0.2l4,0.4l0,0.3c-0.3,2.8-1.4,7.5-5.4,7.5
	c-5.6,0-5.3-9.6-5.3-9.6l5.3-3.5l5.5,3.6c0,0,0,0.8-0.1,1.9l-0.1,0.5l-3.8-0.5l0-0.5c0,0,0,0,0-0.1c0-0.7-0.6-1.3-1.3-1.3
	c-0.7,0-1.3,0.6-1.3,1.3s0.6,1.3,1.3,1.3h0.4l-0.1,0.8H242.6z"/>
<path class="st0" d="M12.1,246.6c1.5,1.5,1.5,3.9,0,5.4c0,0,0,0,0,0l-1.7,1.7c-1.5,1.5-3.9,1.5-5.4,0c-1.5-1.5-1.5-3.9,0-5.4
	l0.9-0.9c0.2-0.2,0.7-0.1,0.7,0.3c0,0.4,0.1,0.9,0.2,1.3c0,0.1,0,0.3-0.1,0.4l-0.3,0.3c-0.7,0.7-0.7,1.8,0,2.5
	c0.7,0.7,1.8,0.7,2.6,0l1.7-1.7c0.7-0.7,0.7-1.8,0-2.5c-0.1-0.1-0.2-0.2-0.3-0.2c-0.1-0.1-0.2-0.2-0.2-0.3c0-0.3,0.1-0.5,0.3-0.7
	l0.5-0.5c0.1-0.1,0.4-0.2,0.5,0C11.8,246.3,11.9,246.5,12.1,246.6L12.1,246.6z M15.6,243.1c-1.5-1.5-3.9-1.5-5.4,0l-1.7,1.7
	c0,0,0,0,0,0c-1.5,1.5-1.5,3.9,0,5.4c0.2,0.2,0.3,0.3,0.5,0.4c0.2,0.1,0.4,0.1,0.5,0l0.5-0.5c0.2-0.2,0.3-0.5,0.3-0.7
	c0-0.1-0.1-0.2-0.2-0.3c-0.1-0.1-0.2-0.1-0.3-0.2c-0.7-0.7-0.7-1.8,0-2.5l1.7-1.7c0.7-0.7,1.9-0.7,2.6,0c0.7,0.7,0.7,1.8,0,2.5
	l-0.3,0.3c-0.1,0.1-0.1,0.3-0.1,0.4c0.1,0.4,0.2,0.9,0.2,1.3c0,0.3,0.4,0.5,0.7,0.3l0.9-0.9C17.1,247,17.1,244.6,15.6,243.1
	L15.6,243.1z"/>
<text transform="matrix(1 0 0 1 20.6764 253.2051)" class="st0 st9 st13">Edgar.somee.com</text>
<path class="st0" d="M5,271.9v-4.8c0-0.6,0.5-1.1,1.1-1.1h4.8c0.3,0,0.6,0.1,0.8,0.3l5,5c0.4,0.4,0.4,1.2,0,1.6l-4.8,4.8
	c-0.4,0.4-1.2,0.4-1.6,0l-5-5C5.1,272.5,5,272.2,5,271.9z M7.6,267.5c-0.6,0-1.1,0.5-1.1,1.1s0.5,1.1,1.1,1.1s1.1-0.5,1.1-1.1
	S8.2,267.5,7.6,267.5z"/>
<text transform="matrix(1 0 0 1 21.1769 276.2193)" class="st14 st9 st13">Name</text>
<g>
	<text transform="matrix(1 0 0 1 52.0583 276.2193)" class="st0 st9 st13">[FTS]</text>
</g>
<path class="st15" d="M93.3,276.4v0.8c0,0.3-0.2,0.5-0.5,0.5h-5.7c-0.3,0-0.5-0.2-0.5-0.5v-7.7c0-0.3,0.2-0.5,0.5-0.5h1.5v6.2
	c0,0.6,0.5,1.2,1.2,1.2H93.3z M93.3,269.2V267h-3.5c-0.3,0-0.5,0.2-0.5,0.5v7.7c0,0.3,0.2,0.5,0.5,0.5h5.7c0.3,0,0.5-0.2,0.5-0.5
	v-5.5h-2.2C93.6,269.7,93.3,269.4,93.3,269.2z M95.9,268.5l-1.4-1.4c-0.1-0.1-0.2-0.1-0.4-0.1H94v2h2v-0.1
	C96,268.7,95.9,268.6,95.9,268.5z"/>
<polygon class="st16" points="669.4,297.1 643,297.1 628.9,274.7 641.3,252.2 669.4,252.2 778.9,252.2 805.3,252.2 819.5,274.7 
	807,297.1 778.9,297.1 "/>
<g>
	<g>
		<path class="st0" d="M678.7,268.3h1.3l3.5,11.2h-2.1l-2.1-7.5l-2.1,7.5h-2.1L678.7,268.3z M677.1,275.8h4.5v1.9h-4.5V275.8z"/>
		<path class="st0" d="M685.7,279.2c-0.5-0.2-0.8-0.6-1-1c-0.2-0.4-0.4-1-0.4-1.6v-2.3c0-0.6,0.1-1.2,0.4-1.6c0.2-0.4,0.6-0.8,1-1
			c0.5-0.2,1-0.3,1.6-0.3c0.5,0,1,0.1,1.4,0.2c0.4,0.2,0.7,0.4,0.9,0.7c0.2,0.3,0.4,0.7,0.5,1.2l-1.8,0.6c-0.1-0.3-0.2-0.6-0.3-0.7
			c-0.2-0.2-0.4-0.2-0.6-0.2c-0.3,0-0.6,0.1-0.8,0.3c-0.2,0.2-0.3,0.5-0.3,0.9v2.1c0,0.4,0.1,0.7,0.3,0.9s0.4,0.3,0.8,0.3
			c0.3,0,0.5-0.1,0.6-0.2s0.3-0.4,0.3-0.7l1.8,0.6c-0.1,0.5-0.2,0.9-0.5,1.2c-0.2,0.3-0.5,0.6-0.9,0.7c-0.4,0.2-0.9,0.2-1.4,0.2
			C686.7,279.6,686.2,279.5,685.7,279.2z"/>
		<path class="st0" d="M692.6,279.2c-0.5-0.2-0.8-0.6-1-1c-0.2-0.4-0.4-1-0.4-1.6v-2.3c0-0.6,0.1-1.2,0.4-1.6c0.2-0.4,0.6-0.8,1-1
			c0.5-0.2,1-0.3,1.6-0.3c0.5,0,1,0.1,1.4,0.2c0.4,0.2,0.7,0.4,0.9,0.7s0.4,0.7,0.5,1.2l-1.8,0.6c-0.1-0.3-0.2-0.6-0.3-0.7
			c-0.2-0.2-0.4-0.2-0.6-0.2c-0.3,0-0.6,0.1-0.8,0.3s-0.3,0.5-0.3,0.9v2.1c0,0.4,0.1,0.7,0.3,0.9s0.4,0.3,0.8,0.3
			c0.3,0,0.5-0.1,0.6-0.2c0.2-0.2,0.3-0.4,0.3-0.7l1.8,0.6c-0.1,0.5-0.2,0.9-0.5,1.2s-0.5,0.6-0.9,0.7c-0.4,0.2-0.9,0.2-1.4,0.2
			C693.6,279.6,693.1,279.5,692.6,279.2z"/>
		<path class="st0" d="M699.5,279.2c-0.5-0.2-0.8-0.6-1.1-1c-0.2-0.5-0.4-1-0.4-1.6v-2c0-0.7,0.1-1.2,0.4-1.7s0.6-0.8,1-1.1
			s1-0.4,1.6-0.4c0.6,0,1.1,0.1,1.6,0.4c0.4,0.3,0.8,0.7,1,1.2c0.2,0.5,0.3,1.1,0.3,1.9v1.4h-4.4v-1.4h2.6v-0.6
			c0-0.3-0.1-0.6-0.3-0.8c-0.2-0.2-0.4-0.3-0.7-0.3c-0.3,0-0.6,0.1-0.8,0.3c-0.2,0.2-0.3,0.5-0.3,0.9v2.2c0,0.4,0.1,0.7,0.3,0.9
			c0.2,0.2,0.5,0.3,0.8,0.3c0.3,0,0.5-0.1,0.7-0.2s0.3-0.3,0.4-0.6l1.7,0.6c-0.2,0.6-0.5,1.1-0.9,1.5c-0.5,0.3-1.1,0.5-1.8,0.5
			C700.5,279.6,699.9,279.4,699.5,279.2z"/>
		<path class="st0" d="M706.3,279.2c-0.3-0.2-0.6-0.5-0.7-1c-0.2-0.4-0.2-0.9-0.2-1.5v-2.6c0-0.6,0.1-1.1,0.2-1.5
			c0.2-0.4,0.4-0.7,0.7-1c0.3-0.2,0.7-0.3,1.1-0.3c0.4,0,0.7,0.1,1.1,0.4c0.3,0.3,0.6,0.6,0.8,1.1l-0.2,1.4c0-0.2,0-0.4-0.1-0.5
			s-0.2-0.3-0.3-0.3c-0.1-0.1-0.3-0.1-0.5-0.1c-0.3,0-0.5,0.1-0.7,0.3c-0.2,0.2-0.2,0.5-0.2,0.8v2.3c0,0.3,0.1,0.6,0.2,0.8
			s0.4,0.3,0.7,0.3c0.2,0,0.3,0,0.5-0.1c0.1-0.1,0.2-0.2,0.3-0.3c0.1-0.1,0.1-0.3,0.1-0.5l0.1,1.4c-0.2,0.4-0.4,0.8-0.7,1
			c-0.3,0.2-0.7,0.4-1.1,0.4C707,279.6,706.7,279.5,706.3,279.2z M709.2,268.3h2v11.2h-2V268.3z"/>
		<path class="st0" d="M714.2,279.2c-0.5-0.2-0.8-0.6-1.1-1c-0.2-0.5-0.4-1-0.4-1.6v-2c0-0.7,0.1-1.2,0.4-1.7s0.6-0.8,1-1.1
			s1-0.4,1.6-0.4c0.6,0,1.1,0.1,1.6,0.4c0.4,0.3,0.8,0.7,1,1.2c0.2,0.5,0.3,1.1,0.3,1.9v1.4h-4.4v-1.4h2.6v-0.6
			c0-0.3-0.1-0.6-0.3-0.8c-0.2-0.2-0.4-0.3-0.7-0.3c-0.3,0-0.6,0.1-0.8,0.3c-0.2,0.2-0.3,0.5-0.3,0.9v2.2c0,0.4,0.1,0.7,0.3,0.9
			c0.2,0.2,0.5,0.3,0.8,0.3c0.3,0,0.5-0.1,0.7-0.2s0.3-0.3,0.4-0.6l1.7,0.6c-0.2,0.6-0.5,1.1-0.9,1.5c-0.5,0.3-1.1,0.5-1.8,0.5
			C715.2,279.6,714.6,279.4,714.2,279.2z"/>
		<path class="st0" d="M720.3,271.5h2.1v8h-2.1V271.5z M724.1,273.4c-0.1,0-0.2,0-0.4,0c-0.4,0-0.8,0.1-1,0.4
			c-0.2,0.3-0.4,0.6-0.4,1.1l-0.2-2c0.2-0.5,0.5-0.8,0.9-1.1c0.4-0.3,0.7-0.4,1.2-0.4c0.2,0,0.3,0,0.4,0.1c0.1,0.1,0.3,0.1,0.3,0.2
			l-0.6,1.9C724.3,273.5,724.2,273.4,724.1,273.4z"/>
		<path class="st0" d="M728.9,279c-0.4-0.4-0.5-1-0.5-1.8c0-0.8,0.2-1.4,0.7-1.9c0.5-0.4,1.1-0.6,2-0.6h1.3l0.1,1.6h-1.3
			c-0.3,0-0.5,0.1-0.7,0.2c-0.2,0.2-0.2,0.4-0.2,0.7c0,0.2,0.1,0.4,0.2,0.6s0.4,0.2,0.7,0.2c0.4,0,0.7-0.1,0.9-0.2
			c0.2-0.1,0.3-0.3,0.3-0.6l0.1,0.9c0,0.3-0.1,0.6-0.3,0.9c-0.2,0.2-0.4,0.4-0.7,0.5c-0.3,0.1-0.6,0.2-1,0.2
			C729.8,279.6,729.2,279.4,728.9,279z M732.3,274.1c0-0.3-0.1-0.5-0.3-0.7s-0.4-0.2-0.8-0.2c-0.2,0-0.5,0.1-0.7,0.2
			s-0.4,0.3-0.5,0.4l-1.6-0.6c0.2-0.6,0.5-1,0.9-1.3s1.1-0.5,1.8-0.5c0.6,0,1.1,0.1,1.5,0.3c0.4,0.2,0.8,0.5,1,0.9
			c0.2,0.4,0.3,0.9,0.3,1.4v5.4h-1.8V274.1z"/>
		<path class="st0" d="M740.4,276.9c0,0.2,0,0.3,0.1,0.4c0.1,0.1,0.2,0.2,0.4,0.2h0.3v1.9h-0.9c-0.6,0-1.1-0.2-1.5-0.6
			s-0.5-0.9-0.5-1.6v-9h2V276.9z"/>
		<path class="st0" d="M742.8,279c-0.4-0.4-0.5-1-0.5-1.8c0-0.8,0.2-1.4,0.7-1.9c0.5-0.4,1.1-0.6,2-0.6h1.3l0.1,1.6h-1.3
			c-0.3,0-0.5,0.1-0.7,0.2c-0.2,0.2-0.2,0.4-0.2,0.7c0,0.2,0.1,0.4,0.2,0.6s0.4,0.2,0.7,0.2c0.4,0,0.7-0.1,0.9-0.2
			c0.2-0.1,0.3-0.3,0.3-0.6l0.1,0.9c0,0.3-0.1,0.6-0.3,0.9c-0.2,0.2-0.4,0.4-0.7,0.5c-0.3,0.1-0.6,0.2-1,0.2
			C743.7,279.6,743.2,279.4,742.8,279z M746.3,274.1c0-0.3-0.1-0.5-0.3-0.7c-0.2-0.2-0.4-0.2-0.8-0.2c-0.2,0-0.5,0.1-0.7,0.2
			c-0.2,0.1-0.4,0.3-0.5,0.4l-1.6-0.6c0.2-0.6,0.5-1,0.9-1.3s1.1-0.5,1.8-0.5c0.6,0,1.1,0.1,1.5,0.3c0.4,0.2,0.8,0.5,1,0.9
			c0.2,0.4,0.3,0.9,0.3,1.4v5.4h-1.8V274.1z"/>
		<path class="st0" d="M752.4,268.3h2v11.2h-2V268.3z M753.2,268.3h5.3v1.9h-5.3V268.3z M753.2,273.1h4.7v1.9h-4.7V273.1z"/>
		<path class="st0" d="M759.3,277.4h2v2h-2V277.4z"/>
		<path class="st0" d="M764.3,279.2c-0.5-0.3-0.9-0.7-1.2-1.2c-0.3-0.5-0.4-1.1-0.4-1.8v-4.7c0-0.7,0.1-1.3,0.4-1.8
			c0.3-0.5,0.7-0.9,1.2-1.2c0.5-0.3,1.1-0.4,1.8-0.4s1.3,0.1,1.8,0.4c0.5,0.3,0.9,0.7,1.2,1.2c0.3,0.5,0.4,1.1,0.4,1.8v4.7
			c0,0.7-0.1,1.3-0.4,1.8c-0.3,0.5-0.7,0.9-1.2,1.2c-0.5,0.3-1.1,0.4-1.8,0.4S764.8,279.4,764.3,279.2z M766.9,277.4
			c0.2-0.1,0.4-0.3,0.5-0.5s0.2-0.5,0.2-0.8v-4.5c0-0.3-0.1-0.6-0.2-0.8s-0.3-0.4-0.5-0.5c-0.2-0.1-0.5-0.2-0.8-0.2
			c-0.3,0-0.5,0.1-0.7,0.2c-0.2,0.1-0.4,0.3-0.5,0.5s-0.2,0.5-0.2,0.8v4.5c0,0.3,0.1,0.6,0.2,0.8s0.3,0.4,0.5,0.5
			c0.2,0.1,0.5,0.2,0.7,0.2C766.4,277.6,766.6,277.5,766.9,277.4z"/>
	</g>
</g>
<circle class="st0" cx="143.6" cy="225.5" r="10.5"/>
<path class="st17" d="M143.6,214.1c-6.4,0-11.5,5.2-11.5,11.5c0,6.4,5.2,11.5,11.5,11.5c6.4,0,11.5-5.2,11.5-11.5
	C155.2,219.3,150,214.1,143.6,214.1z M143.6,218.6c2.3,0,4.1,1.8,4.1,4.1c0,2.3-1.8,4.1-4.1,4.1s-4.1-1.8-4.1-4.1
	C139.6,220.4,141.4,218.6,143.6,218.6z M143.6,234.6c-2.7,0-5.2-1.2-6.8-3.2c0.9-1.6,2.6-2.8,4.6-2.8c0.1,0,0.2,0,0.3,0.1
	c0.6,0.2,1.2,0.3,1.9,0.3c0.7,0,1.3-0.1,1.9-0.3c0.1,0,0.2-0.1,0.3-0.1c2,0,3.7,1.1,4.6,2.8C148.8,233.3,146.4,234.6,143.6,234.6z"
	/>
</svg>
